<svg width="93" height="93" viewBox="0 0 93 93" fill="none" xmlns="http://www.w3.org/2000/svg">
<path d="M91.8823 22.4525L47.4041 0.213344C46.8351 -0.0711148 46.1651 -0.0711148 45.596 0.213344L1.11775 22.4525C0.279134 22.8718 -0.1612 23.8127 0.0543169 24.7254C0.269834 25.638 1.08419 26.2825 2.02167 26.2825H6.06515V82.8913C6.06515 84.0077 6.97028 84.913 8.08689 84.913H24.2608V90.9783C24.2608 92.0947 25.1659 93 26.2825 93H66.7173C67.8337 93 68.7391 92.0947 68.7391 90.9783V84.913H84.913C86.0294 84.913 86.9347 84.0077 86.9347 82.8913V26.2825H90.9782C91.9159 26.2825 92.7304 25.6378 92.9457 24.7252C93.1611 23.8125 92.7209 22.8718 91.8823 22.4525ZM64.6956 88.9565H28.3043C28.3043 86.0361 28.3043 37.9767 28.3043 34.3695H34.9342L36.4952 39.0522C36.7703 39.8777 37.543 40.4347 38.4132 40.4347H54.5871C55.4575 40.4347 56.23 39.8779 56.5051 39.0522L58.0659 34.3695H64.6956V88.9565ZM39.1964 34.3695H53.8035L53.1296 36.3912H39.8702L39.1964 34.3695ZM82.8912 24.2608V80.8695H68.7391V32.3477C68.7391 31.2311 67.8337 30.326 66.7173 30.326C58.3316 30.326 36.2265 30.326 26.2825 30.326C25.1659 30.326 24.2608 31.2311 24.2608 32.3477V80.8695H10.1086V24.2608C10.1086 23.6829 9.86622 23.1615 9.47744 22.7932L46.4999 4.2819L83.5224 22.7932C83.1336 23.1615 82.8912 23.6829 82.8912 24.2608Z" fill="white"/>
<path d="M36.4929 16.766C35.7034 17.5554 35.7034 18.8356 36.4929 19.6251C37.2824 20.4146 38.5626 20.4146 39.3521 19.6251C43.3026 15.6746 49.6969 15.6742 53.6478 19.6251C54.4373 20.4146 55.7172 20.4146 56.5071 19.6251C57.2966 18.8356 57.2966 17.5554 56.5071 16.7658C53.834 14.0928 50.2802 12.6208 46.4999 12.6208C42.7199 12.6208 39.1659 14.093 36.4929 16.766Z" fill="white"/>
<path d="M40.5364 22.6874C39.7469 23.4769 39.7467 24.7571 40.5364 25.5466C41.3261 26.3363 42.6063 26.3363 43.3956 25.5466C45.1078 23.8348 47.8929 23.8352 49.6043 25.5466C50.394 26.3361 51.6738 26.3361 52.4637 25.5466C53.2532 24.7571 53.2532 23.4769 52.4637 22.6874C49.1751 19.3993 43.8248 19.3991 40.5364 22.6874Z" fill="white"/>
<path d="M55.2929 66.8629L51.2427 60.3828C52.0694 59.3461 52.5652 58.0346 52.5652 56.6086C52.5652 53.2643 49.8443 50.5434 46.4999 50.5434C43.1556 50.5434 40.4347 53.2643 40.4347 56.6086C40.4347 58.1023 40.9784 59.4704 41.8768 60.5286L38.1239 66.9709C34.2239 65.8064 30.326 68.7496 30.326 72.7826C30.326 76.127 33.0469 78.8478 36.3912 78.8478C39.7356 78.8478 42.4565 76.127 42.4565 72.7826C42.4565 71.5192 42.0677 70.345 41.4041 69.3727L45.3688 62.5665C46.186 62.7214 47.0031 62.7088 47.8155 62.5285L51.8656 69.0086C51.0391 70.0451 50.5434 71.3567 50.5434 72.7826C50.5434 76.127 53.2643 78.8478 56.6086 78.8478C59.953 78.8478 62.6739 76.127 62.6739 72.7826C62.6739 68.9196 59.0885 66.0197 55.2929 66.8629ZM36.3912 74.8043C35.2765 74.8043 34.3695 73.8974 34.3695 72.7826C34.3695 71.6678 35.2765 70.7608 36.3912 70.7608C37.506 70.7608 38.413 71.6678 38.413 72.7826C38.413 73.8974 37.506 74.8043 36.3912 74.8043ZM44.4782 56.6086C44.4782 55.4939 45.3852 54.5869 46.4999 54.5869C47.6147 54.5869 48.5217 55.4939 48.5217 56.6086C48.5217 57.7455 47.5824 58.6304 46.4999 58.6304C46.1413 58.6304 44.4782 57.7232 44.4782 56.6086ZM56.6086 74.8043C55.4938 74.8043 54.5869 73.8974 54.5869 72.7826C54.5869 72.0863 54.9453 71.4422 55.5391 71.0712C56.8607 70.2301 58.6304 71.1864 58.6304 72.7826C58.6304 73.8974 57.7234 74.8043 56.6086 74.8043Z" fill="white"/>
</svg>
