<svg width="100" height="85" viewBox="0 0 100 85" fill="none" xmlns="http://www.w3.org/2000/svg">
<path d="M91.5215 48.3246V1.55385C91.5215 0.621538 90.9 0 89.9677 0H19.7338C18.8015 0 18.18 0.621538 18.18 1.55385V55.6277L15.0723 56.7154V54.0738C15.0723 53.1415 14.4508 52.52 13.5185 52.52H1.55385C0.621538 52.52 0 53.1415 0 54.0738V83.1308C0 84.0631 0.621538 84.6846 1.55385 84.6846H13.5185C14.4508 84.6846 15.0723 84.0631 15.0723 83.1308V81.4215L30.3 78.9354C33.0969 78.4692 59.6677 84.3738 62.1538 84.3738C63.7077 84.3738 65.4169 83.9077 66.8154 82.82C66.9708 82.6646 93.6969 61.9985 96.96 59.5123C101.777 56.0938 99.4462 48.1692 91.5215 48.3246ZM81.1108 52.9861V13.5185H88.4138V48.9462C86.5492 49.5677 83.1308 51.7431 81.1108 52.9861ZM68.9908 60.1338C68.3692 59.5123 67.5923 59.0462 66.66 58.7354L41.0215 49.5677C40.0892 49.2569 39.0015 49.1015 38.0692 49.1015L78.0031 15.2277V54.6954C75.6723 56.2492 72.72 57.9585 68.9908 60.1338ZM21.2877 3.10769H88.4138V10.4108H21.2877V3.10769ZM75.3615 13.5185L31.6985 50.5V13.5185H75.3615ZM21.2877 13.5185H28.5908V52.0538L21.2877 54.54V13.5185ZM11.9646 81.7323H3.10769V55.7831H11.9646V81.7323ZM95.0954 57.0262C65.4169 80.0231 95.0954 57.0262 64.9508 80.3338C63.7077 81.1108 62.3092 81.4215 60.7554 80.9554C32.6308 75.9831 32.9415 75.3615 29.8338 75.8277L15.0723 78.3138V60.1338C17.5585 59.3569 29.6785 55.0061 36.5154 52.6754C39.6231 51.4323 40.0892 53.1415 65.7277 61.8431C66.9708 62.3092 67.7477 63.2415 68.2138 64.3292C68.5246 65.5723 68.3692 66.8154 67.5923 67.7477C66.5046 69.3015 64.4846 69.7677 62.9308 68.9908L48.3246 62.7754C47.5477 62.4646 46.6154 62.7754 46.3046 63.5523C45.9938 64.3292 46.3046 65.2615 47.0815 65.5723L61.6877 71.7877C62.62 72.2538 63.5523 72.4092 64.4846 72.4092C66.66 72.4092 68.8354 71.3215 70.0785 69.4569C71.4769 67.5923 71.7877 65.4169 71.1662 63.2415C71.1662 63.0862 71.0108 62.7754 70.8554 62.62C88.5692 52.0538 89.8123 50.3446 93.8523 51.5877C96.96 52.8308 96.96 55.6277 95.0954 57.0262Z" fill="white"/>
<path d="M37.4477 17.8692H40.5554V20.9769H37.4477V17.8692Z" fill="white"/>
<path d="M69.1462 47.8585H72.2538V50.9662H69.1462V47.8585Z" fill="white"/>
</svg>
