<svg width="52" height="45" viewBox="0 0 52 45" fill="none" xmlns="http://www.w3.org/2000/svg">
<g id="Vector">
<path d="M25.75 17.6191C30.5285 17.6191 34.416 13.7316 34.416 8.95312C34.416 4.17466 30.5285 0.287109 25.75 0.287109C20.9715 0.287109 17.084 4.17466 17.084 8.95312C17.084 13.7316 20.9715 17.6191 25.75 17.6191ZM25.75 3.27539C28.8807 3.27539 31.4277 5.8224 31.4277 8.95312C31.4277 12.0838 28.8807 14.6309 25.75 14.6309C22.6193 14.6309 20.0723 12.0838 20.0723 8.95312C20.0723 5.8224 22.6193 3.27539 25.75 3.27539Z" fill="#FC7B12"/>
<path d="M43.2812 17.6191C46.3021 17.6191 48.7598 15.1615 48.7598 12.1406C48.7598 9.11977 46.3021 6.66211 43.2812 6.66211C40.2604 6.66211 37.8027 9.11977 37.8027 12.1406C37.8027 15.1615 40.2604 17.6191 43.2812 17.6191ZM43.2812 9.65039C44.6544 9.65039 45.7715 10.7675 45.7715 12.1406C45.7715 13.5137 44.6544 14.6309 43.2812 14.6309C41.9081 14.6309 40.791 13.5137 40.791 12.1406C40.791 10.7675 41.9081 9.65039 43.2812 9.65039Z" fill="#FC7B12"/>
<path d="M44.4865 21.0059H42.1756C39.4524 21.0059 37.1016 22.6147 36.0304 24.9257C33.8249 22.5181 30.6571 21.0059 27.1424 21.0059H24.3577C20.843 21.0059 17.6752 22.5181 15.4697 24.9257C14.3984 22.6147 12.0476 21.0059 9.32441 21.0059H7.01348C3.2841 21.0059 0.25 24.0216 0.25 27.7285V38.6068C0.25 40.2161 1.56425 41.5254 3.17971 41.5254H12.3166C12.4698 43.3084 13.9691 44.7129 15.7913 44.7129H35.7088C37.5309 44.7129 39.0302 43.3084 39.1835 41.5254H48.216C49.889 41.5254 51.2501 40.1697 51.2501 38.5032V27.7285C51.25 24.0216 48.2159 21.0059 44.4865 21.0059ZM3.23828 27.7285C3.23828 25.6694 4.93184 23.9941 7.01348 23.9941H9.32441C11.4061 23.9941 13.0996 25.6694 13.0996 27.7285V28.7516C12.0948 31.3677 12.3027 32.9356 12.3027 38.5371H3.23828V27.7285ZM36.209 41.2245C36.209 41.5003 35.9847 41.7246 35.7088 41.7246H15.7912C15.5153 41.7246 15.291 41.5002 15.291 41.2245V33.0608C15.291 28.0614 19.3583 23.9941 24.3576 23.9941H27.1423C32.1417 23.9941 36.209 28.0614 36.209 33.0607V41.2245ZM48.2617 38.5032C48.2617 38.5547 48.8187 38.5371 39.1973 38.5371C39.1973 32.8941 39.4036 31.3634 38.4004 28.7516V27.7285C38.4004 25.6694 40.0939 23.9941 42.1756 23.9941H44.4865C46.5682 23.9941 48.2617 25.6694 48.2617 27.7285V38.5032Z" fill="#FC7B12"/>
<path d="M8.21875 17.6191C11.2396 17.6191 13.6973 15.1615 13.6973 12.1406C13.6973 9.11977 11.2396 6.66211 8.21875 6.66211C5.1979 6.66211 2.74023 9.11977 2.74023 12.1406C2.74023 15.1615 5.1979 17.6191 8.21875 17.6191ZM8.21875 9.65039C9.59187 9.65039 10.709 10.7675 10.709 12.1406C10.709 13.5137 9.59187 14.6309 8.21875 14.6309C6.84563 14.6309 5.72852 13.5137 5.72852 12.1406C5.72852 10.7675 6.84563 9.65039 8.21875 9.65039Z" fill="#FC7B12"/>
</g>
</svg>
