<svg width="100" height="100" viewBox="0 0 100 100" fill="none" xmlns="http://www.w3.org/2000/svg">
<path d="M62.1704 9.93691H57.2503C57.013 7.87187 55.2741 6.25723 53.1466 6.25723H50.7132C48.9399 3.13926 45.6155 1.17383 41.9843 1.17383C38.353 1.17383 35.0271 3.13926 33.2538 6.25723H30.8204C28.6929 6.25723 26.954 7.87207 26.7167 9.93691H21.7935C17.7077 9.93691 14.3833 13.268 14.3833 17.3621V72.8998C14.3833 76.9937 17.7077 80.325 21.7935 80.325H50.503V88.8408C50.503 89.407 50.8159 89.9264 51.3167 90.19L67.347 98.6516C67.4808 98.7223 67.8323 98.8281 68.0593 98.8281C68.2837 98.8281 68.6183 98.7324 68.7716 98.6516L84.8034 90.19C85.304 89.9264 85.6171 89.407 85.6171 88.8408V66.5393C85.6171 66.0607 85.3323 65.4686 84.8034 65.19L69.5808 57.1562V17.3619C69.5806 13.268 66.2562 9.93691 62.1704 9.93691ZM29.7208 10.4076C29.7208 9.80195 30.214 9.30859 30.8204 9.30859H34.1925C34.7974 9.30859 35.3442 8.95176 35.5888 8.39883C36.7079 5.86348 39.2187 4.225 41.9843 4.225C44.7483 4.225 47.2593 5.86328 48.3782 8.39883C48.6226 8.95156 49.1694 9.30859 49.7745 9.30859H53.1466C53.753 9.30859 54.2462 9.80176 54.2462 10.4076V14.366C54.2462 14.9717 53.753 15.465 53.1466 15.465H30.8204C30.214 15.465 29.7208 14.9719 29.7208 14.366V10.4076ZM21.7935 77.273C19.3899 77.273 17.4349 75.3113 17.4349 72.8996V17.3619C17.4349 14.9502 19.3899 12.9885 21.7935 12.9885H26.669V14.366C26.669 16.6549 28.5317 18.5166 30.8204 18.5166H53.1464C55.4353 18.5166 57.2978 16.6547 57.2978 14.366V12.9885H62.1704C64.5739 12.9885 66.529 14.9502 66.529 17.3619V57.1609L51.3167 65.1898C50.8054 65.4592 50.503 66.0424 50.503 66.5391V77.2728H21.7935V77.273ZM68.0593 73.2752L55.2981 66.5393L60.5763 63.7535L72.6067 70.875L68.0593 73.2752ZM53.5548 69.0699L66.5335 75.9205V94.7711L53.5548 87.9205V69.0699ZM69.5851 94.7713V75.9205L74.2058 73.4816V77.6902C74.2058 78.5328 74.8882 79.216 75.7315 79.216C76.5749 79.216 77.2573 78.5328 77.2573 77.6902V71.8711L82.5649 69.0697V87.9205L69.5851 94.7713ZM75.7741 69.2033L63.7435 62.0818L68.0593 59.8041L80.8218 66.5393L75.7741 69.2033Z" fill="white"/>
<path d="M34.3266 32.0301H55.7719C56.6152 32.0301 57.2977 31.3469 57.2977 30.5043C57.2977 29.6617 56.6152 28.9785 55.7719 28.9785H34.3266C33.4832 28.9785 32.8008 29.6617 32.8008 30.5043C32.8008 31.3469 33.4832 32.0301 34.3266 32.0301Z" fill="white"/>
<path d="M34.3266 44.2547H55.7719C56.6152 44.2547 57.2977 43.5715 57.2977 42.7289C57.2977 41.8863 56.6152 41.2031 55.7719 41.2031H34.3266C33.4832 41.2031 32.8008 41.8863 32.8008 42.7289C32.8006 43.5715 33.4832 44.2547 34.3266 44.2547Z" fill="white"/>
<path d="M34.3266 56.4812H55.7719C56.6152 56.4812 57.2977 55.798 57.2977 54.9555C57.2977 54.1129 56.6152 53.4297 55.7719 53.4297H34.3266C33.4832 53.4297 32.8008 54.1129 32.8008 54.9555C32.8008 55.798 33.4832 56.4812 34.3266 56.4812Z" fill="white"/>
<path d="M45.9521 65.8008H34.3266C33.4832 65.8008 32.8008 66.484 32.8008 67.3266C32.8008 68.1691 33.4832 68.8523 34.3266 68.8523H45.9521C46.7955 68.8523 47.4779 68.1691 47.4779 67.3266C47.4779 66.484 46.7955 65.8008 45.9521 65.8008Z" fill="white"/>
<path d="M28.6121 25.8555H22.3656C21.5223 25.8555 20.8398 26.5387 20.8398 27.3813V33.627C20.8398 34.4695 21.5223 35.1527 22.3656 35.1527H28.6121C29.4555 35.1527 30.1379 34.4695 30.1379 33.627V27.3813C30.1379 26.5387 29.4555 25.8555 28.6121 25.8555ZM27.0861 32.1012H23.8914V28.9072H27.0861V32.1012Z" fill="white"/>
<path d="M28.6121 50.3066H22.3656C21.5223 50.3066 20.8398 50.9898 20.8398 51.8324V58.0789C20.8398 58.9215 21.5223 59.6047 22.3656 59.6047H28.6121C29.4555 59.6047 30.1379 58.9215 30.1379 58.0789V51.8324C30.1379 50.9898 29.4555 50.3066 28.6121 50.3066ZM27.0861 56.5531H23.8914V53.3584H27.0861V56.5531Z" fill="white"/>
<path d="M24.5577 46.3418C24.9188 46.6191 25.3756 46.7154 25.7989 46.6264C26.234 46.5361 26.608 46.2605 26.8241 45.8717L29.9473 40.234C30.3555 39.4971 30.0889 38.5687 29.3512 38.1605C28.6166 37.7516 27.6854 38.0182 27.277 38.7559L25.0135 42.8416L23.2969 41.5191C22.6278 41.0051 21.6682 41.1295 21.1571 41.7978C20.643 42.4654 20.7666 43.4236 21.4342 43.9377L24.5577 46.3418Z" fill="white"/>
<path d="M29.3512 62.9814C28.6166 62.5708 27.6854 62.8398 27.277 63.5767L25.0135 67.6624L23.2969 66.34C22.6278 65.8259 21.6682 65.9503 21.1571 66.6187C20.643 67.2863 20.7666 68.2445 21.4342 68.7585L24.5575 71.1628C24.9186 71.4402 25.3754 71.5365 25.7987 71.4474C26.2338 71.3572 26.6079 71.0816 26.8239 70.6927L29.9471 65.055C30.3555 64.3181 30.0887 63.3898 29.3512 62.9814Z" fill="white"/>
</svg>
