<svg width="51" height="74" viewBox="0 0 51 74" fill="none" xmlns="http://www.w3.org/2000/svg">
<path d="M15.0905 3.12024C18.0918 1.63648 21.303 0.769158 24.6369 0.541743C24.8978 0.523947 25.1605 0.510254 25.4235 0.500349C26.9543 0.558146 28.478 0.753709 29.9654 1.08463C31.7153 1.47398 33.4334 2.05399 35.0715 2.80853C36.6782 3.54859 38.221 4.46245 39.6567 5.52467C41.079 6.577 42.4056 7.78179 43.599 9.1054C44.7876 10.4236 45.8517 11.8679 46.7614 13.3979C47.6828 14.9476 48.4525 16.5965 49.0489 18.2984C51.3063 24.7406 50.8474 31.6077 48.2451 37.9028C48.1452 38.1445 48.0421 38.3853 47.9359 38.6253C46.1757 42.6022 43.7966 46.3749 41.2365 50.0782C40.1582 51.638 39.0401 53.1958 37.9238 54.7511C36.4073 56.864 34.8941 58.9724 33.4882 61.0751L26.8306 71.0326L25.4549 73.0902C23.9365 70.7536 22.3657 68.4391 20.7992 66.1308C19.828 64.6998 18.8584 63.2711 17.9039 61.8411C16.4198 59.6174 14.8155 57.4112 13.2079 55.2004C12.9193 54.8034 12.6306 54.4064 12.3424 54.009C10.446 51.3941 8.57126 48.7633 6.88956 46.0565C3.52607 40.6428 0.956792 34.9587 0.54947 28.5719C-0.0963893 18.445 5.62408 7.80022 15.0905 3.12024ZM24.5361 40.0095C32.5218 40.0095 38.9967 33.5445 38.9967 25.5681C38.9967 17.5917 32.5218 11.1267 24.5361 11.1267C16.5504 11.1267 10.0755 17.5917 10.0755 25.5681C10.0755 33.5445 16.5504 40.0095 24.5361 40.0095Z" stroke="#929292"/>
</svg>
