<svg width="208" height="71" viewBox="0 0 208 71" fill="none" xmlns="http://www.w3.org/2000/svg">
<path d="M53.9962 69.4105H54.4209L54.4896 68.9915L60.653 31.4159L60.653 68.9105V69.4105H61.153H82.7138H83.2138V68.9105V2.27105V1.77105H82.7138L49.829 1.77105H49.3996L49.3347 2.19555L42.6998 45.6321L35.3744 2.18792L35.3041 1.77105H34.8813L1 1.77105H0.5V2.27105L0.5 68.9105V69.4105H1H22.5608H23.0608V68.9105V31.8384L30.4956 69.0086L30.576 69.4105H30.9859H53.9962ZM111.607 68.9105V45.9868H113.034L122.33 69.0971L122.456 69.4105H122.794H146.891H147.658L147.348 68.7085L135.667 42.2571C144.337 37.4486 145.398 29.0075 145.398 23.1526C145.398 17.1594 143.695 11.796 139.815 7.93162C135.935 4.06642 129.948 1.77105 121.525 1.77105L88.1875 1.77105H87.6875V2.27105V68.9105V69.4105H88.1875H111.107H111.607V68.9105ZM205.99 20.1961L206.537 20.1065L206.392 19.5719C204.642 13.1108 201.223 8.32702 196.388 5.16636C191.561 2.01138 185.365 0.5 178.098 0.5C168.651 0.5 160.903 2.6944 155.502 6.71592C150.086 10.7491 147.068 16.5955 147.068 23.7882C147.068 31.7167 150.276 36.5034 154.798 39.5246C159.277 42.5166 165.013 43.7554 170.033 44.707L170.034 44.7074C171.336 44.9489 172.587 45.1513 173.756 45.3403C174.24 45.4185 174.71 45.4945 175.163 45.5701C176.722 45.8296 178.086 46.0839 179.216 46.4099C180.352 46.7376 181.199 47.1237 181.757 47.6165C182.292 48.0886 182.58 48.6733 182.58 49.4816C182.58 50.4593 182.203 51.0908 181.572 51.503C180.908 51.9372 179.912 52.1592 178.641 52.1592C175.809 52.1592 173.816 51.2892 172.402 50.1279C170.979 48.9595 170.115 47.4722 169.591 46.2039L169.443 45.8459L169.06 45.8996L145.053 49.2588L144.512 49.3344L144.635 49.8664C146.2 56.649 149.598 61.83 155.033 65.3031C160.454 68.7664 167.853 70.5 177.373 70.5C185.23 70.5 192.504 68.716 197.828 64.7611C203.172 60.7904 206.5 54.6675 206.5 46.1224C206.5 42.1236 205.658 38.9488 204.214 36.4104C202.77 33.872 200.741 31.999 198.413 30.579C193.95 27.8578 188.337 26.7772 183.541 25.854C183.358 25.8187 183.175 25.7835 182.994 25.7485L182.99 25.7478C180.031 25.2003 177.441 24.6869 175.59 23.8854C174.669 23.4867 173.97 23.0326 173.504 22.501C173.048 21.9814 172.8 21.3716 172.8 20.6105C172.8 19.7814 173.144 19.2115 173.73 18.8266C174.342 18.424 175.251 18.2053 176.376 18.2053C179.38 18.2053 181.26 20.8105 182.15 23.6646L182.279 24.0794L182.708 24.0092L205.99 20.1961ZM114.369 28.7355H111.607V20.2934H115.909C118.342 20.2934 119.656 20.8276 120.37 21.5335C121.079 22.2344 121.297 23.2047 121.297 24.3329C121.297 25.3772 121.085 26.1459 120.742 26.7193C120.401 27.29 119.91 27.7027 119.292 28.0025C118.025 28.6162 116.277 28.7355 114.369 28.7355Z" stroke="#5A5AD5"/>
</svg>
