<svg width="53" height="56" viewBox="0 0 53 56" fill="none" xmlns="http://www.w3.org/2000/svg">
<g id="Vector">
<path d="M18.0469 0C17.1408 0 16.4062 0.734562 16.4062 1.64062V27.8906C16.4062 28.7967 17.1408 29.5312 18.0469 29.5312H44.2969C45.2029 29.5312 45.9375 28.7967 45.9375 27.8906V1.64062C45.9375 0.734562 45.2029 0 44.2969 0H18.0469ZM29.5312 3.28125H32.8125V9.84375H29.5312V3.28125ZM42.6562 26.25H19.6875V3.28125H26.25V11.4844C26.25 12.3904 26.9846 13.125 27.8906 13.125H34.4531C35.3592 13.125 36.0938 12.3904 36.0938 11.4844V3.28125H42.6562V26.25Z" fill="#FC7B12"/>
<path d="M1.64062 36.6406C0.734562 36.6406 0 37.3752 0 38.2812V51.4062C0 52.3123 0.734562 53.0469 1.64062 53.0469H8.20312C9.10919 53.0469 9.84375 52.3123 9.84375 51.4062V50.314C12.8244 50.9569 15.1786 52.0692 17.4673 53.151C20.5667 54.6162 23.4942 56 27.4347 56C36.0819 56 38.9409 53.2747 46.582 45.9912C47.8559 44.7768 49.3 43.4004 50.9284 41.8869C51.9272 40.9585 52.5 39.6443 52.5 38.2812C52.5 35.5673 50.292 33.3594 47.5781 33.3594C46.3964 33.3594 45.2538 33.7845 44.3606 34.5566C44.345 34.57 44.3298 34.5837 44.3147 34.5977L38.9607 39.5889C38.1986 37.8551 36.4654 36.6406 34.4531 36.6406H26.9091C24.5075 34.4341 21.8445 33.3594 18.7887 33.3594C16.0268 33.3594 14.299 34.2171 12.6282 35.0465C10.9768 35.8662 9.41708 36.6406 6.57934 36.6406H1.64062ZM6.5625 49.7656H3.28125C3.28125 48.2492 3.28125 41.1196 3.28125 39.9219H6.5625V49.7656ZM14.0873 37.9855C15.6009 37.2341 16.7966 36.6406 18.7887 36.6406C21.1769 36.6406 23.1792 37.5306 25.0899 39.4413C25.3975 39.749 25.8148 39.9219 26.25 39.9219H34.4531C35.3578 39.9219 36.0938 40.6579 36.0938 41.5625C36.0938 42.4722 35.3447 43.2031 34.4531 43.2031H24.6094C23.7033 43.2031 22.9688 43.9377 22.9688 44.8438C22.9688 45.7498 23.7033 46.4844 24.6094 46.4844H34.4531C35.8139 46.4844 37.0765 45.9262 37.992 44.9781L46.5258 37.0225C47.5802 36.1393 49.2188 36.8829 49.2188 38.2812C49.2188 38.7423 49.0326 39.1693 48.6945 39.4835C47.0509 41.0111 45.599 42.3952 44.318 43.6161C36.9824 50.6085 34.7686 52.7188 27.4347 52.7188C24.2306 52.7188 21.7463 51.5444 18.8696 50.1845C16.3513 48.9942 13.5336 47.6632 9.84375 46.9672V39.5959C11.6 39.2199 12.8956 38.5771 14.0873 37.9855Z" fill="#FC7B12"/>
</g>
</svg>
