<svg width="372" height="371" viewBox="0 0 372 371" fill="none" xmlns="http://www.w3.org/2000/svg">
<g clip-path="url(#clip0_267_110)">
<path d="M174.504 354.927C175.075 360.853 177.779 363.923 183.019 364.013C187.855 364.095 190.581 361.855 190.652 357.621C190.733 352.849 186.795 351.303 182.046 350.013C174.822 348.075 165.644 346.44 165.832 335.284C166.003 325.27 173.554 319.751 183.564 319.92C194.715 320.11 200.885 324.786 201.846 335.491L192.958 336.617C192.316 330.825 190.43 327.163 183.242 327.041C177.666 326.946 174.864 329.722 174.791 334.024C174.702 339.266 179.245 340.822 184.396 342.187C191.554 344.056 200.055 346.015 199.87 356.903C199.719 365.841 192.573 371.166 182.564 370.996C172.555 370.826 166.931 365.622 165.947 356.26L174.504 354.927Z" fill="#7575EF" fill-opacity="0.4"/>
<path d="M112.5 355.218L104.43 352.246L115.431 322.348C119.47 311.372 127.671 307.373 139.524 311.739C152.133 316.383 154.321 324.638 150.33 335.487L139.422 365.133L131.352 362.161L141.54 334.47C144.673 325.954 143.833 320.846 136.772 318.246C129.773 315.668 125.915 318.76 122.713 327.464L112.5 355.218Z" fill="#7575EF" fill-opacity="0.4"/>
<path d="M79.7963 295.02L73.7528 289.155C82.2657 280.682 90.5573 281.152 98.4297 287.764C108.052 295.846 107.988 306.587 97.3179 319.303C85.9127 332.893 73.9178 333.702 64.5529 325.836C56.2168 318.834 56.0783 309.591 63.1798 301.337L70.0953 306.269C64.4365 313.012 65.5982 317.586 69.5093 320.871C74.1402 324.761 81.1014 324.201 90.0435 313.545C98.1656 303.865 98.8343 297.319 93.5336 292.867C89.2115 289.237 84.3899 290.278 79.7963 295.02Z" fill="#7575EF" fill-opacity="0.4"/>
<path d="M49.6209 254.5L45.799 246.994C56.5938 241.732 64.2874 244.86 69.5982 253.665C76.0899 264.427 72.5552 274.569 58.3469 283.147C43.1609 292.315 31.5496 289.198 25.232 278.724C19.6086 269.401 22.4674 260.61 31.855 255.099L36.8041 262.003C29.2689 266.552 28.8889 271.256 31.5271 275.631C34.6508 280.81 41.4197 282.533 53.3261 275.344C64.1409 268.815 66.8912 262.837 63.3152 256.909C60.3992 252.075 55.5013 251.499 49.6209 254.5Z" fill="#7575EF" fill-opacity="0.4"/>
<path d="M29.2764 208.354L33.1382 224.917L47.4695 221.573L42.7985 201.539L49.735 199.921L56.3898 228.465L8.3576 239.674L2.00806 212.438L8.87884 210.835L13.2447 229.559L26.3979 226.49L22.536 209.926L29.2764 208.354Z" fill="#7575EF" fill-opacity="0.4"/>
<path d="M16.5452 163.517C10.601 163.763 7.38809 166.296 7.01353 171.525C6.66641 176.351 8.75213 179.196 12.974 179.5C17.7307 179.842 19.4894 175.993 21.0367 171.32C23.3658 164.209 25.4991 155.132 36.6219 155.93C46.6056 156.648 51.7005 164.494 50.9833 174.482C50.1842 185.61 45.1804 191.517 34.445 191.892L33.8071 182.951C39.6218 182.628 43.3798 180.943 43.8947 173.77C44.2948 168.206 41.6776 165.256 37.3893 164.948C32.1633 164.572 30.3618 169.025 28.7178 174.094C26.4606 181.143 24.0404 189.526 13.1854 188.746C4.27332 188.106 -0.648355 180.677 0.0688446 170.688C0.786044 160.7 6.28719 155.368 15.6823 154.897L16.5452 163.517Z" fill="#7575EF" fill-opacity="0.4"/>
<path d="M31.046 112.62C25.3114 111.03 21.477 112.454 19.515 117.316C17.7043 121.804 18.817 125.153 22.7426 126.737C27.1668 128.523 30.0208 125.399 32.9277 121.427C37.3253 115.373 42.1414 107.387 52.4841 111.562C61.768 115.311 64.2101 124.343 60.464 133.631C56.2896 143.979 49.7148 148.066 39.3803 145.126L41.5152 136.419C47.1504 137.897 51.2448 137.448 53.9348 130.778C56.0216 125.604 54.436 121.992 50.4482 120.382C45.5885 118.419 42.5075 122.105 39.3874 126.426C35.0771 132.442 30.2009 139.68 20.1079 135.604C11.821 132.258 9.41427 123.676 13.1604 114.387C16.9074 105.099 23.7801 101.712 32.8682 104.15L31.046 112.62Z" fill="#7575EF" fill-opacity="0.4"/>
<path d="M79.5694 62.7282C76.5468 58.302 75.5297 53.4518 76.5194 48.1777C77.5091 42.9036 80.2136 38.7545 84.634 35.7333C89.0544 32.7121 93.9052 31.6955 99.185 32.6837C104.465 33.672 108.616 36.3788 111.639 40.805C114.663 45.2312 115.674 50.0849 114.675 55.3646C113.677 60.646 110.968 64.797 106.547 67.8182C102.126 70.8405 97.2805 71.8541 92.0096 70.8595C86.7388 69.8649 82.5929 67.1544 79.5694 62.7282Z" fill="#7575EF" fill-opacity="0.4"/>
<path d="M222.126 17.4C222.412 11.4523 220.178 8.02426 215.005 7.18181C210.23 6.40415 207.21 8.22834 206.53 12.4085C205.764 17.12 209.44 19.2169 213.954 21.178C220.826 24.1355 229.675 27.0747 227.883 38.0887C226.274 47.9759 218.007 52.3511 208.124 50.742C197.115 48.9496 191.68 43.433 192.269 32.6998L201.228 32.8639C201.03 38.6895 202.371 42.5851 209.467 43.7412C214.972 44.6375 218.144 42.2925 218.835 38.046C219.677 32.8703 215.405 30.6768 210.503 28.5845C203.687 25.7035 195.555 22.541 197.303 11.7921C198.739 2.96696 206.577 -1.27402 216.459 0.335064C226.341 1.94415 231.158 7.90476 230.786 17.3115L222.126 17.4Z" fill="#7575EF" fill-opacity="0.4"/>
<path d="M260.302 21.9623L248.166 16.0355L251.263 9.69287L283.499 25.4395L280.405 31.7812L268.21 25.8252L249.671 63.816L241.762 59.9533L260.302 21.9623Z" fill="#7575EF" fill-opacity="0.4"/>
<path d="M281.717 53.6094C292.925 41.7356 305.247 40.5285 314.722 49.483C324.294 58.5287 322.513 69.4196 311.764 80.8048C300.277 92.9712 288.841 95.1985 278.877 85.7835C269.012 76.4606 270.597 65.3846 281.717 53.6094ZM304.99 74.8644C313.2 66.1669 315.008 59.5545 309.588 54.4317C304.166 49.3081 296.843 50.8005 288.493 59.6447C280.144 68.488 278.157 75.4861 283.92 80.9325C289.535 86.2404 296.317 84.0504 304.99 74.8644Z" fill="#7575EF" fill-opacity="0.4"/>
<path d="M325.209 112.242L325.116 112.064L322.311 106.627L304.099 116.029L300.093 108.262L343.924 85.6357L351.781 100.87C357.327 111.624 353.952 117.981 347.085 121.526C342.248 124.023 336.135 125.514 330.197 119.425L315.838 138.791L311.524 130.427L325.209 112.242ZM330.689 108.354C333.8 114.389 336.895 116.724 342.508 113.827C346.868 111.577 347.726 108.108 344.83 102.492L341.779 96.578L328.223 103.575L330.689 108.354Z" fill="#7575EF" fill-opacity="0.4"/>
<path d="M325.962 159.193L327.028 164.259L321.307 165.463L317.431 147.043L323.151 145.839L324.19 150.773L361.012 143.019L359.973 138.085L365.694 136.881L369.569 155.299L363.848 156.505L362.784 151.439L325.962 159.193Z" fill="#7575EF" fill-opacity="0.4"/>
<path d="M343.425 203.891L344.167 186.902L329.468 186.259L328.57 206.808L321.457 206.497L322.734 177.219L372 179.372L370.781 207.307L363.733 206.999L364.572 187.795L351.08 187.205L350.338 204.194L343.425 203.891Z" fill="#7575EF" fill-opacity="0.4"/>
<path d="M343.582 250.543C349.37 251.921 353.15 250.358 354.932 245.426C356.576 240.874 355.341 237.569 351.36 236.129C346.873 234.507 344.136 237.735 341.376 241.812C337.205 248.022 332.685 256.181 322.196 252.388C312.781 248.983 310.008 240.047 313.41 230.627C317.203 220.133 323.623 215.807 334.059 218.365L332.244 227.144C326.559 225.874 322.484 226.474 320.04 233.238C318.145 238.486 319.862 242.038 323.906 243.5C328.836 245.283 331.779 241.486 334.737 237.052C338.825 230.882 343.43 223.47 353.667 227.171C362.073 230.21 364.792 238.699 361.389 248.119C357.987 257.538 351.244 261.176 342.071 259.074L343.582 250.543Z" fill="#7575EF" fill-opacity="0.4"/>
<path d="M296.936 302.161C300.12 306.474 301.314 311.283 300.519 316.591C299.723 321.897 297.173 326.142 292.867 329.324C288.56 332.506 283.75 333.7 278.438 332.906C273.125 332.113 268.877 329.559 265.693 325.248C262.509 320.936 261.321 316.122 262.125 310.809C262.929 305.495 265.486 301.248 269.79 298.065C274.097 294.883 278.903 293.692 284.206 294.492C289.51 295.293 293.754 297.849 296.936 302.161Z" fill="#7575EF" fill-opacity="0.4"/>
</g>
<defs>
<clipPath id="clip0_267_110">
<rect width="372" height="371" fill="white"/>
</clipPath>
</defs>
</svg>
