<svg width="57" height="74" viewBox="0 0 57 74" fill="none" xmlns="http://www.w3.org/2000/svg">
<path id="Vector" d="M55.5609 44.5923C55.5567 44.5881 55.5538 44.5839 55.5496 44.5811C55.1967 44.2281 54.7467 44.0411 54.2489 44.0411H2.24854C1.75073 44.0411 1.28526 44.2366 0.939323 44.5938C0.596198 44.9467 0.413386 45.415 0.423229 45.91V45.917C0.615886 53.1944 3.59714 60.0048 8.81432 65.0941C14.0428 70.1917 20.9446 73 28.2501 73C35.5542 73 42.456 70.1917 47.6845 65.0927C52.9031 60.002 55.8843 53.1916 56.0784 45.9086C56.0882 45.4122 55.904 44.9453 55.5609 44.5923ZM27.1265 53.9959C24.1804 54.0494 21.3074 54.3081 18.6046 54.7511C18.1518 52.0806 17.8903 49.2288 17.8368 46.2869H27.1265V53.9959ZM27.1265 56.2445V70.5855C24.9356 69.9484 22.7939 67.4847 21.1162 63.6063C20.2612 61.6291 19.5623 59.3861 19.0307 56.9547C21.5915 56.5398 24.3196 56.2966 27.1265 56.2445ZM29.3737 70.5855V56.2445C32.1792 56.2966 34.9087 56.5384 37.4695 56.9547C36.9379 59.3861 36.239 61.6291 35.384 63.6063C33.7078 67.4847 31.5646 69.9484 29.3737 70.5855ZM29.3737 53.9959V46.2869H38.6634C38.6099 49.2288 38.3484 52.0806 37.8956 54.7511C35.1928 54.3081 32.3198 54.0494 29.3737 53.9959ZM15.5882 46.2883C15.6417 49.3666 15.9173 52.3577 16.3954 55.1631C12.5493 55.9675 9.13354 57.1614 6.45885 58.6717C4.23417 55.0633 2.87995 50.8417 2.68448 46.2869H15.5882V46.2883ZM7.72729 60.5378C10.177 59.1794 13.2974 58.1008 16.8215 57.3639C17.3854 59.9669 18.1349 62.3744 19.0532 64.4992C20.0629 66.835 21.2371 68.7222 22.5253 70.1214C16.4924 68.7658 11.2921 65.312 7.72729 60.5378ZM33.9749 70.12C35.2645 68.7208 36.4373 66.8336 37.447 64.4978C38.3653 62.373 39.1148 59.9669 39.6787 57.3639C43.2013 58.1022 46.3232 59.1808 48.7715 60.5392C45.2067 65.312 40.0064 68.7658 33.9749 70.12ZM50.0399 58.6731C47.3653 57.1614 43.9495 55.9675 40.1048 55.1631C40.5829 52.3563 40.8585 49.3666 40.912 46.2869H53.8157C53.6203 50.8431 52.266 55.0647 50.0399 58.6731ZM25.7864 19.0984C25.7864 19.72 25.2829 20.222 24.6628 20.222H20.8673C20.2471 20.222 19.7437 19.7186 19.7437 19.0984C19.7437 18.4783 20.2471 17.9748 20.8673 17.9748H24.6628C25.2829 17.9734 25.7864 18.4769 25.7864 19.0984ZM11.759 32.5816C12.2498 33.123 12.8896 33.4084 13.6082 33.4084H22.6814L19.101 39.4708C18.7242 40.1233 18.7214 40.8981 19.0912 41.5366C19.4624 42.1933 20.1346 42.5856 20.887 42.5856H24.4673C25.0607 42.5856 25.6092 42.3409 26.0184 41.8867L33.5123 33.4084H50.8964C52.2337 33.4084 53.3953 32.6448 53.9282 31.4186C54.4626 30.1952 54.2263 28.8255 53.3137 27.8467C50.8148 25.1692 48.6098 23.6195 44.7342 23.6195H40.6603C40.6743 23.5112 40.6842 23.4016 40.6842 23.2891V3.57906C40.6828 2.15734 39.5268 1 38.1037 1H18.3965C16.9748 1 15.8174 2.15734 15.8174 3.57906V23.2862C15.8174 23.3987 15.8273 23.5084 15.8414 23.6167H13.6771C13.5857 23.6167 13.5379 23.5942 13.4831 23.5211C13.4592 23.4888 13.4324 23.4578 13.4043 23.4297L9.88448 19.713C9.40354 19.1139 8.71729 18.7863 7.94385 18.7863H4.7826C3.78557 18.7863 2.9151 19.3502 2.51151 20.2586C2.1037 21.1769 2.26542 22.2048 2.9362 22.9417L11.759 32.5816ZM30.0515 3.24859V8.30266L28.9096 7.47438C28.5159 7.18891 27.9829 7.18891 27.5892 7.47438L26.4431 8.30547V3.24859H30.0515ZM18.0646 23.2877V3.57906C18.0646 3.39906 18.2165 3.24859 18.3951 3.24859H24.1945V10.5077C24.1945 10.9295 24.4321 11.3177 24.8076 11.5089C25.1845 11.7016 25.6359 11.665 25.979 11.4175L28.2501 9.77219L30.5156 11.4175C30.711 11.5595 30.9431 11.6327 31.1765 11.6327C31.3509 11.6327 31.5253 11.5919 31.687 11.5103C32.0639 11.3191 32.3001 10.9309 32.3001 10.5091V3.24859H38.1037C38.2837 3.24859 38.4342 3.40047 38.4342 3.57906V23.2862C38.4342 23.4662 38.2823 23.6167 38.1037 23.6167H18.3965C18.2165 23.6181 18.0646 23.4663 18.0646 23.2877ZM4.56604 21.1727C4.60823 21.077 4.67573 21.0348 4.7826 21.0348H7.94385C8.03385 21.0348 8.08448 21.0602 8.13792 21.1305C8.16182 21.1628 8.18854 21.1938 8.21667 21.2219L11.7365 24.9386C12.2174 25.5377 12.9037 25.8653 13.6771 25.8653H44.7342C47.8251 25.8653 49.4943 27.048 51.6698 29.3781C51.9707 29.7016 52.0438 30.1164 51.8667 30.52C51.6909 30.9264 51.3365 31.1584 50.8964 31.1584H33.006C32.684 31.1584 32.3774 31.2963 32.1637 31.5381L24.3885 40.3342H21.202L25.619 32.853C25.8243 32.5056 25.8271 32.0753 25.6274 31.7237C25.4278 31.3736 25.0551 31.157 24.6515 31.157H13.6096C13.5393 31.157 13.4943 31.143 13.4226 31.0642L4.59698 21.4258C4.57167 21.3977 4.50135 21.3203 4.56604 21.1727Z" fill="#FC7B12" stroke="#FC7B12" stroke-width="0.5"/>
</svg>
