<svg width="22" height="22" viewBox="0 0 22 22" fill="none" xmlns="http://www.w3.org/2000/svg">
<path d="M1.57687 1.57782C1.64072 1.5139 1.71655 1.46319 1.80001 1.42859C1.88347 1.39399 1.97293 1.37618 2.06328 1.37618C2.15363 1.37618 2.24309 1.39399 2.32655 1.42859C2.41001 1.46319 2.48584 1.5139 2.54969 1.57782L10.9991 10.0272L19.4519 1.57782C19.5809 1.44881 19.7558 1.37634 19.9383 1.37634C20.1207 1.37634 20.2957 1.44881 20.4247 1.57782C20.5537 1.70682 20.6262 1.88179 20.6262 2.06422C20.6262 2.24666 20.5537 2.42163 20.4247 2.55063L11.9719 11L20.4212 19.4528C20.5502 19.5818 20.6227 19.7568 20.6227 19.9392C20.6227 20.1217 20.5502 20.2966 20.4212 20.4256C20.2922 20.5546 20.1173 20.6271 19.9348 20.6271C19.7524 20.6271 19.5774 20.5546 19.4484 20.4256L10.9991 11.9728L2.54625 20.4222C2.41473 20.5348 2.24555 20.5937 2.07252 20.587C1.8995 20.5803 1.73536 20.5086 1.61292 20.3861C1.49048 20.2637 1.41875 20.0996 1.41207 19.9265C1.40539 19.7535 1.46424 19.5843 1.57687 19.4528L10.0262 11L1.57687 2.54719C1.44883 2.41838 1.37695 2.24413 1.37695 2.06251C1.37695 1.88088 1.44883 1.70663 1.57687 1.57782Z" fill="#313D47"/>
</svg>
