<svg width="59" height="44" viewBox="0 0 59 44" fill="none" xmlns="http://www.w3.org/2000/svg">
<path id="Vector" d="M55.6068 0H3.39319C1.52213 0 0 1.52213 0 3.39308V40.2496C0 42.0257 1.3721 43.4866 3.11179 43.6302C3.1285 43.6315 3.14521 43.6328 3.16203 43.634C3.23855 43.6391 3.31541 43.6427 3.39319 43.6427H55.6068C55.6846 43.6427 55.7615 43.6391 55.838 43.634C55.8549 43.6328 55.8717 43.6315 55.8886 43.63C57.6281 43.4863 59 42.0256 59 40.2496V3.39308C59 1.52213 57.4779 0 55.6068 0ZM52.5935 2.76562L29.5 25.8592L6.40646 2.76562H52.5935ZM2.8373 40.5351C2.7919 40.4489 2.76562 40.3517 2.76562 40.2496V3.39308C2.76562 3.29098 2.7919 3.19384 2.83742 3.10764L21.551 21.8214L2.8373 40.5351ZM6.40646 40.8771L23.5067 23.7769L28.5222 28.7925C28.7816 29.0517 29.1333 29.1975 29.5 29.1975C29.8667 29.1975 30.2184 29.0519 30.4778 28.7925L35.4932 23.7769L52.5934 40.877L6.40646 40.8771ZM56.2344 40.2496C56.2344 40.3517 56.2081 40.4489 56.1626 40.5351L37.449 21.8214L56.1627 3.10764C56.2082 3.19384 56.2345 3.29098 56.2345 3.39308L56.2344 40.2496Z" fill="url(#paint0_linear_0_2526)"/>
<defs>
<linearGradient id="paint0_linear_0_2526" x1="-49" y1="43.6427" x2="29.5" y2="43.6427" gradientUnits="userSpaceOnUse">
<stop offset="0.0542986" stop-color="#3B84B6"/>
<stop offset="1" stop-color="#E49449"/>
</linearGradient>
</defs>
</svg>
