<svg width="160" height="612" viewBox="0 0 160 612" fill="none" xmlns="http://www.w3.org/2000/svg">
<g opacity="0.6" filter="url(#filter0_d_2023_1252)">
<mask id="path-1-inside-1_2023_1252" fill="white">
<path d="M102.955 560.059C102.955 553.936 99.501 550.639 90.552 549.697L93.221 511.075C118.655 513.43 133.884 531.014 133.884 561.629C133.884 596.012 115.515 615.794 77.05 615.794C33.09 615.794 14.721 593.5 14.721 559.117C14.721 525.833 31.991 509.505 58.838 509.191L61.664 549.383C47.534 549.069 45.022 554.407 45.022 559.431C45.022 567.124 49.104 573.718 76.265 573.718C98.716 573.718 102.955 567.124 102.955 560.059ZM101.385 502.756L50.988 502.756L50.988 463.349L99.03 463.349C102.327 463.349 106.723 462.564 106.723 457.54C106.723 450.475 101.856 448.591 92.593 448.591L50.988 448.591L50.988 409.184L132 409.184L132 445.137L120.539 446.236L120.539 446.707C127.761 451.26 133.884 459.11 133.884 474.182C133.884 490.51 125.877 502.756 101.385 502.756ZM16.762 360.314L132 360.314L132 399.721L16.762 399.721L16.762 360.314ZM75.166 354.595L50.988 354.595L50.988 345.489L35.445 345.489L25.083 305.925L50.988 305.925L50.988 290.225L75.166 290.225L75.166 305.925L95.105 305.925C104.368 305.925 106.88 302.942 106.88 296.034C106.88 295.092 106.566 292.423 105.624 288.812L129.959 285.672C132.314 290.853 133.884 298.389 133.884 307.495C133.884 327.591 127.918 345.489 100.443 345.489L75.166 345.489L75.166 354.595ZM101.385 281.515L50.988 281.515L50.988 242.108L99.03 242.108C102.327 242.108 106.723 241.323 106.723 236.299C106.723 229.234 101.856 227.35 92.593 227.35L50.988 227.35L50.988 187.943L132 187.943L132 223.896L120.539 224.995L120.539 225.466C127.761 230.019 133.884 237.869 133.884 252.941C133.884 269.269 125.877 281.515 101.385 281.515ZM90.081 93.0719L91.965 131.694C82.545 130.438 77.521 130.909 77.521 134.363C77.521 138.916 83.016 139.073 90.395 139.073L132 139.073L132 178.637L50.988 178.637L50.988 142.684L62.606 141.585L62.606 141.114C57.896 138.916 49.104 133.421 49.104 116.936C49.104 97.9389 61.507 88.8329 90.081 93.0719ZM102.484 30.0045L105.467 -2.65149C128.389 2.6865 133.884 22.4685 133.884 40.5235C133.884 71.1385 117.713 87.9375 92.593 87.9375C63.862 87.9375 49.104 68.3125 49.104 38.9535C49.104 6.14051 67.159 -7.20449 97.303 -3.75049L97.303 47.7455C104.525 47.5885 107.979 43.8205 107.979 38.1685C107.979 34.4005 106.723 31.1035 102.484 30.0045ZM80.504 47.5885L80.504 33.1445C73.282 32.2025 71.398 36.1275 71.398 39.5815C71.398 44.7625 75.166 46.9605 80.504 47.5885Z"/>
</mask>
<path d="M90.552 549.697L89.5544 549.628L89.4879 550.59L90.4473 550.691L90.552 549.697ZM93.221 511.075L93.3132 510.079L92.2939 509.984L92.2234 511.006L93.221 511.075ZM58.838 509.191L59.8355 509.12L59.7694 508.18L58.8263 508.191L58.838 509.191ZM61.664 549.383L61.6418 550.382L62.7385 550.407L62.6615 549.312L61.664 549.383ZM103.955 560.059C103.955 556.795 103.024 554.125 100.762 552.177C98.5513 550.273 95.2073 549.181 90.6567 548.702L90.4473 550.691C94.8457 551.154 97.7031 552.182 99.4567 553.692C101.159 555.159 101.955 557.2 101.955 560.059L103.955 560.059ZM91.5496 549.766L94.2186 511.144L92.2234 511.006L89.5544 549.628L91.5496 549.766ZM93.1288 512.07C105.627 513.228 115.528 518.112 122.317 526.388C129.117 534.678 132.884 546.48 132.884 561.629L134.884 561.629C134.884 546.162 131.037 533.865 123.863 525.12C116.68 516.362 106.249 511.277 93.3132 510.079L93.1288 512.07ZM132.884 561.629C132.884 578.649 128.34 591.895 119.19 600.892C110.038 609.891 96.121 614.794 77.05 614.794L77.05 616.794C96.444 616.794 110.944 611.805 120.592 602.318C130.244 592.828 134.884 578.991 134.884 561.629L132.884 561.629ZM77.05 614.794C55.2282 614.794 39.9376 609.261 30.0999 599.634C20.2654 590.01 15.721 576.138 15.721 559.117L13.721 559.117C13.721 576.479 18.3611 590.945 28.7011 601.063C39.0379 611.179 54.9118 616.794 77.05 616.794L77.05 614.794ZM15.721 559.117C15.721 542.639 19.9945 530.511 27.4454 522.469C34.8883 514.436 45.6283 510.345 58.8497 510.191L58.8263 508.191C45.2006 508.35 33.8821 512.58 25.9783 521.11C18.0824 529.632 13.721 542.31 13.721 559.117L15.721 559.117ZM57.8404 509.261L60.6664 549.453L62.6615 549.312L59.8355 509.12L57.8404 509.261ZM61.6862 548.383C54.5311 548.224 50.0838 549.484 47.418 551.625C44.699 553.809 44.022 556.751 44.022 559.431L46.022 559.431C46.022 557.086 46.601 554.847 48.6705 553.184C50.7931 551.479 54.6668 550.227 61.6418 550.382L61.6862 548.383ZM44.022 559.431C44.022 561.436 44.2869 563.454 45.1808 565.337C46.0819 567.235 47.5878 568.924 49.9492 570.32C54.6107 573.075 62.6557 574.718 76.265 574.718L76.265 572.718C62.7133 572.718 55.1368 571.063 50.967 568.598C48.9128 567.384 47.7006 565.981 46.9876 564.48C46.2673 562.962 46.022 561.271 46.022 559.431L44.022 559.431ZM76.265 574.718C87.5453 574.718 94.461 573.069 98.5769 570.374C102.798 567.61 103.955 563.831 103.955 560.059L101.955 560.059C101.955 563.351 100.992 566.402 97.4813 568.701C93.8649 571.069 87.4357 572.718 76.265 572.718L76.265 574.718ZM50.988 502.756L49.988 502.756L49.988 503.756L50.988 503.756L50.988 502.756ZM50.988 463.349L50.988 462.349L49.988 462.349L49.988 463.349L50.988 463.349ZM50.988 448.591L49.988 448.591L49.988 449.591L50.988 449.591L50.988 448.591ZM50.988 409.184L50.988 408.184L49.988 408.184L49.988 409.184L50.988 409.184ZM132 409.184L133 409.184L133 408.184L132 408.184L132 409.184ZM132 445.137L132.095 446.132L133 446.046L133 445.137L132 445.137ZM120.539 446.236L120.444 445.241L119.539 445.327L119.539 446.236L120.539 446.236ZM120.539 446.707L119.539 446.707L119.539 447.259L120.006 447.553L120.539 446.707ZM101.385 501.756L50.988 501.756L50.988 503.756L101.385 503.756L101.385 501.756ZM51.988 502.756L51.988 463.349L49.988 463.349L49.988 502.756L51.988 502.756ZM50.988 464.349L99.03 464.349L99.03 462.349L50.988 462.349L50.988 464.349ZM99.03 464.349C100.723 464.349 102.854 464.154 104.592 463.206C105.478 462.723 106.274 462.037 106.844 461.078C107.414 460.119 107.723 458.946 107.723 457.54L105.723 457.54C105.723 458.647 105.482 459.455 105.125 460.056C104.768 460.658 104.259 461.11 103.634 461.451C102.349 462.151 100.634 462.349 99.03 462.349L99.03 464.349ZM107.723 457.54C107.723 455.662 107.4 454.053 106.707 452.704C106.009 451.345 104.966 450.311 103.627 449.547C101.006 448.053 97.2395 447.591 92.593 447.591L92.593 449.591C97.2095 449.591 100.508 450.071 102.636 451.285C103.672 451.875 104.424 452.637 104.928 453.618C105.438 454.61 105.723 455.885 105.723 457.54L107.723 457.54ZM92.593 447.591L50.988 447.591L50.988 449.591L92.593 449.591L92.593 447.591ZM51.988 448.591L51.988 409.184L49.988 409.184L49.988 448.591L51.988 448.591ZM50.988 410.184L132 410.184L132 408.184L50.988 408.184L50.988 410.184ZM131 409.184L131 445.137L133 445.137L133 409.184L131 409.184ZM131.905 444.142L120.444 445.241L120.634 447.231L132.095 446.132L131.905 444.142ZM119.539 446.236L119.539 446.707L121.539 446.707L121.539 446.236L119.539 446.236ZM120.006 447.553C123.501 449.757 126.706 452.741 129.044 456.983C131.382 461.226 132.884 466.784 132.884 474.182L134.884 474.182C134.884 466.508 133.324 460.605 130.796 456.017C128.266 451.428 124.799 448.211 121.072 445.861L120.006 447.553ZM132.884 474.182C132.884 482.196 130.919 489.04 126.109 493.888C121.3 498.734 113.477 501.756 101.385 501.756L101.385 503.756C113.785 503.756 122.211 500.655 127.529 495.296C132.845 489.939 134.884 482.496 134.884 474.182L132.884 474.182ZM16.762 360.314L16.762 359.314L15.762 359.314L15.762 360.314L16.762 360.314ZM132 360.314L133 360.314L133 359.314L132 359.314L132 360.314ZM132 399.721L132 400.721L133 400.721L133 399.721L132 399.721ZM16.762 399.721L15.762 399.721L15.762 400.721L16.762 400.721L16.762 399.721ZM16.762 361.314L132 361.314L132 359.314L16.762 359.314L16.762 361.314ZM131 360.314L131 399.721L133 399.721L133 360.314L131 360.314ZM132 398.721L16.762 398.721L16.762 400.721L132 400.721L132 398.721ZM17.762 399.721L17.762 360.314L15.762 360.314L15.762 399.721L17.762 399.721ZM75.166 354.595L75.166 355.595L76.166 355.595L76.166 354.595L75.166 354.595ZM50.988 354.595L49.988 354.595L49.988 355.595L50.988 355.595L50.988 354.595ZM50.988 345.489L51.988 345.489L51.988 344.489L50.988 344.489L50.988 345.489ZM35.445 345.489L34.4776 345.742L34.6732 346.489L35.445 346.489L35.445 345.489ZM25.083 305.925L25.083 304.925L23.7873 304.925L24.1156 306.178L25.083 305.925ZM50.988 305.925L50.988 306.925L51.988 306.925L51.988 305.925L50.988 305.925ZM50.988 290.225L50.988 289.225L49.988 289.225L49.988 290.225L50.988 290.225ZM75.166 290.225L76.166 290.225L76.166 289.225L75.166 289.225L75.166 290.225ZM75.166 305.925L74.166 305.925L74.166 306.925L75.166 306.925L75.166 305.925ZM105.624 288.812L105.496 287.82L104.37 287.965L104.656 289.064L105.624 288.812ZM129.959 285.672L130.869 285.258L130.564 284.585L129.831 284.68L129.959 285.672ZM75.166 345.489L75.166 344.489L74.166 344.489L74.166 345.489L75.166 345.489ZM75.166 353.595L50.988 353.595L50.988 355.595L75.166 355.595L75.166 353.595ZM51.988 354.595L51.988 345.489L49.988 345.489L49.988 354.595L51.988 354.595ZM50.988 344.489L35.445 344.489L35.445 346.489L50.988 346.489L50.988 344.489ZM36.4123 345.235L26.0503 305.671L24.1156 306.178L34.4776 345.742L36.4123 345.235ZM25.083 306.925L50.988 306.925L50.988 304.925L25.083 304.925L25.083 306.925ZM51.988 305.925L51.988 290.225L49.988 290.225L49.988 305.925L51.988 305.925ZM50.988 291.225L75.166 291.225L75.166 289.225L50.988 289.225L50.988 291.225ZM74.166 290.225L74.166 305.925L76.166 305.925L76.166 290.225L74.166 290.225ZM75.166 306.925L95.105 306.925L95.105 304.925L75.166 304.925L75.166 306.925ZM95.105 306.925C99.7863 306.925 103.059 306.184 105.136 304.313C107.247 302.41 107.88 299.566 107.88 296.034L105.88 296.034C105.88 299.409 105.257 301.511 103.797 302.827C102.302 304.174 99.6867 304.925 95.105 304.925L95.105 306.925ZM107.88 296.034C107.88 294.971 107.544 292.209 106.592 288.559L104.656 289.064C105.588 292.636 105.88 295.212 105.88 296.034L107.88 296.034ZM105.752 289.803L130.087 286.663L129.831 284.68L105.496 287.82L105.752 289.803ZM129.049 286.085C131.33 291.104 132.884 298.49 132.884 307.495L134.884 307.495C134.884 298.287 133.298 290.602 130.869 285.258L129.049 286.085ZM132.884 307.495C132.884 317.482 131.394 326.723 126.649 333.451C121.956 340.108 113.943 344.489 100.443 344.489L100.443 346.489C114.418 346.489 123.125 341.92 128.284 334.604C133.391 327.36 134.884 317.604 134.884 307.495L132.884 307.495ZM100.443 344.489L75.166 344.489L75.166 346.489L100.443 346.489L100.443 344.489ZM74.166 345.489L74.166 354.595L76.166 354.595L76.166 345.489L74.166 345.489ZM50.988 281.515L49.988 281.515L49.988 282.515L50.988 282.515L50.988 281.515ZM50.988 242.108L50.988 241.108L49.988 241.108L49.988 242.108L50.988 242.108ZM50.988 227.35L49.988 227.35L49.988 228.35L50.988 228.35L50.988 227.35ZM50.988 187.943L50.988 186.943L49.988 186.943L49.988 187.943L50.988 187.943ZM132 187.943L133 187.943L133 186.943L132 186.943L132 187.943ZM132 223.896L132.095 224.891L133 224.804L133 223.896L132 223.896ZM120.539 224.995L120.444 223.999L119.539 224.086L119.539 224.995L120.539 224.995ZM120.539 225.466L119.539 225.466L119.539 226.018L120.006 226.312L120.539 225.466ZM101.385 280.515L50.988 280.515L50.988 282.515L101.385 282.515L101.385 280.515ZM51.988 281.515L51.988 242.108L49.988 242.108L49.988 281.515L51.988 281.515ZM50.988 243.108L99.03 243.108L99.03 241.108L50.988 241.108L50.988 243.108ZM99.03 243.108C100.723 243.108 102.854 242.913 104.592 241.965C105.478 241.482 106.274 240.796 106.844 239.837C107.414 238.878 107.723 237.704 107.723 236.299L105.723 236.299C105.723 237.405 105.482 238.214 105.125 238.815C104.768 239.416 104.259 239.869 103.634 240.209C102.349 240.91 100.634 241.108 99.03 241.108L99.03 243.108ZM107.723 236.299C107.723 234.421 107.4 232.812 106.707 231.463C106.009 230.104 104.966 229.07 103.627 228.306C101.006 226.812 97.2394 226.35 92.593 226.35L92.593 228.35C97.2095 228.35 100.508 228.83 102.636 230.044C103.672 230.634 104.424 231.396 104.928 232.377C105.438 233.369 105.723 234.644 105.723 236.299L107.723 236.299ZM92.593 226.35L50.988 226.35L50.988 228.35L92.593 228.35L92.593 226.35ZM51.988 227.35L51.988 187.943L49.988 187.943L49.988 227.35L51.988 227.35ZM50.988 188.943L132 188.943L132 186.943L50.988 186.943L50.988 188.943ZM131 187.943L131 223.896L133 223.896L133 187.943L131 187.943ZM131.905 222.9L120.444 223.999L120.634 225.99L132.095 224.891L131.905 222.9ZM119.539 224.995L119.539 225.466L121.539 225.466L121.539 224.995L119.539 224.995ZM120.006 226.312C123.501 228.515 126.706 231.5 129.044 235.741C131.382 239.985 132.884 245.543 132.884 252.941L134.884 252.941C134.884 245.267 133.324 239.364 130.796 234.776C128.266 230.186 124.799 226.969 121.072 224.62L120.006 226.312ZM132.884 252.941C132.884 260.955 130.919 267.799 126.109 272.646C121.3 277.493 113.477 280.515 101.385 280.515L101.385 282.515C113.785 282.515 122.211 279.414 127.529 274.055C132.845 268.697 134.884 261.254 134.884 252.941L132.884 252.941ZM90.081 93.0719L91.0798 93.0232L91.0398 92.2032L90.2277 92.0827L90.081 93.0719ZM91.965 131.694L91.8328 132.685L93.0222 132.844L92.9638 131.645L91.965 131.694ZM132 139.073L133 139.073L133 138.073L132 138.073L132 139.073ZM132 178.637L132 179.637L133 179.637L133 178.637L132 178.637ZM50.988 178.637L49.988 178.637L49.988 179.637L50.988 179.637L50.988 178.637ZM50.988 142.684L50.8938 141.688L49.988 141.774L49.988 142.684L50.988 142.684ZM62.606 141.585L62.7001 142.58L63.606 142.495L63.606 141.585L62.606 141.585ZM62.606 141.114L63.606 141.114L63.606 140.477L63.0288 140.208L62.606 141.114ZM89.0821 93.1206L90.9662 131.743L92.9638 131.645L91.0798 93.0232L89.0821 93.1206ZM92.0971 130.703C87.3818 130.074 83.6426 129.857 81.0512 130.275C79.7548 130.484 78.6311 130.869 77.8166 131.541C76.9549 132.252 76.521 133.219 76.521 134.363L78.521 134.363C78.521 133.78 78.715 133.393 79.0897 133.083C79.5115 132.735 80.2326 132.433 81.3697 132.249C83.6454 131.882 87.1281 132.058 91.8328 132.685L92.0971 130.703ZM76.521 134.363C76.521 135.723 76.9404 136.847 77.7744 137.713C78.5817 138.552 79.6956 139.064 80.9347 139.392C83.3833 140.041 86.7472 140.073 90.395 140.073L90.395 138.073C86.6637 138.073 83.5906 138.027 81.447 137.459C80.39 137.179 79.6689 136.797 79.2153 136.326C78.7884 135.883 78.521 135.28 78.521 134.363L76.521 134.363ZM90.395 140.073L132 140.073L132 138.073L90.395 138.073L90.395 140.073ZM131 139.073L131 178.637L133 178.637L133 139.073L131 139.073ZM132 177.637L50.988 177.637L50.988 179.637L132 179.637L132 177.637ZM51.988 178.637L51.988 142.684L49.988 142.684L49.988 178.637L51.988 178.637ZM51.0821 143.679L62.7001 142.58L62.5118 140.589L50.8938 141.688L51.0821 143.679ZM63.606 141.585L63.606 141.114L61.606 141.114L61.606 141.585L63.606 141.585ZM63.0288 140.208C60.7504 139.144 57.5376 137.308 54.8882 133.782C52.247 130.266 50.104 124.989 50.104 116.936L48.104 116.936C48.104 125.368 50.3569 131.08 53.2892 134.983C56.2133 138.875 59.7515 140.885 62.1831 142.02L63.0288 140.208ZM50.104 116.936C50.104 107.665 53.114 101.025 59.4027 97.1412C65.7736 93.2062 75.7276 91.9535 89.9342 94.0611L90.2277 92.0827C75.8603 89.9513 65.3259 91.132 58.3517 95.4396C51.2954 99.7979 48.104 107.21 48.104 116.936L50.104 116.936ZM102.484 30.0045L101.488 29.9135L101.411 30.7593L102.233 30.9725L102.484 30.0045ZM105.467 -2.65149L105.694 -3.62543L104.576 -3.88587L104.471 -2.74244L105.467 -2.65149ZM97.303 -3.75049L98.303 -3.75049L98.303 -4.64246L97.4168 -4.74396L97.303 -3.75049ZM97.303 47.7455L96.303 47.7455L96.303 48.7675L97.3247 48.7453L97.303 47.7455ZM80.504 47.5885L80.3871 48.5817L81.504 48.7131L81.504 47.5885L80.504 47.5885ZM80.504 33.1445L81.504 33.1445L81.504 32.2665L80.6333 32.1529L80.504 33.1445ZM103.48 30.0955L106.463 -2.56055L104.471 -2.74244L101.488 29.9135L103.48 30.0955ZM105.24 -1.67756C116.415 0.924738 123.284 7.01806 127.391 14.6414C131.52 22.3065 132.884 31.5787 132.884 40.5235L134.884 40.5235C134.884 31.4133 133.501 21.767 129.152 13.6929C124.78 5.57696 117.441 -0.889776 105.694 -3.62543L105.24 -1.67756ZM132.884 40.5235C132.884 55.6628 128.887 67.2518 121.913 75.0443C114.952 82.8232 104.92 86.9375 92.593 86.9375L92.593 88.9375C105.386 88.9375 115.999 84.6523 123.404 76.378C130.796 68.1172 134.884 55.9992 134.884 40.5235L132.884 40.5235ZM92.593 86.9375C78.4715 86.9375 67.8976 82.1251 60.8367 73.8079C53.7552 65.4667 50.104 53.4783 50.104 38.9535L48.104 38.9535C48.104 53.7877 51.8317 66.2913 59.312 75.1024C66.8128 83.9375 77.9835 88.9375 92.593 88.9375L92.593 86.9375ZM50.104 38.9535C50.104 22.7172 54.5682 11.5133 62.5453 4.76483C70.5344 -1.99366 82.2621 -4.46735 97.1891 -2.75696L97.4168 -4.74396C82.1998 -6.48761 69.828 -4.01581 61.2536 3.23791C52.6672 10.5017 48.104 22.3768 48.104 38.9535L50.104 38.9535ZM96.303 -3.75049L96.303 47.7455L98.303 47.7455L98.303 -3.75049L96.303 -3.75049ZM97.3247 48.7453C101.098 48.6633 104.035 47.6339 106.036 45.7446C108.046 43.8458 108.979 41.2021 108.979 38.1685L106.979 38.1685C106.979 40.7869 106.185 42.8533 104.663 44.2906C103.13 45.7376 100.73 46.6708 97.2812 46.7457L97.3247 48.7453ZM108.979 38.1685C108.979 36.1888 108.652 34.2229 107.683 32.5781C106.694 30.8998 105.091 29.6473 102.735 29.0365L102.233 30.9725C104.116 31.4607 105.26 32.4062 105.959 33.5932C106.678 34.8137 106.979 36.3802 106.979 38.1685L108.979 38.1685ZM81.504 47.5885L81.504 33.1445L79.504 33.1445L79.504 47.5885L81.504 47.5885ZM80.6333 32.1529C76.8429 31.6585 74.2229 32.416 72.5567 33.9869C70.9101 35.5394 70.398 37.6976 70.398 39.5815L72.398 39.5815C72.398 38.0114 72.8278 36.4801 73.9287 35.4421C75.01 34.4226 76.943 33.6885 80.3746 34.1361L80.6333 32.1529ZM70.398 39.5815C70.398 42.4514 71.4599 44.5952 73.328 46.076C75.1459 47.5171 77.6351 48.2579 80.3871 48.5817L80.6208 46.5953C78.0348 46.2911 75.971 45.619 74.5704 44.5087C73.2201 43.4384 72.398 41.8926 72.398 39.5815L70.398 39.5815Z" fill="white" mask="url(#path-1-inside-1_2023_1252)"/>
</g>
<defs>
<filter id="filter0_d_2023_1252" x="0.720703" y="-20.2051" width="159.164" height="662.998" filterUnits="userSpaceOnUse" color-interpolation-filters="sRGB">
<feFlood flood-opacity="0" result="BackgroundImageFix"/>
<feColorMatrix in="SourceAlpha" type="matrix" values="0 0 0 0 0 0 0 0 0 0 0 0 0 0 0 0 0 0 127 0" result="hardAlpha"/>
<feOffset dx="6" dy="7"/>
<feGaussianBlur stdDeviation="10"/>
<feComposite in2="hardAlpha" operator="out"/>
<feColorMatrix type="matrix" values="0 0 0 0 0.987493 0 0 0 0 0.483955 0 0 0 0 0.071969 0 0 0 1 0"/>
<feBlend mode="normal" in2="BackgroundImageFix" result="effect1_dropShadow_2023_1252"/>
<feBlend mode="normal" in="SourceGraphic" in2="effect1_dropShadow_2023_1252" result="shape"/>
</filter>
</defs>
</svg>
