<svg width="208" height="897" viewBox="0 0 208 897" fill="none" xmlns="http://www.w3.org/2000/svg">
<g filter="url(#filter0_d_605_135)">
<path d="M145.455 752.769L145.125 752.889L145.125 753.239L145.125 811.289L145.125 811.645L145.46 811.762L178.65 823.345L178.65 869.08L14.5 810.487L14.5 753.589L178.65 693.43L178.65 740.739L145.455 752.769ZM111.25 763.589L111.25 762.885L110.585 763.118L55.9099 782.243L55.575 782.36L55.575 782.714L55.575 783.389L55.575 783.751L55.9186 783.864L110.594 801.864L111.25 802.08L111.25 801.389L111.25 763.589ZM140.32 649.879L140.725 649.8L140.725 649.388L140.725 648.713L140.725 648.307L140.328 648.224L64 632.107L64 581.167L140.33 564.827L140.725 564.742L140.725 564.338L140.725 563.213L140.725 562.794L140.313 562.721L64 549.069L64 507.609L178.65 537.275L178.65 592.058L105.696 607.499L105.3 607.583L105.3 607.988L105.3 608.663L105.3 609.067L105.695 609.152L178.65 624.817L178.65 677.807L64 709.481L64 664.65L140.32 649.879ZM163.457 437.208L162.507 437.546L163.352 438.097C168.803 441.657 173.295 446.209 176.428 452.28C179.562 458.354 181.35 465.978 181.35 475.704C181.35 489.103 177.389 498.126 171.382 503.803C165.368 509.486 157.236 511.879 148.775 511.879C140.494 511.879 134.183 509.561 129.322 505.62C124.452 501.672 121 496.064 118.502 489.422C113.61 476.412 112.427 459.584 111.324 443.885L111.249 442.819L111.216 442.354L110.75 442.354L108.05 442.354C101.72 442.354 96.7172 443.255 93.2824 445.292C89.8034 447.356 87.975 450.562 87.975 455.004C87.975 459.68 89.1721 462.938 91.8628 464.651C94.4232 466.28 98.1822 466.402 103.111 465.294L107.279 505.878C94.0718 507.764 82.6153 505.367 74.425 497.34C66.1245 489.206 61.075 475.191 61.075 453.654C61.075 433.225 65.0068 419.256 72.8464 410.391C80.6727 401.542 92.4857 397.679 108.5 397.679L144.725 397.679C147.743 397.679 150.11 397.36 151.513 395.765C152.852 394.243 153.181 391.713 152.713 387.75L177.863 386.449C181.363 400.845 181.762 412.088 179.317 420.438C176.86 428.832 171.522 434.336 163.457 437.208ZM132.125 442.354L131.594 442.354L131.626 442.884C132.189 452.12 133.486 458.183 135.658 461.947C136.751 463.842 138.072 465.166 139.64 466.012C141.204 466.856 142.979 467.204 144.95 467.204C148.069 467.204 150.689 466.395 152.529 464.585C154.37 462.774 155.35 460.039 155.35 456.354C155.35 451.831 153.662 448.308 150.751 445.926C147.853 443.555 143.792 442.354 139.1 442.354L132.125 442.354ZM80.8702 335.382L81.325 335.34L81.325 334.884L81.325 334.209L81.325 333.889L81.0345 333.755C76.6925 331.751 71.7108 328.646 67.8124 323.338C63.9178 318.034 61.075 310.492 61.075 299.559C61.075 287.069 65.0822 277.867 73.6394 272.447C82.1724 267.042 95.3391 265.322 113.871 268.043L116.072 312.718C108.831 311.884 103.477 311.844 99.8945 312.888C98.0427 313.427 96.6245 314.267 95.6727 315.474C94.7182 316.683 94.275 318.207 94.275 320.034C94.275 322.494 94.9509 324.515 96.1945 326.151C97.4334 327.781 99.2102 328.994 101.361 329.889C105.648 331.673 111.526 332.234 117.95 332.234L178.65 332.234L178.65 378.484L64 378.484L64 336.915L80.8702 335.382ZM73.625 181.904L14.5 181.904L14.5 136.104L178.65 136.104L178.65 177.716L165.105 180.338L164.7 180.416L164.7 180.829L164.7 181.279L164.7 181.581L164.967 181.721C173.33 186.123 181.35 197.412 181.35 214.129C181.35 227.875 177.496 239.875 168.401 248.443C159.301 257.016 144.875 262.229 123.575 262.229C103.974 262.229 88.3462 256.965 77.629 248.057C66.9196 239.156 61.075 226.586 61.075 211.879C61.075 203.848 62.6917 197.913 65.0942 193.411C67.4967 188.91 70.7005 185.814 73.9182 183.484L74.125 183.334L74.125 183.079L74.125 182.404L74.125 181.904L73.625 181.904ZM121.325 180.779C108.937 180.779 100.512 182.07 95.1701 184.741C92.4872 186.083 90.5658 187.78 89.3194 189.849C88.0736 191.916 87.525 194.317 87.525 197.029C87.525 199.787 88.0135 202.294 89.2098 204.496C90.4083 206.701 92.2978 208.566 95.0411 210.068C100.502 213.056 109.385 214.629 123.125 214.629C133.716 214.629 141.742 213.505 147.135 210.924C149.84 209.628 151.902 207.957 153.285 205.861C154.669 203.763 155.35 201.273 155.35 198.379C155.35 195.261 154.627 192.576 153.164 190.31C151.702 188.046 149.523 186.233 146.661 184.824C140.958 182.015 132.481 180.779 121.325 180.779ZM68.8235 32.2399C73.895 23.7056 81.4813 18.1436 91.6742 15.4214L98.2563 53.8173C95.1133 54.7426 92.31 56.2167 90.2651 58.5417C88.1188 60.9821 86.85 64.3122 86.85 68.8C86.85 72.1215 87.5357 74.7701 88.857 76.6019C90.1938 78.4553 92.1488 79.425 94.55 79.425C97.0402 79.425 98.868 78.2975 100.222 76.3809C101.556 74.4934 102.437 71.8368 103.107 68.7296C103.779 65.6143 104.25 61.987 104.732 58.128L104.837 57.2906C105.288 53.6709 105.763 49.8595 106.433 46.0491C107.878 37.8289 110.216 29.6925 115.095 23.6138C119.95 17.5647 127.365 13.5 139.1 13.5C153.981 13.5 164.519 20.7608 171.36 31.4938C178.213 42.2472 181.35 56.4894 181.35 70.3751C181.35 86.6545 179.102 99.8297 173.762 109.508C168.513 119.023 160.254 125.198 148.076 127.609L142.804 87.6299C146.499 86.7043 149.707 85.1686 152.015 82.6066C154.423 79.9348 155.8 76.2054 155.8 71.05C155.8 67.0719 155.121 64.0226 153.655 61.9574C152.164 59.8587 149.915 58.85 146.975 58.85C144.488 58.85 142.644 59.9639 141.259 61.8586C139.893 63.7259 138.967 66.3549 138.244 69.4309C137.519 72.5146 136.986 76.105 136.438 79.9245L136.319 80.7528C135.806 84.3356 135.266 88.108 134.531 91.8794C132.946 100.014 130.469 108.068 125.486 114.086C120.525 120.076 113.037 124.1 101.3 124.1C88.5543 124.1 78.5183 117.737 71.6491 107.53C64.7711 97.3107 61.075 83.24 61.075 67.9C61.075 52.7615 63.6554 40.9368 68.8235 32.2399Z" stroke="white" shape-rendering="crispEdges"/>
</g>
<defs>
<filter id="filter0_d_605_135" x="0" y="-5.72205e-06" width="207.85" height="896.789" filterUnits="userSpaceOnUse" color-interpolation-filters="sRGB">
<feFlood flood-opacity="0" result="BackgroundImageFix"/>
<feColorMatrix in="SourceAlpha" type="matrix" values="0 0 0 0 0 0 0 0 0 0 0 0 0 0 0 0 0 0 127 0" result="hardAlpha"/>
<feOffset dx="6" dy="7"/>
<feGaussianBlur stdDeviation="10"/>
<feComposite in2="hardAlpha" operator="out"/>
<feColorMatrix type="matrix" values="0 0 0 0 0.987493 0 0 0 0 0.483955 0 0 0 0 0.071969 0 0 0 1 0"/>
<feBlend mode="normal" in2="BackgroundImageFix" result="effect1_dropShadow_605_135"/>
<feBlend mode="normal" in="SourceGraphic" in2="effect1_dropShadow_605_135" result="shape"/>
</filter>
</defs>
</svg>
