<svg width="95" height="103" viewBox="0 0 95 103" fill="none" xmlns="http://www.w3.org/2000/svg">
<path d="M65.6105 39.4659C60.3937 39.4695 55.2718 40.8601 50.77 43.495C46.2683 46.1298 42.5488 49.9142 39.9931 54.4598H9.16854C7.21102 54.4589 5.30462 55.0844 3.7286 56.2449C2.15257 57.4054 0.989753 59.0399 0.410462 60.9088C-0.16883 62.7777 -0.134148 64.783 0.509427 66.6308C1.153 68.4786 2.37165 70.0719 3.98686 71.1772C2.75834 72.0177 1.75334 73.1448 1.0589 74.461C0.364456 75.7772 0.00151718 77.2427 0.00151718 78.7307C0.00151718 80.2187 0.364456 81.6843 1.0589 83.0005C1.75334 84.3167 2.75834 85.4438 3.98686 86.2842C2.37236 87.3898 1.15439 88.983 0.51127 90.8305C-0.131847 92.678 -0.166324 94.6828 0.412887 96.5513C0.992098 98.4198 2.15457 100.054 3.7301 101.214C5.30563 102.375 7.21146 103 9.16854 103H52.8325C54.5459 102.992 56.2231 102.507 57.6764 101.6C59.1296 100.693 60.3014 99.399 61.0604 97.8637C62.5657 98.0984 64.0869 98.2163 65.6105 98.2161C81.8169 98.2161 95 85.0384 95 68.841C95 52.6437 81.8169 39.4659 65.6105 39.4659ZM3.22123 63.6228C3.22299 62.0468 3.85012 60.5359 4.96504 59.4216C6.07996 58.3072 7.59161 57.6804 9.16834 57.6786H38.4277C36.9674 61.2189 36.2177 65.0116 36.2213 68.841C36.2213 69.0836 36.2244 69.3256 36.2306 69.567H9.16854C7.59177 69.5653 6.08007 68.9385 4.96511 67.8242C3.85015 66.7098 3.22299 65.1988 3.22123 63.6228ZM3.22123 78.7298C3.22299 77.1539 3.85013 75.643 4.96505 74.5286C6.07998 73.4143 7.59162 72.7875 9.16834 72.7858H36.4872C37.0583 77.0209 38.5529 81.0789 40.8654 84.6732H9.16854C7.59191 84.6715 6.08033 84.0448 4.9654 82.9306C3.85046 81.8164 3.22321 80.3057 3.22123 78.7298ZM52.8325 99.7812H9.16854C7.59116 99.7812 6.07839 99.1549 4.96302 98.0401C3.84764 96.9253 3.22103 95.4132 3.22103 93.8366C3.22103 92.26 3.84764 90.748 4.96302 89.6331C6.07839 88.5183 7.59116 87.892 9.16854 87.892H43.2601C47.0638 92.3517 52.1127 95.5752 57.7604 97.1495C57.2153 97.9559 56.4815 98.6171 55.6227 99.0757C54.7639 99.5343 53.8061 99.7765 52.8325 99.7812ZM65.6105 94.9974C60.4347 94.9973 55.3752 93.4633 51.0718 90.5891C46.7683 87.715 43.4142 83.6299 41.4336 78.8505C39.4529 74.071 38.9347 68.8119 39.9445 63.738C40.9543 58.6642 43.4466 54.0036 47.1064 50.3456C50.7663 46.6876 55.4291 44.1965 60.5054 43.1872C65.5817 42.178 70.8434 42.696 75.6252 44.6757C80.4069 46.6554 84.4939 50.008 87.3694 54.3093C90.2449 58.6107 91.7797 63.6678 91.7797 68.841C91.7719 75.7757 89.0122 82.4242 84.1062 87.3278C79.2002 92.2314 72.5486 94.9896 65.6105 94.9974ZM72.5305 60.9678C72.5305 61.3946 72.7001 61.8039 73.0021 62.1058C73.3041 62.4076 73.7136 62.5771 74.1407 62.5771C74.5677 62.5771 74.9772 62.4076 75.2792 62.1058C75.5812 61.8039 75.7508 61.3946 75.7508 60.9678C75.7508 56.2513 72.0493 52.3294 67.2206 51.6056V48.2718C67.2206 47.845 67.051 47.4356 66.749 47.1338C66.4471 46.832 66.0375 46.6624 65.6105 46.6624C65.1834 46.6624 64.7739 46.832 64.4719 47.1338C64.17 47.4356 64.0003 47.845 64.0003 48.2718V51.6056C59.1717 52.3298 55.4701 56.2513 55.4701 60.9678C55.4701 65.6842 59.1717 69.6055 64.0003 70.3297V82.8054C60.9589 82.1465 58.6904 79.6671 58.6904 76.7145C58.6904 76.2877 58.5208 75.8783 58.2188 75.5765C57.9169 75.2747 57.5073 75.1051 57.0803 75.1051C56.6532 75.1051 56.2437 75.2747 55.9417 75.5765C55.6398 75.8783 55.4701 76.2877 55.4701 76.7145C55.4701 81.4308 59.1717 85.3526 64.0003 86.0764V89.4102C64.0003 89.8371 64.17 90.2464 64.4719 90.5482C64.7739 90.8501 65.1834 91.0196 65.6105 91.0196C66.0375 91.0196 66.4471 90.8501 66.749 90.5482C67.051 90.2464 67.2206 89.8371 67.2206 89.4102V86.0764C72.0493 85.3522 75.7508 81.4308 75.7508 76.7145C75.7508 71.9982 72.0493 68.0766 67.2206 67.3523V54.8767C70.2622 55.5355 72.5305 58.0156 72.5305 60.9678ZM58.6904 60.9678C58.6904 58.0156 60.9589 55.5361 64.0003 54.8767V67.0586C60.9589 66.3998 58.691 63.9197 58.691 60.9678H58.6904ZM72.5305 76.7145C72.5305 79.6665 70.2622 82.1461 67.2206 82.8054V70.6234C70.2622 71.2822 72.5305 73.7623 72.5305 76.7145ZM36.7593 0H24.7611C24.334 0 23.9245 0.169559 23.6225 0.471375C23.3206 0.773191 23.1509 1.18254 23.1509 1.60938V28.0802H15.2503C14.9457 28.0802 14.6474 28.1665 14.39 28.3292C14.1326 28.4919 13.9266 28.7242 13.7959 28.9991C13.6653 29.2741 13.6153 29.5805 13.6519 29.8827C13.6884 30.1849 13.81 30.4705 14.0024 30.7065L29.5124 49.719C29.6634 49.9041 29.8537 50.0533 30.0696 50.1557C30.2854 50.2582 30.5214 50.3113 30.7603 50.3113C30.9992 50.3113 31.2352 50.2582 31.451 50.1557C31.6669 50.0533 31.8572 49.9041 32.0082 49.719L47.5182 30.7065C47.7106 30.4705 47.8322 30.1849 47.8687 29.8827C47.9053 29.5805 47.8553 29.2741 47.7247 28.9991C47.594 28.7242 47.388 28.4919 47.1306 28.3292C46.8732 28.1665 46.5749 28.0802 46.2703 28.0802H38.3695V1.60938C38.3695 1.18254 38.1998 0.773191 37.8979 0.471375C37.5959 0.169559 37.1864 0 36.7593 0ZM42.8797 31.2989L30.7601 46.1553L18.6405 31.2989H24.7611C25.1881 31.2989 25.5977 31.1294 25.8996 30.8275C26.2016 30.5257 26.3712 30.1164 26.3712 29.6895V3.21875H35.1492V29.6895C35.1492 30.1164 35.3188 30.5257 35.6208 30.8275C35.9227 31.1294 36.3323 31.2989 36.7593 31.2989H42.8797Z" fill="url(#paint0_linear_0_2247)"/>
<defs>
<linearGradient id="paint0_linear_0_2247" x1="137.071" y1="-73.5049" x2="78.8204" y2="112.793" gradientUnits="userSpaceOnUse">
<stop offset="0.425987" stop-color="#E8F3FF"/>
<stop offset="0.821693" stop-color="#C9E2FF"/>
<stop offset="1" stop-color="#97C7FF"/>
</linearGradient>
</defs>
</svg>
