<svg width="80" height="80" viewBox="0 0 80 80" fill="none" xmlns="http://www.w3.org/2000/svg">
<g clip-path="url(#clip0_2009_680)">
<mask id="path-1-inside-1_2009_680" fill="white">
<path d="M19.9613 59.8841L40.0772 80L51.2725 68.8047C52.1201 72.4573 54.3603 75.6347 57.516 77.6601C60.6717 79.6854 64.4934 80.3987 68.1672 79.6479C71.841 78.8971 75.0765 76.7416 77.1845 73.6406C79.2925 70.5395 80.1066 66.738 79.4531 63.0456L76.385 63.5889C76.5003 64.2428 76.5582 64.9055 76.5581 65.5695C76.5581 67.7982 75.8972 69.9769 74.659 71.8299C73.4209 73.683 71.661 75.1273 69.6019 75.9802C67.5429 76.8331 65.2772 77.0562 63.0913 76.6214C60.9055 76.1867 58.8976 75.1134 57.3217 73.5375C55.7458 71.9616 54.6726 69.9538 54.2378 67.7679C53.803 65.582 54.0261 63.3163 54.879 61.2573C55.7319 59.1982 57.1762 57.4384 59.0293 56.2002C60.8824 54.962 63.061 54.3011 65.2897 54.3011C67.8152 54.2916 70.2692 55.1396 72.25 56.7064L74.1761 54.2572C72.5176 52.9467 70.5881 52.022 68.5277 51.5503L80 40.0781L61.1688 21.2459L60.7247 20.802L59.8841 19.9614L39.9227 0L19.9613 19.9614L0 39.9228L18.8594 58.7822L19.9613 59.8841ZM50.93 64.7405L40.0772 75.5938L23.2664 58.7823L26.7525 55.2969C27.3481 56.0864 28.1062 56.7389 28.9755 57.2105C29.8448 57.682 30.8052 57.9616 31.7917 58.0303C32.7783 58.0991 33.7682 57.9553 34.6945 57.6089C35.6208 57.2624 36.462 56.7212 37.1613 56.0219C37.8606 55.3226 38.4018 54.4814 38.7482 53.5551C39.0947 52.6288 39.2384 51.639 39.1697 50.6524C39.101 49.6658 38.8214 48.7054 38.3499 47.8361C37.8783 46.9668 37.2258 46.2087 36.4362 45.6131L39.9227 42.1269L47.0075 49.2116L47.6825 46.5573C47.8486 45.9078 48.1836 45.3139 48.6536 44.8357C49.1235 44.3576 49.7116 44.0124 50.3582 43.8352C51.0047 43.658 51.6867 43.6551 52.3347 43.8267C52.9828 43.9984 53.5739 44.3385 54.0479 44.8125C54.522 45.2866 54.8621 45.8777 55.0338 46.5257C55.2054 47.1738 55.2025 47.8557 55.0252 48.5023C54.848 49.1488 54.5028 49.737 54.0247 50.2069C53.5466 50.6769 52.9526 51.0119 52.3031 51.178L49.6489 51.853L54.2069 56.4111C52.2525 58.766 51.1041 61.6852 50.9302 64.7405H50.93ZM75.5938 40.0781L64.4616 51.2105C61.5415 51.3764 58.7423 52.433 56.4409 54.238L55.35 53.147C56.173 52.5661 56.8592 51.8122 57.3604 50.9384C57.8616 50.0645 58.1658 49.0916 58.2517 48.0878C58.3375 47.0841 58.2031 46.0737 57.8576 45.1274C57.5121 44.181 56.964 43.3216 56.2517 42.6093C55.5393 41.8969 54.6799 41.3488 53.7335 41.0034C52.7872 40.6579 51.7768 40.5234 50.773 40.6094C49.7693 40.6953 48.7964 40.9995 47.9225 41.5007C47.0487 42.0019 46.2949 42.6881 45.7139 43.5111L42.1264 39.9236L48.9453 33.1047L46.463 32.3478C45.8364 32.1558 45.2702 31.805 44.8194 31.3295C44.3685 30.854 44.0484 30.2699 43.8901 29.634C43.7318 28.9981 43.7406 28.3321 43.9158 27.7007C44.0911 27.0693 44.4267 26.494 44.89 26.0306C45.3534 25.5673 45.9288 25.2317 46.5602 25.0565C47.1916 24.8813 47.8576 24.8724 48.4935 25.0308C49.1293 25.1891 49.7134 25.5093 50.1889 25.9601C50.6645 26.411 51.0152 26.9772 51.2072 27.6038L51.943 30.0158L58.9098 23.3941L75.5938 40.0781ZM56.7053 21.1892L53.125 24.5923C52.5342 23.7964 51.7792 23.1367 50.9111 22.6581C50.043 22.1795 49.0822 21.8932 48.0937 21.8185C47.1053 21.7439 46.1123 21.8826 45.1822 22.2254C44.2521 22.5681 43.4065 23.1068 42.7029 23.805C41.9992 24.5032 41.4539 25.3446 41.104 26.272C40.754 27.1994 40.6075 28.1913 40.6745 29.1803C40.7415 30.1693 41.0203 31.1323 41.4921 32.0041C41.964 32.8759 42.6177 33.636 43.4091 34.233L39.9227 37.7188L33.1037 30.8998L32.3469 33.3825C32.1667 33.9772 31.8416 34.5178 31.4008 34.9558C30.6878 35.665 29.7227 36.0626 28.7171 36.0613C27.7114 36.0599 26.7473 35.6599 26.0362 34.9488C25.3251 34.2377 24.9251 33.2736 24.9237 32.2679C24.9224 31.2623 25.32 30.2972 26.0292 29.5842C26.4673 29.1433 27.0081 28.8182 27.603 28.6381L30.0852 27.8813L23.2656 21.0625L39.9219 4.40625L56.7053 21.1892ZM4.40625 39.9228L21.0625 23.2656L24.5489 26.752C23.7595 27.3477 23.1071 28.1057 22.6356 28.975C22.1642 29.8443 21.8847 30.8046 21.816 31.7911C21.7473 32.7776 21.8911 33.7673 22.2375 34.6936C22.584 35.6198 23.1251 36.4609 23.8244 37.1602C24.5236 37.8594 25.3647 38.4005 26.2909 38.747C27.2172 39.0935 28.2069 39.2373 29.1934 39.1686C30.1799 39.0999 31.1402 38.8205 32.0095 38.349C32.8788 37.8776 33.6369 37.2252 34.2325 36.4358L37.7188 39.9228L30.8997 46.7417L33.3822 47.4984C33.977 47.6786 34.5177 48.0037 34.9558 48.4445C35.31 48.7969 35.5912 49.2157 35.7833 49.6769C35.9754 50.1381 36.0746 50.6327 36.0753 51.1324C36.076 51.632 35.978 52.1269 35.7871 52.5886C35.5962 53.0503 35.3161 53.4698 34.9628 53.8231C34.6095 54.1764 34.19 54.4565 33.7283 54.6474C33.2665 54.8383 32.7717 54.9363 32.2721 54.9356C31.7724 54.935 31.2778 54.8357 30.8166 54.6436C30.3554 54.4515 29.9366 54.1703 29.5842 53.8161C29.1434 53.3781 28.8182 52.8374 28.6381 52.2427L27.8813 49.7602L21.0625 56.5791L4.40625 39.9228Z"/>
</mask>
<path d="M19.9613 59.8841L40.0772 80L51.2725 68.8047C52.1201 72.4573 54.3603 75.6347 57.516 77.6601C60.6717 79.6854 64.4934 80.3987 68.1672 79.6479C71.841 78.8971 75.0765 76.7416 77.1845 73.6406C79.2925 70.5395 80.1066 66.738 79.4531 63.0456L76.385 63.5889C76.5003 64.2428 76.5582 64.9055 76.5581 65.5695C76.5581 67.7982 75.8972 69.9769 74.659 71.8299C73.4209 73.683 71.661 75.1273 69.6019 75.9802C67.5429 76.8331 65.2772 77.0562 63.0913 76.6214C60.9055 76.1867 58.8976 75.1134 57.3217 73.5375C55.7458 71.9616 54.6726 69.9538 54.2378 67.7679C53.803 65.582 54.0261 63.3163 54.879 61.2573C55.7319 59.1982 57.1762 57.4384 59.0293 56.2002C60.8824 54.962 63.061 54.3011 65.2897 54.3011C67.8152 54.2916 70.2692 55.1396 72.25 56.7064L74.1761 54.2572C72.5176 52.9467 70.5881 52.022 68.5277 51.5503L80 40.0781L61.1688 21.2459L60.7247 20.802L59.8841 19.9614L39.9227 0L19.9613 19.9614L0 39.9228L18.8594 58.7822L19.9613 59.8841ZM50.93 64.7405L40.0772 75.5938L23.2664 58.7823L26.7525 55.2969C27.3481 56.0864 28.1062 56.7389 28.9755 57.2105C29.8448 57.682 30.8052 57.9616 31.7917 58.0303C32.7783 58.0991 33.7682 57.9553 34.6945 57.6089C35.6208 57.2624 36.462 56.7212 37.1613 56.0219C37.8606 55.3226 38.4018 54.4814 38.7482 53.5551C39.0947 52.6288 39.2384 51.639 39.1697 50.6524C39.101 49.6658 38.8214 48.7054 38.3499 47.8361C37.8783 46.9668 37.2258 46.2087 36.4362 45.6131L39.9227 42.1269L47.0075 49.2116L47.6825 46.5573C47.8486 45.9078 48.1836 45.3139 48.6536 44.8357C49.1235 44.3576 49.7116 44.0124 50.3582 43.8352C51.0047 43.658 51.6867 43.6551 52.3347 43.8267C52.9828 43.9984 53.5739 44.3385 54.0479 44.8125C54.522 45.2866 54.8621 45.8777 55.0338 46.5257C55.2054 47.1738 55.2025 47.8557 55.0252 48.5023C54.848 49.1488 54.5028 49.737 54.0247 50.2069C53.5466 50.6769 52.9526 51.0119 52.3031 51.178L49.6489 51.853L54.2069 56.4111C52.2525 58.766 51.1041 61.6852 50.9302 64.7405H50.93ZM75.5938 40.0781L64.4616 51.2105C61.5415 51.3764 58.7423 52.433 56.4409 54.238L55.35 53.147C56.173 52.5661 56.8592 51.8122 57.3604 50.9384C57.8616 50.0645 58.1658 49.0916 58.2517 48.0878C58.3375 47.0841 58.2031 46.0737 57.8576 45.1274C57.5121 44.181 56.964 43.3216 56.2517 42.6093C55.5393 41.8969 54.6799 41.3488 53.7335 41.0034C52.7872 40.6579 51.7768 40.5234 50.773 40.6094C49.7693 40.6953 48.7964 40.9995 47.9225 41.5007C47.0487 42.0019 46.2949 42.6881 45.7139 43.5111L42.1264 39.9236L48.9453 33.1047L46.463 32.3478C45.8364 32.1558 45.2702 31.805 44.8194 31.3295C44.3685 30.854 44.0484 30.2699 43.8901 29.634C43.7318 28.9981 43.7406 28.3321 43.9158 27.7007C44.0911 27.0693 44.4267 26.494 44.89 26.0306C45.3534 25.5673 45.9288 25.2317 46.5602 25.0565C47.1916 24.8813 47.8576 24.8724 48.4935 25.0308C49.1293 25.1891 49.7134 25.5093 50.1889 25.9601C50.6645 26.411 51.0152 26.9772 51.2072 27.6038L51.943 30.0158L58.9098 23.3941L75.5938 40.0781ZM56.7053 21.1892L53.125 24.5923C52.5342 23.7964 51.7792 23.1367 50.9111 22.6581C50.043 22.1795 49.0822 21.8932 48.0937 21.8185C47.1053 21.7439 46.1123 21.8826 45.1822 22.2254C44.2521 22.5681 43.4065 23.1068 42.7029 23.805C41.9992 24.5032 41.4539 25.3446 41.104 26.272C40.754 27.1994 40.6075 28.1913 40.6745 29.1803C40.7415 30.1693 41.0203 31.1323 41.4921 32.0041C41.964 32.8759 42.6177 33.636 43.4091 34.233L39.9227 37.7188L33.1037 30.8998L32.3469 33.3825C32.1667 33.9772 31.8416 34.5178 31.4008 34.9558C30.6878 35.665 29.7227 36.0626 28.7171 36.0613C27.7114 36.0599 26.7473 35.6599 26.0362 34.9488C25.3251 34.2377 24.9251 33.2736 24.9237 32.2679C24.9224 31.2623 25.32 30.2972 26.0292 29.5842C26.4673 29.1433 27.0081 28.8182 27.603 28.6381L30.0852 27.8813L23.2656 21.0625L39.9219 4.40625L56.7053 21.1892ZM4.40625 39.9228L21.0625 23.2656L24.5489 26.752C23.7595 27.3477 23.1071 28.1057 22.6356 28.975C22.1642 29.8443 21.8847 30.8046 21.816 31.7911C21.7473 32.7776 21.8911 33.7673 22.2375 34.6936C22.584 35.6198 23.1251 36.4609 23.8244 37.1602C24.5236 37.8594 25.3647 38.4005 26.2909 38.747C27.2172 39.0935 28.2069 39.2373 29.1934 39.1686C30.1799 39.0999 31.1402 38.8205 32.0095 38.349C32.8788 37.8776 33.6369 37.2252 34.2325 36.4358L37.7188 39.9228L30.8997 46.7417L33.3822 47.4984C33.977 47.6786 34.5177 48.0037 34.9558 48.4445C35.31 48.7969 35.5912 49.2157 35.7833 49.6769C35.9754 50.1381 36.0746 50.6327 36.0753 51.1324C36.076 51.632 35.978 52.1269 35.7871 52.5886C35.5962 53.0503 35.3161 53.4698 34.9628 53.8231C34.6095 54.1764 34.19 54.4565 33.7283 54.6474C33.2665 54.8383 32.7717 54.9363 32.2721 54.9356C31.7724 54.935 31.2778 54.8357 30.8166 54.6436C30.3554 54.4515 29.9366 54.1703 29.5842 53.8161C29.1434 53.3781 28.8182 52.8374 28.6381 52.2427L27.8813 49.7602L21.0625 56.5791L4.40625 39.9228Z" fill="#F1F3F4" stroke="#1616A5" stroke-width="0.5" mask="url(#path-1-inside-1_2009_680)"/>
<path d="M65.1317 67.6307L65.2186 67.7176L65.3069 67.6323L77.8101 55.5557L79.8011 57.6171L65.1835 71.7357L58.1319 64.6841L60.1584 62.6576L65.1317 67.6307Z" fill="#F1F3F4" stroke="#1616A5" stroke-width="0.25"/>
</g>
<defs>
<clipPath id="clip0_2009_680">
<rect width="80" height="80" fill="white"/>
</clipPath>
</defs>
</svg>
