<svg width="80" height="80" viewBox="0 0 80 80" fill="none" xmlns="http://www.w3.org/2000/svg">
<path d="M72.2331 17.2186L72.2324 17.2194C72.1037 17.3489 71.9504 17.4514 71.7816 17.5211C71.613 17.5907 71.4321 17.626 71.2496 17.625M72.2331 17.2186L72.625 16.2493C72.6248 15.8849 72.48 15.5354 72.2223 15.2777C71.9644 15.0199 71.6147 14.875 71.25 14.875H19.875H19.7222L19.7525 15.0248C19.9158 15.8334 19.9158 16.6666 19.7525 17.4752L19.7222 17.625H19.875H71.2496M72.2331 17.2186C72.4861 16.9599 72.6269 16.6119 72.625 16.25L72.2331 17.2186ZM71.2496 17.625C71.2495 17.625 71.2494 17.625 71.2493 17.625L71.25 17.5V17.625H71.2496ZM18.6498 12.5747L18.6872 12.625H18.75H71.25C72.2114 12.625 73.1334 13.0069 73.8133 13.6867C74.4931 14.3666 74.875 15.2886 74.875 16.25C74.875 17.2114 74.4931 18.1334 73.8133 18.8133C73.1334 19.4931 72.2114 19.875 71.25 19.875H50H49.875V20V22.6625V22.7589L49.9683 22.7834C50.9105 23.0306 51.7572 23.5544 52.3989 24.2872C53.0407 25.0201 53.4482 25.9284 53.5689 26.895C53.6895 27.8617 53.5178 28.8423 53.0759 29.7104C52.634 30.5786 51.9421 31.2944 51.0895 31.7656L50.9442 31.8459L51.0616 31.9633L62.0393 42.9536C62.2217 43.1683 62.3169 43.4437 62.306 43.7252C62.295 44.0084 62.1777 44.277 61.9773 44.4773C61.777 44.6777 61.5084 44.795 61.2252 44.806C60.9437 44.8169 60.6683 44.7217 60.4536 44.5393L48.8384 32.9303L48.75 32.842L48.6616 32.9303L37.0429 44.5428L37.0426 44.5426L37.0363 44.5499C36.9355 44.6677 36.8113 44.7634 36.6718 44.8309C36.5322 44.8984 36.3802 44.9364 36.2252 44.9423C36.0703 44.9483 35.9158 44.9222 35.7714 44.8657C35.6271 44.8091 35.496 44.7233 35.3863 44.6137C35.2767 44.504 35.1909 44.3729 35.1343 44.2286C35.0778 44.0842 35.0517 43.9297 35.0577 43.7748C35.0636 43.6198 35.1016 43.4678 35.1691 43.3282C35.2366 43.1887 35.3323 43.0645 35.4501 42.9637L35.4503 42.964L35.4572 42.9571L46.4384 31.9633L46.5563 31.8454L46.41 31.7653C45.6443 31.3464 45.0051 30.7295 44.5592 29.9792C44.1133 29.2288 43.877 28.3726 43.875 27.4997C43.8751 27.2014 43.9936 26.9154 44.2045 26.7045C44.4155 26.4935 44.7016 26.375 45 26.375C45.2984 26.375 45.5845 26.4935 45.7955 26.7045C46.0065 26.9155 46.125 27.2016 46.125 27.5C46.125 28.0192 46.279 28.5267 46.5674 28.9584C46.8558 29.3901 47.2658 29.7265 47.7455 29.9252C48.2251 30.1239 48.7529 30.1758 49.2621 30.0746C49.7713 29.9733 50.239 29.7233 50.6062 29.3562C50.9733 28.989 51.2233 28.5213 51.3246 28.0121C51.4258 27.5029 51.3739 26.9751 51.1752 26.4955C50.9765 26.0158 50.6401 25.6058 50.2084 25.3174C49.7767 25.029 49.2692 24.875 48.75 24.875C48.4516 24.875 48.1655 24.7565 47.9545 24.5455C47.7435 24.3345 47.625 24.0484 47.625 23.75V20V19.875H47.5H18.75H18.6872L18.6498 19.9253C18.3031 20.3906 17.8906 20.8031 17.4253 21.1498L17.375 21.1872V21.25V72.5V72.625H17.5H18.75C19.0484 72.625 19.3345 72.7435 19.5455 72.9545C19.7565 73.1655 19.875 73.4516 19.875 73.75C19.875 74.0484 19.7565 74.3345 19.5455 74.5455C19.3345 74.7565 19.0484 74.875 18.75 74.875H8.75C8.45163 74.875 8.16548 74.7565 7.95451 74.5455C7.74353 74.3345 7.625 74.0484 7.625 73.75C7.625 73.4516 7.74353 73.1655 7.9545 72.9545C8.16548 72.7435 8.45163 72.625 8.75 72.625H10H10.125V72.5V21.25V21.1875L10.075 21.15C9.3143 20.5795 8.69688 19.8397 8.27163 18.9892C7.84639 18.1387 7.625 17.2009 7.625 16.25C7.625 15.2991 7.84639 14.3613 8.27163 13.5108C8.69688 12.6603 9.3143 11.9205 10.075 11.35L10.125 11.3125V11.25V8.75C10.125 7.78859 10.5069 6.86656 11.1867 6.18674C11.8666 5.50692 12.7886 5.125 13.75 5.125C14.7114 5.125 15.6334 5.50692 16.3133 6.18674C16.9931 6.86656 17.375 7.78859 17.375 8.75V11.25V11.3128L17.4253 11.3502C17.8906 11.6969 18.3031 12.1094 18.6498 12.5747ZM14.9752 10.2475L15.125 10.2778V10.125V8.75C15.125 8.38533 14.9801 8.03559 14.7223 7.77773C14.4644 7.51987 14.1147 7.375 13.75 7.375C13.3853 7.375 13.0356 7.51987 12.7777 7.77773C12.5199 8.03559 12.375 8.38533 12.375 8.75V10.125V10.2778L12.5248 10.2475C13.3334 10.0842 14.1666 10.0842 14.9752 10.2475ZM15 72.625H15.125V72.5V22.375V22.2222L14.9752 22.2525C14.1666 22.4158 13.3334 22.4158 12.5248 22.2525L12.375 22.2222V22.375V72.5V72.625H12.5H15ZM15.9028 13.0281C15.2656 12.6023 14.5164 12.375 13.75 12.375C12.7223 12.375 11.7367 12.7833 11.01 13.51C10.2833 14.2367 9.875 15.2223 9.875 16.25C9.875 17.0164 10.1023 17.7656 10.5281 18.4028C10.9538 19.0401 11.559 19.5367 12.2671 19.83C12.9752 20.1233 13.7543 20.2001 14.506 20.0505C15.2577 19.901 15.9481 19.532 16.49 18.99C17.032 18.4481 17.401 17.7577 17.5505 17.006C17.7001 16.2543 17.6233 15.4752 17.33 14.7671C17.0367 14.059 16.5401 13.4538 15.9028 13.0281Z" fill="#F1F3F4" stroke="#1616A5" stroke-width="0.25"/>
<path d="M14.5455 17.0455C14.3345 17.2565 14.0484 17.375 13.75 17.375C13.4516 17.375 13.1655 17.2565 12.9545 17.0455C12.7435 16.8345 12.625 16.5484 12.625 16.25C12.625 15.9516 12.7435 15.6655 12.9545 15.4545C13.1655 15.2435 13.4516 15.125 13.75 15.125C14.0484 15.125 14.3345 15.2435 14.5455 15.4545C14.7565 15.6655 14.875 15.9516 14.875 16.25C14.875 16.5484 14.7565 16.8345 14.5455 17.0455Z" fill="#F1F3F4" stroke="#1616A5" stroke-width="0.25"/>
<path d="M72.494 67.7625V67.8475L72.573 67.8787C73.357 68.1886 74.0084 68.7619 74.4153 69.5002C74.8222 70.2384 74.9591 71.0954 74.8025 71.9236C74.6459 72.7519 74.2055 73.4997 73.5571 74.0383C72.9087 74.577 72.0928 74.8729 71.2499 74.875H26.2505C25.4076 74.8729 24.5917 74.577 23.9433 74.0383C23.2949 73.4997 22.8546 72.7519 22.6979 71.9236C22.5413 71.0954 22.6782 70.2384 23.0851 69.5002C23.492 68.7619 24.1435 68.1886 24.9274 67.8787L25.0065 67.8475V67.7625V49.7375V49.6525L24.9274 49.6213C24.1435 49.3114 23.492 48.7381 23.0851 47.9998C22.6782 47.2616 22.5413 46.4046 22.6979 45.5764C22.8546 44.7481 23.2949 44.0003 23.9433 43.4617C24.5917 42.923 25.4075 42.6272 26.2504 42.625H71.25C72.0929 42.6272 72.9087 42.923 73.5571 43.4617C74.2055 44.0003 74.6459 44.7481 74.8025 45.5764C74.9591 46.4046 74.8222 47.2616 74.4153 47.9998C74.0084 48.7381 73.357 49.3114 72.573 49.6213L72.494 49.6525V49.7375V67.7625ZM27.3815 49.875H27.2565V50V57.5V57.625H27.3815H70.119H70.244V57.5V50V49.875H70.119H27.3815ZM27.3815 59.875H27.2565V60V67.5V67.625H27.3815H70.119H70.244V67.5V60V59.875H70.119H27.3815ZM71.2502 44.875H26.2502C25.8855 44.875 25.5358 45.0199 25.2779 45.2777C25.0201 45.5356 24.8752 45.8853 24.8752 46.25C24.8752 46.6147 25.0201 46.9644 25.2779 47.2223C25.5358 47.4801 25.8855 47.625 26.2502 47.625H71.2502C71.6149 47.625 71.9646 47.4801 72.2225 47.2223C72.4803 46.9644 72.6252 46.6147 72.6252 46.25C72.6252 45.8853 72.4803 45.5356 72.2225 45.2777C71.9646 45.0199 71.6149 44.875 71.2502 44.875ZM26.2502 72.625H71.2502C71.6149 72.625 71.9646 72.4801 72.2225 72.2223C72.4803 71.9644 72.6252 71.6147 72.6252 71.25C72.6252 70.8853 72.4803 70.5356 72.2225 70.2777C71.9646 70.0199 71.6149 69.875 71.2502 69.875H26.2502C25.8855 69.875 25.5358 70.0199 25.2779 70.2777C25.0201 70.5356 24.8752 70.8853 24.8752 71.25C24.8752 71.6147 25.0201 71.9644 25.2779 72.2223C25.5358 72.4801 25.8855 72.625 26.2502 72.625Z" fill="#F1F3F4" stroke="#1616A5" stroke-width="0.25"/>
<path d="M32.9545 52.3295C33.1655 52.1185 33.4516 52 33.75 52C34.0484 52 34.3345 52.1185 34.5455 52.3295C34.7565 52.5405 34.875 52.8266 34.875 53.125V54.375C34.875 54.6734 34.7565 54.9595 34.5455 55.1705C34.3345 55.3815 34.0484 55.5 33.75 55.5C33.4516 55.5 33.1655 55.3815 32.9545 55.1705C32.7435 54.9595 32.625 54.6734 32.625 54.375V53.125C32.625 52.8266 32.7435 52.5405 32.9545 52.3295Z" fill="#F1F3F4" stroke="#1616A5" stroke-width="0.25"/>
<path d="M42.9545 52.3295C43.1655 52.1185 43.4516 52 43.75 52C44.0484 52 44.3345 52.1185 44.5455 52.3295C44.7565 52.5405 44.875 52.8266 44.875 53.125V54.375C44.875 54.6734 44.7565 54.9595 44.5455 55.1705C44.3345 55.3815 44.0484 55.5 43.75 55.5C43.4516 55.5 43.1655 55.3815 42.9545 55.1705C42.7435 54.9595 42.625 54.6734 42.625 54.375V53.125C42.625 52.8266 42.7435 52.5405 42.9545 52.3295Z" fill="#F1F3F4" stroke="#1616A5" stroke-width="0.25"/>
<path d="M52.9545 52.3295C53.1655 52.1185 53.4516 52 53.75 52C54.0484 52 54.3345 52.1185 54.5455 52.3295C54.7565 52.5405 54.875 52.8266 54.875 53.125V54.375C54.875 54.6734 54.7565 54.9595 54.5455 55.1705C54.3345 55.3815 54.0484 55.5 53.75 55.5C53.4516 55.5 53.1655 55.3815 52.9545 55.1705C52.7435 54.9595 52.625 54.6734 52.625 54.375V53.125C52.625 52.8266 52.7435 52.5405 52.9545 52.3295Z" fill="#F1F3F4" stroke="#1616A5" stroke-width="0.25"/>
<path d="M62.9545 52.3295C63.1655 52.1185 63.4516 52 63.75 52C64.0484 52 64.3345 52.1185 64.5455 52.3295C64.7565 52.5405 64.875 52.8266 64.875 53.125V54.375C64.875 54.6734 64.7565 54.9595 64.5455 55.1705C64.3345 55.3815 64.0484 55.5 63.75 55.5C63.4516 55.5 63.1655 55.3815 62.9545 55.1705C62.7435 54.9595 62.625 54.6734 62.625 54.375V53.125C62.625 52.8266 62.7435 52.5405 62.9545 52.3295Z" fill="#F1F3F4" stroke="#1616A5" stroke-width="0.25"/>
<path d="M32.9545 62.3295C33.1655 62.1185 33.4516 62 33.75 62C34.0484 62 34.3345 62.1185 34.5455 62.3295C34.7565 62.5405 34.875 62.8266 34.875 63.125V64.375C34.875 64.6734 34.7565 64.9595 34.5455 65.1705C34.3345 65.3815 34.0484 65.5 33.75 65.5C33.4516 65.5 33.1655 65.3815 32.9545 65.1705C32.7435 64.9595 32.625 64.6734 32.625 64.375V63.125C32.625 62.8266 32.7435 62.5405 32.9545 62.3295Z" fill="#F1F3F4" stroke="#1616A5" stroke-width="0.25"/>
<path d="M42.9545 62.3295C43.1655 62.1185 43.4516 62 43.75 62C44.0484 62 44.3345 62.1185 44.5455 62.3295C44.7565 62.5405 44.875 62.8266 44.875 63.125V64.375C44.875 64.6734 44.7565 64.9595 44.5455 65.1705C44.3345 65.3815 44.0484 65.5 43.75 65.5C43.4516 65.5 43.1655 65.3815 42.9545 65.1705C42.7435 64.9595 42.625 64.6734 42.625 64.375V63.125C42.625 62.8266 42.7435 62.5405 42.9545 62.3295Z" fill="#F1F3F4" stroke="#1616A5" stroke-width="0.25"/>
<path d="M52.9545 62.3295C53.1655 62.1185 53.4516 62 53.75 62C54.0484 62 54.3345 62.1185 54.5455 62.3295C54.7565 62.5405 54.875 62.8266 54.875 63.125V64.375C54.875 64.6734 54.7565 64.9595 54.5455 65.1705C54.3345 65.3815 54.0484 65.5 53.75 65.5C53.4516 65.5 53.1655 65.3815 52.9545 65.1705C52.7435 64.9595 52.625 64.6734 52.625 64.375V63.125C52.625 62.8266 52.7435 62.5405 52.9545 62.3295Z" fill="#F1F3F4" stroke="#1616A5" stroke-width="0.25"/>
<path d="M62.9545 62.3295C63.1655 62.1185 63.4516 62 63.75 62C64.0484 62 64.3345 62.1185 64.5455 62.3295C64.7565 62.5405 64.875 62.8266 64.875 63.125V64.375C64.875 64.6734 64.7565 64.9595 64.5455 65.1705C64.3345 65.3815 64.0484 65.5 63.75 65.5C63.4516 65.5 63.1655 65.3815 62.9545 65.1705C62.7435 64.9595 62.625 64.6734 62.625 64.375V63.125C62.625 62.8266 62.7435 62.5405 62.9545 62.3295Z" fill="#F1F3F4" stroke="#1616A5" stroke-width="0.25"/>
</svg>
