<svg width="80" height="80" viewBox="0 0 80 80" fill="none" xmlns="http://www.w3.org/2000/svg">
<path fill-rule="evenodd" clip-rule="evenodd" d="M76.5263 48.0347C75.2151 46.0347 72.3954 44.7962 69.4638 45.052C79.491 26.6416 66.3229 3.625 44.8505 3.625C22.3737 3.625 9.40774 28.59 21.3691 46.9472C20.1129 47.595 18.712 48.3306 17.1429 49.1625L16.4085 48.1014C15.9792 47.4856 15.3236 47.0647 14.585 46.9306C13.8464 46.7965 13.0847 46.9601 12.4663 47.3856L3.99758 53.2544C3.38263 53.6839 2.96248 54.3392 2.82874 55.0773C2.69501 55.8155 2.85854 56.5765 3.28367 57.1945L15.7304 75.1587C16.1597 75.7755 16.8159 76.197 17.5553 76.3309C18.2947 76.4648 19.0571 76.3003 19.6754 75.8733L28.1441 70.0045C29.9026 68.7847 29.5115 67.0066 28.4765 65.5122C28.8559 64.9428 29.2955 63.8801 30.113 64.1558L46.488 69.2269C53.8296 71.45 69.0049 58.1809 74.8051 54.0911C77.7443 52.1661 77.5688 49.6255 76.5254 48.0347H76.5263ZM66.7451 45.7475C65.8874 46.1241 65.1499 46.6484 64.3713 47.1591C65.6649 43.202 68.2276 40.3466 67.0946 38.2292C66.1541 36.4708 64.1701 39.1198 64.1701 31.7761C64.1701 29.4956 64.5834 29.0762 65.079 27.1447C65.5634 25.2937 65.0749 24.6203 64.5546 23.0098C64.1384 21.5212 64.3287 20.3903 63.3796 18.9694C62.5202 17.955 61.3084 17.7912 60.8316 16.4958C60.4193 14.9573 60.5155 12.4747 60.1523 10.5839C71.4188 18.7641 74.1629 34.2558 66.7451 45.747V45.7475ZM51.5745 6.48531C51.2757 8.01906 51.126 11.468 50.7648 12.368C49.9712 11.8087 49.2188 11.2016 48.4054 10.6602C45.7618 8.78906 42.9026 9.21719 44.1066 12.9984C44.7066 14.793 46.706 17.0167 47.3529 18.4578C45.014 19.8659 43.8321 19.4611 41.6529 22.342C40.4579 23.8681 39.0004 25.562 39.0004 27.5972C39.0004 28.1103 39.0899 28.6097 39.0865 29.1203C38.3295 28.7453 38.024 28.2945 37.4195 27.7869C35.7141 26.3548 32.357 26.7023 32.357 29.2442C32.357 33.0858 40.2207 36.5645 37.252 35.7458C35.7841 35.2912 29.2905 32.0658 28.9921 31.8112C27.7246 30.8487 26.942 29.7644 26.4941 28.23C23.4268 18.1423 27.0123 22.5894 26.3415 13.3423C29.5675 10.0734 33.6016 7.71695 38.0337 6.51255C42.4657 5.30815 47.1376 5.29875 51.5745 6.48531ZM24.4293 15.5048C24.4293 21.5783 21.5988 19.4267 24.6191 28.8744C25.184 30.765 26.1935 32.1683 27.7527 33.3652C28.218 33.7558 35.2577 37.2472 36.8432 37.6866C39.3616 38.3064 41.4382 35.8116 38.9327 33.9859C37.2609 32.7683 34.5954 31.1062 34.3234 29.1662C36.2223 27.9887 37.0505 31.2702 39.5043 31.2702C41.5323 31.2702 40.9809 28.6048 40.9809 27.6028C40.9809 26.188 42.3715 24.6422 43.2096 23.5667C45.4171 20.6292 46.9959 21.5198 48.9665 19.6316C50.556 17.893 46.7766 14.73 46.0105 12.4453C45.0154 9.47656 49.9555 15.5142 51.676 14.3252C53.2962 13.0219 53.0471 9.29016 53.4754 7.07016C54.9869 7.60241 56.4458 8.27383 57.8332 9.07578C58.2691 11.33 58.3909 15.2619 58.9485 17.1352C59.709 19.2652 60.7195 19.0375 61.8068 20.1805C62.3243 21.1195 62.3479 22.5377 62.6616 23.6109C63.0534 24.7841 63.5099 25.3169 63.1526 26.6481C62.6148 28.7353 62.1873 29.2839 62.1873 31.7314C62.1873 42.8239 67.531 36.4564 64.4998 41.8191C63.2301 44.1651 62.5174 46.3416 61.7721 48.8647L55.2859 53.1186C55.0873 52.0414 54.5753 51.0467 53.814 50.2592C55.1698 49.4752 56.3357 48.6186 57.3791 47.4311C57.9651 46.6419 57.9315 46.2 58.2095 45.3828C58.8438 43.96 60.2107 42.7664 58.914 41.0794C57.5998 39.8814 56.5679 40.125 55.1548 39.5111C53.7146 38.842 54.2631 37.0477 51.7363 36.6705C50.0504 36.4187 46.2691 34.2841 42.9046 36.9095C41.1685 38.3014 38.378 42.0752 40.5559 44.9328C33.0154 41.8234 31.5812 41.8014 23.1455 46.0406C16.9498 36.7337 17.4707 24.2681 24.4298 15.5055L24.4293 15.5048ZM45.1463 46.7341C44.2588 45.3364 41.6709 44.1023 41.6709 42.5345C41.6709 41.5234 43.6566 36.7319 48.1641 37.722C49.0723 37.9269 51.2641 38.4745 51.989 38.7803C52.8429 39.7619 52.6673 40.4878 54.2677 41.2811C55.2899 41.7509 56.5046 41.8337 57.4179 42.378C57.507 42.9281 56.6191 44.0469 56.3568 44.6814C56.1573 45.2319 56.156 45.7439 55.7979 46.2373C54.7532 47.3919 53.362 48.3325 51.9557 49.0006C49.8932 48.1598 47.3407 47.5456 45.1463 46.735V46.7341ZM18.542 74.2447C18.3563 74.3719 18.1279 74.4207 17.9065 74.3806C17.685 74.3404 17.4884 74.2146 17.3591 74.0303L4.91039 56.0662C4.78284 55.8805 4.73381 55.6519 4.77399 55.4302C4.81417 55.2085 4.9403 55.0117 5.12492 54.8825L13.5945 49.0137C13.7801 48.8863 14.0087 48.8373 14.2303 48.8776C14.4519 48.9179 14.6486 49.0441 14.7776 49.2287L27.2245 67.1936C27.3339 67.3841 27.3726 67.6072 27.3337 67.8235C27.2948 68.0397 27.1808 68.2353 27.0118 68.3758L18.542 74.2447ZM73.7185 52.4334C68.1504 56.4355 52.7432 69.0927 47.0748 67.3364L30.6988 62.2631C29.179 61.782 28.0973 62.5111 27.2613 63.7609L18.2779 50.8012C37.021 40.8877 30.807 44.7119 50.8701 50.7122C55.2763 52.03 53.3649 58.753 48.8512 57.467L35.0677 53.5645C33.8052 53.2052 33.2793 55.1208 34.5284 55.4742L48.3123 59.3759C49.7285 59.776 51.2456 59.5991 52.5318 58.884C53.818 58.1688 54.7689 56.9736 55.1765 55.5595L66.5637 48.0908C69.8212 45.9542 73.659 47.2736 74.8668 49.1205C76.167 51.0972 73.7191 52.433 73.7191 52.4322L73.7185 52.4334ZM21.0215 68.7342C21.0215 70.072 19.0073 70.0101 19.0073 68.6873C19.0073 67.3492 21.0215 67.408 21.0215 68.7342Z" fill="#FC7B12"/>
</svg>
