<svg width="79" height="80" viewBox="0 0 79 80" fill="none" xmlns="http://www.w3.org/2000/svg">
<path fill-rule="evenodd" clip-rule="evenodd" d="M60.8847 33.1473V39.9375C62.7664 39.5844 64.1758 38.1973 64.1758 36.5427C64.1758 34.888 62.7664 33.4994 60.8847 33.147V33.1473ZM59.0097 31.0984V24.308C57.1277 24.6603 55.7187 26.0481 55.7187 27.7031C55.7187 29.3581 57.128 30.7464 59.0097 31.0987V31.0984ZM59.9472 19.9241C60.1958 19.9241 60.4343 20.0228 60.6101 20.1987C60.7859 20.3745 60.8847 20.6129 60.8847 20.8616V22.4094C63.8066 22.8066 66.0506 25.0288 66.0506 27.7028C66.0506 27.9515 65.9519 28.1899 65.776 28.3657C65.6002 28.5415 65.3618 28.6403 65.1131 28.6403C64.8645 28.6403 64.626 28.5415 64.4502 28.3657C64.2744 28.1899 64.1756 27.9515 64.1756 27.7028C64.1756 26.0481 62.7662 24.6603 60.8845 24.308V31.2488C63.8064 31.6459 66.0505 33.8681 66.0505 36.543C66.0505 39.2178 63.8064 41.4392 60.8845 41.8364V43.3842C60.8845 43.6329 60.7858 43.8713 60.6099 44.0471C60.4341 44.2229 60.1957 44.3217 59.947 44.3217C59.6984 44.3217 59.4599 44.2229 59.2841 44.0471C59.1083 43.8713 59.0095 43.6329 59.0095 43.3842V41.8364C56.0877 41.4392 53.8434 39.2163 53.8434 36.543C53.8434 36.2943 53.9422 36.0559 54.118 35.8801C54.2938 35.7042 54.5323 35.6055 54.7809 35.6055C55.0296 35.6055 55.268 35.7042 55.4439 35.8801C55.6197 36.0559 55.7184 36.2943 55.7184 36.543C55.7184 38.1977 57.1277 39.5847 59.0094 39.9378V32.997C56.0875 32.6005 53.8433 30.3775 53.8433 27.7028C53.8433 25.0281 56.0875 22.8066 59.0094 22.4094V20.8616C59.0094 20.6129 59.1081 20.3745 59.284 20.1987C59.4598 20.0228 59.6982 19.9241 59.9469 19.9241H59.9472ZM8.33562 47.2147C8.33556 47.3381 8.3721 47.4588 8.44062 47.5614C8.50914 47.664 8.60655 47.7441 8.72055 47.7913C8.83455 47.8386 8.96001 47.851 9.08105 47.827C9.2021 47.8029 9.3133 47.7435 9.40059 47.6563C9.48787 47.569 9.54733 47.4579 9.57142 47.3368C9.59552 47.2158 9.58319 47.0903 9.53597 46.9763C9.48876 46.8623 9.40879 46.7648 9.30618 46.6963C9.20358 46.6277 9.08294 46.5911 8.95953 46.5911C8.79428 46.5916 8.63594 46.6575 8.51906 46.7743C8.40218 46.8911 8.33624 47.0494 8.33562 47.2147ZM6.46062 47.2147C6.46087 46.7205 6.60763 46.2375 6.88235 45.8268C7.15706 45.416 7.5474 45.096 8.00401 44.907C8.46062 44.7181 8.96299 44.6688 9.44762 44.7654C9.93225 44.8619 10.3774 45.1 10.7267 45.4495C11.076 45.799 11.3139 46.2442 11.4102 46.7289C11.5065 47.2136 11.457 47.7159 11.2678 48.1725C11.0786 48.629 10.7584 49.0191 10.3475 49.2937C9.93658 49.5682 9.45353 49.7147 8.95937 49.7147C8.2967 49.7139 7.66143 49.4502 7.19296 48.9815C6.7245 48.5128 6.46112 47.8774 6.46062 47.2147ZM2.2239 62.5505V44.5625C2.22419 44.3863 2.29436 44.2175 2.419 44.093C2.54364 43.9685 2.71258 43.8985 2.88875 43.8984H12.2725C12.4487 43.8985 12.6177 43.9684 12.7423 44.0929C12.867 44.2174 12.9372 44.3863 12.9375 44.5625V62.5505C12.9374 62.7268 12.8673 62.8959 12.7427 63.0207C12.618 63.1454 12.449 63.2156 12.2727 63.2159H2.88875C2.7124 63.2156 2.54337 63.1454 2.41873 63.0207C2.29409 62.8959 2.22403 62.7268 2.2239 62.5505ZM18.1645 4.84375C18.1654 4.05667 18.4785 3.30208 19.0351 2.74553C19.5916 2.18898 20.3462 1.87591 21.1333 1.875H62.2333C63.0204 1.87595 63.7749 2.18903 64.3315 2.74558C64.888 3.30212 65.2011 4.05668 65.202 4.84375V14.1719C62.4138 13.3558 59.4737 13.2004 56.6149 13.7181C53.7562 14.2358 51.0573 15.4123 48.7323 17.1543C46.4073 18.8964 44.52 21.1561 43.2201 23.7543C41.9203 26.3526 41.2435 29.2179 41.2435 32.1231C41.2435 35.0284 41.9203 37.8937 43.2201 40.4919C44.52 43.0902 46.4073 45.3499 48.7323 47.0919C51.0573 48.834 53.7562 50.0105 56.6149 50.5282C59.4737 51.0458 62.4138 50.8905 65.202 50.0744V68.4461H18.1645V64.7314C19.1744 64.9341 20.202 65.035 21.232 65.0328C23.3463 65.0078 25.4438 64.6546 27.4497 63.9859C27.7526 64.0771 28.0672 64.1232 28.3834 64.123H34.6705C35.528 64.1221 36.3502 63.7811 36.9566 63.1747C37.5629 62.5683 37.904 61.7461 37.9048 60.8886C37.9045 60.3158 37.7507 59.7535 37.4594 59.2603C37.9369 59.0653 38.367 58.7703 38.721 58.3951C39.0749 58.02 39.3443 57.5733 39.5112 57.0853C39.678 56.5972 39.7384 56.0791 39.6882 55.5658C39.638 55.0525 39.4785 54.5559 39.2203 54.1094C40.0445 53.9499 40.7875 53.5086 41.3218 52.8611C41.856 52.2136 42.1483 51.4003 42.1483 50.5608C42.1483 49.7213 41.856 48.908 41.3218 48.2605C40.7875 47.613 40.0445 47.1716 39.2203 47.0122C39.5379 46.4629 39.7052 45.8397 39.7054 45.2053C39.7057 44.5708 39.5387 43.9475 39.2215 43.398C38.9043 42.8486 38.4479 42.3924 37.8983 42.0753C37.3488 41.7583 36.7254 41.5916 36.0909 41.592H28.8358C28.933 41.3377 29.0214 41.0797 29.0989 40.8166C29.1246 40.7287 29.1375 40.6376 29.1372 40.5461L29.1059 35.6286C29.2749 33.7721 28.7519 31.9186 27.6373 30.4243C26.5227 28.9299 24.8953 27.9002 23.0677 27.5328C22.699 27.4587 22.3186 27.4673 21.9537 27.5581C21.5888 27.6488 21.2487 27.8195 20.9578 28.0577C20.6668 28.2959 20.4324 28.5957 20.2715 28.9354C20.1105 29.2752 20.0269 29.6465 20.0269 30.0225V37.1263C19.7159 38.1227 19.0909 39.1419 18.1644 40.1769L18.1645 4.84375ZM59.9469 15.2937C63.2753 15.2938 66.5291 16.2808 69.2966 18.13C72.0641 19.9793 74.2211 22.6076 75.4948 25.6827C76.7685 28.7578 77.1018 32.1416 76.4524 35.4061C75.803 38.6706 74.2002 41.6692 71.8466 44.0228C69.493 46.3764 66.4944 47.9792 63.2298 48.6285C59.9653 49.2779 56.5816 48.9446 53.5065 47.6708C50.4314 46.3971 47.803 44.24 45.9538 41.4725C44.1047 38.705 43.1177 35.4513 43.1177 32.1228C43.1227 27.661 44.8974 23.3834 48.0524 20.2284C51.2074 17.0734 55.4851 15.2988 59.9469 15.2937ZM65.2022 75.1562V70.3203H18.1645V75.1562C18.1653 75.9434 18.4783 76.6981 19.0349 77.2547C19.5915 77.8112 20.3461 78.1243 21.1333 78.125H62.2333C63.0204 78.1243 63.7751 77.8112 64.3317 77.2547C64.8883 76.6981 65.2014 75.9434 65.2022 75.1562ZM37.8306 45.2077C37.8302 44.7464 37.6467 44.3041 37.3206 43.9778C36.9945 43.6516 36.5522 43.4681 36.0909 43.4675H28.7637C28.5353 43.4675 28.309 43.5125 28.0979 43.5999C27.8869 43.6874 27.6951 43.8155 27.5335 43.9771C27.3719 44.1386 27.2438 44.3304 27.1563 44.5415C27.0689 44.7526 27.0239 44.9789 27.0239 45.2073C27.0239 45.4358 27.0689 45.6621 27.1563 45.8731C27.2438 46.0842 27.3719 46.276 27.5335 46.4376C27.6951 46.5992 27.8869 46.7273 28.0979 46.8148C28.309 46.9022 28.5353 46.9472 28.7637 46.9472H36.0909C36.5521 46.9465 36.9941 46.763 37.3202 46.4369C37.6463 46.1109 37.8299 45.6688 37.8306 45.2077ZM40.2734 50.5616C40.273 50.1003 40.0895 49.6581 39.7633 49.332C39.4371 49.0059 38.9948 48.8225 38.5336 48.8222H28.7637C28.5339 48.82 28.3059 48.8634 28.0929 48.9499C27.8799 49.0363 27.6862 49.1641 27.5228 49.3259C27.3595 49.4876 27.2299 49.6802 27.1414 49.8923C27.053 50.1045 27.0074 50.3321 27.0074 50.562C27.0074 50.7918 27.053 51.0194 27.1414 51.2316C27.2299 51.4437 27.3595 51.6363 27.5228 51.798C27.6862 51.9598 27.8799 52.0876 28.0929 52.174C28.3059 52.2605 28.5339 52.3039 28.7637 52.3017H38.5336C38.9949 52.3011 39.4371 52.1175 39.7633 51.7913C40.0894 51.4651 40.2729 51.0229 40.2734 50.5616ZM34.6705 59.5303H28.7642C28.6372 59.5305 28.5102 59.5237 28.3839 59.5097V59.5303C28.0234 59.5303 27.6776 59.6735 27.4227 59.9285C27.1677 60.1834 27.0245 60.5292 27.0245 60.8897C27.0245 61.2502 27.1677 61.596 27.4227 61.8509C27.6776 62.1058 28.0234 62.2491 28.3839 62.2491H34.6709C35.0315 62.2491 35.3772 62.1058 35.6322 61.8509C35.8871 61.596 36.0303 61.2502 36.0303 60.8897C36.0303 60.5292 35.8871 60.1834 35.6322 59.9285C35.3772 59.6735 35.0315 59.5303 34.6709 59.5303H34.6705ZM36.0909 54.1772H28.7637C28.5354 54.1772 28.3092 54.2222 28.0982 54.3096C27.8872 54.397 27.6955 54.5251 27.534 54.6865C27.3726 54.848 27.2445 55.0397 27.1571 55.2507C27.0697 55.4617 27.0247 55.6879 27.0247 55.9163C27.0247 56.1446 27.0697 56.3708 27.1571 56.5818C27.2445 56.7928 27.3726 56.9845 27.534 57.146C27.6955 57.3074 27.8872 57.4355 28.0982 57.5229C28.3092 57.6103 28.5354 57.6553 28.7637 57.6553H36.0909C36.3193 57.6553 36.5455 57.6103 36.7564 57.5229C36.9674 57.4355 37.1591 57.3074 37.3206 57.146C37.4821 56.9845 37.6102 56.7928 37.6976 56.5818C37.785 56.3708 37.83 56.1446 37.83 55.9163C37.83 55.6879 37.785 55.4617 37.6976 55.2507C37.6102 55.0397 37.4821 54.848 37.3206 54.6865C37.1591 54.5251 36.9674 54.397 36.7564 54.3096C36.5455 54.2222 36.3193 54.1772 36.0909 54.1772ZM27.2305 35.5938C27.2303 35.5612 27.2318 35.5288 27.235 35.4964C27.372 34.0946 26.9838 32.6918 26.1455 31.56C25.3072 30.4281 24.0785 29.6478 22.6977 29.3702C22.6012 29.3508 22.5016 29.3531 22.4061 29.377C22.3106 29.4008 22.2216 29.4455 22.1455 29.5079C22.0694 29.5703 22.0081 29.6488 21.966 29.7378C21.9239 29.8267 21.9021 29.9239 21.9022 30.0223V37.2631C21.9022 37.3507 21.8899 37.4378 21.8656 37.5219C21.1031 40.1781 18.7942 42.7431 14.8122 45.3603V61.4942C17.9505 63.2845 21.5041 63.6377 25.622 62.5659C25.2285 61.923 25.0733 61.1622 25.1837 60.4165C25.2941 59.6709 25.6631 58.9877 26.2261 58.4864C25.8758 58.1417 25.5996 57.729 25.4146 57.2738C25.2295 56.8185 25.1394 56.3302 25.1498 55.8389C25.1603 55.3475 25.271 54.8635 25.4752 54.4165C25.6795 53.9695 25.9729 53.5689 26.3375 53.2394C25.9632 52.901 25.664 52.4879 25.4593 52.0267C25.2545 51.5656 25.1487 51.0666 25.1487 50.562C25.1487 50.0575 25.2545 49.5585 25.4593 49.0973C25.664 48.6362 25.9632 48.2231 26.3375 47.8847C25.9836 47.5647 25.6967 47.1777 25.4934 46.7461C25.2901 46.3145 25.1743 45.8468 25.153 45.3702C25.1316 44.8936 25.2049 44.4174 25.3688 43.9693C25.5326 43.5212 25.7837 43.1101 26.1075 42.7597C26.6111 42.0429 27.0003 41.2522 27.2611 40.4159L27.2298 35.5942L27.2305 35.5938ZM0.34906 62.5505V44.5625C0.349805 43.8892 0.617637 43.2437 1.09378 42.7677C1.56992 42.2917 2.21547 42.024 2.88875 42.0234H12.2725C12.7229 42.0238 13.1651 42.144 13.5538 42.3716C13.9424 42.5992 14.2636 42.926 14.4844 43.3186C15.1414 42.8632 15.7429 42.4092 16.2889 41.9566V4.84375C16.2904 3.55958 16.8012 2.32844 17.7093 1.42039C18.6173 0.512344 19.8485 0.00152998 21.1327 0L62.2327 0C63.5169 0.00144745 64.748 0.512234 65.6561 1.4203C66.5642 2.32837 67.075 3.55955 67.0764 4.84375V14.8317C70.5011 16.2435 73.4293 18.6405 75.4899 21.7188C77.5504 24.797 78.6504 28.4179 78.6504 32.1221C78.6504 35.8264 77.5504 39.4472 75.4899 42.5254C73.4293 45.6037 70.5011 48.0007 67.0764 49.4125V75.1562C67.075 76.4405 66.5643 77.6717 65.6562 78.5798C64.7481 79.4879 63.5169 79.9986 62.2327 80H21.1333C19.8491 79.9986 18.6179 79.4878 17.7098 78.5797C16.8018 77.6716 16.291 76.4404 16.2895 75.1562V64.2156C15.7191 64.0176 15.1619 63.7832 14.6214 63.5139C14.4299 63.9796 14.1045 64.3781 13.6864 64.6587C13.2682 64.9394 12.7762 65.0896 12.2727 65.0905H2.88875C2.21527 65.0896 1.56963 64.8217 1.0935 64.3454C0.617368 63.8691 0.349639 63.2233 0.34906 62.5498V62.5505ZM45.7697 73.2863C46.0183 73.2863 46.2568 73.385 46.4326 73.5608C46.6084 73.7367 46.7072 73.9751 46.7072 74.2238C46.7072 74.4724 46.6084 74.7108 46.4326 74.8867C46.2568 75.0625 46.0183 75.1613 45.7697 75.1613H37.5969C37.3482 75.1613 37.1098 75.0625 36.934 74.8867C36.7581 74.7108 36.6594 74.4724 36.6594 74.2238C36.6594 73.9751 36.7581 73.7367 36.934 73.5608C37.1098 73.385 37.3482 73.2863 37.5969 73.2863H45.7697ZM36.1967 6.01656H36.2487C36.4974 6.01656 36.7358 5.91779 36.9117 5.74198C37.0875 5.56616 37.1862 5.3277 37.1862 5.07906C37.1862 4.83042 37.0875 4.59197 36.9117 4.41615C36.7358 4.24033 36.4974 4.14156 36.2487 4.14156H36.1967C35.948 4.14156 35.7094 4.24038 35.5335 4.41626C35.3576 4.59215 35.2588 4.83071 35.2588 5.07945C35.2588 5.3282 35.3576 5.56675 35.5335 5.74264C35.7094 5.91853 35.948 6.01734 36.1967 6.01734V6.01656ZM38.0594 5.07906C38.0594 5.3277 38.1581 5.56616 38.334 5.74198C38.5098 5.91779 38.7482 6.01656 38.9969 6.01656H47.1687C47.4174 6.01656 47.6558 5.91779 47.8317 5.74198C48.0075 5.56616 48.1062 5.3277 48.1062 5.07906C48.1062 4.83042 48.0075 4.59197 47.8317 4.41615C47.6558 4.24033 47.4174 4.14156 47.1687 4.14156H38.9969C38.7482 4.14156 38.5098 4.24033 38.334 4.41615C38.1581 4.59197 38.0594 4.83042 38.0594 5.07906Z" fill="#FC7B12"/>
</svg>
