<svg width="174" height="174" viewBox="0 0 174 174" fill="none" xmlns="http://www.w3.org/2000/svg">
<mask id="mask0_3089_6392" style="mask-type:alpha" maskUnits="userSpaceOnUse" x="0" y="0" width="174" height="174">
<g clip-path="url(#clip0_3089_6392)">
<path d="M167.111 38.3927L88.1081 0.253354C87.4077 -0.0844512 86.5921 -0.0844512 85.892 0.253354L6.88884 38.3927C6.00796 38.8178 5.44824 39.7099 5.44824 40.688V133.312C5.44824 134.29 6.00796 135.182 6.88884 135.607L85.8916 173.747C86.2417 173.916 86.6209 174 86.9999 174C87.3788 174 87.7577 173.916 88.1081 173.747L167.111 135.607C167.992 135.182 168.551 134.29 168.551 133.312V40.6883C168.551 39.7095 167.991 38.8181 167.111 38.3927ZM86.9999 5.37922L160.14 40.688L138.938 50.9234C138.804 50.8211 138.662 50.7266 138.507 50.6515L65.8633 15.583L86.9999 5.37922ZM60.107 18.4649L133.141 53.7223L118.183 60.9437L45.179 25.7005L60.107 18.4649ZM134.85 58.5576V85.251L120.878 91.9962V65.3028L134.85 58.5576ZM163.454 131.713L89.5487 167.39V80.4269L107.177 71.9165C108.445 71.3045 108.977 69.781 108.364 68.513C107.752 67.2457 106.229 66.7135 104.961 67.3259L86.9999 75.997L79.9325 72.585C78.6645 71.9723 77.141 72.5045 76.5289 73.7721C75.9169 75.0397 76.4484 76.5636 77.716 77.1756L84.451 80.4269V167.39L10.5459 131.712V44.7488L66.824 71.9176C67.1812 72.0902 67.5588 72.1718 67.9302 72.1718C68.8777 72.1718 69.7878 71.6409 70.2272 70.7305C70.8393 69.4629 70.3078 67.939 69.0401 67.327L13.8597 40.688L39.1798 28.4645L115.745 65.4269C115.756 65.4425 115.768 65.4565 115.78 65.4717V96.0573C115.78 96.9345 116.231 97.7498 116.974 98.2164C117.386 98.4753 117.857 98.6062 118.329 98.6062C118.707 98.6062 119.086 98.5222 119.437 98.3526L138.507 89.1466C139.387 88.7215 139.947 87.8297 139.947 86.8513V56.0972L163.454 44.7491V131.713Z" fill="white"/>
<path d="M167.111 38.3927L88.1081 0.253354C87.4077 -0.0844512 86.5921 -0.0844512 85.892 0.253354L6.88884 38.3927C6.00796 38.8178 5.44824 39.7099 5.44824 40.688V133.312C5.44824 134.29 6.00796 135.182 6.88884 135.607L85.8916 173.747C86.2417 173.916 86.6209 174 86.9999 174C87.3788 174 87.7577 173.916 88.1081 173.747L167.111 135.607C167.992 135.182 168.551 134.29 168.551 133.312V40.6883C168.551 39.7095 167.991 38.8181 167.111 38.3927ZM86.9999 5.37922L160.14 40.688L138.938 50.9234C138.804 50.8211 138.662 50.7266 138.507 50.6515L65.8633 15.583L86.9999 5.37922ZM60.107 18.4649L133.141 53.7223L118.183 60.9437L45.179 25.7005L60.107 18.4649ZM134.85 58.5576V85.251L120.878 91.9962V65.3028L134.85 58.5576ZM163.454 131.713L89.5487 167.39V80.4269L107.177 71.9165C108.445 71.3045 108.977 69.781 108.364 68.513C107.752 67.2457 106.229 66.7135 104.961 67.3259L86.9999 75.997L79.9325 72.585C78.6645 71.9723 77.141 72.5045 76.5289 73.7721C75.9169 75.0397 76.4484 76.5636 77.716 77.1756L84.451 80.4269V167.39L10.5459 131.712V44.7488L66.824 71.9176C67.1812 72.0902 67.5588 72.1718 67.9302 72.1718C68.8777 72.1718 69.7878 71.6409 70.2272 70.7305C70.8393 69.4629 70.3078 67.939 69.0401 67.327L13.8597 40.688L39.1798 28.4645L115.745 65.4269C115.756 65.4425 115.768 65.4565 115.78 65.4717V96.0573C115.78 96.9345 116.231 97.7498 116.974 98.2164C117.386 98.4753 117.857 98.6062 118.329 98.6062C118.707 98.6062 119.086 98.5222 119.437 98.3526L138.507 89.1466C139.387 88.7215 139.947 87.8297 139.947 86.8513V56.0972L163.454 44.7491V131.713Z" stroke="black"/>
<path d="M31.5805 121.828L19.9868 116.231C18.7185 115.618 17.1953 116.15 16.5832 117.418C15.9712 118.686 16.5027 120.21 17.7703 120.822L29.3641 126.418C29.7212 126.591 30.0988 126.673 30.4703 126.673C31.4177 126.673 32.3278 126.142 32.7673 125.231C33.3797 123.963 32.8481 122.44 31.5805 121.828Z" fill="white"/>
<path d="M31.5805 121.828L19.9868 116.231C18.7185 115.618 17.1953 116.15 16.5832 117.418C15.9712 118.686 16.5027 120.21 17.7703 120.822L29.3641 126.418C29.7212 126.591 30.0988 126.673 30.4703 126.673C31.4177 126.673 32.3278 126.142 32.7673 125.231C33.3797 123.963 32.8481 122.44 31.5805 121.828Z" stroke="black"/>
<path d="M42.2505 114.881L20.0027 104.141C18.7347 103.529 17.2112 104.06 16.5991 105.328C15.9874 106.596 16.5189 108.12 17.7865 108.732L40.0344 119.472C40.3916 119.645 40.7691 119.726 41.1406 119.726C42.0881 119.726 42.9982 119.196 43.4376 118.285C44.0497 117.017 43.5181 115.493 42.2505 114.881Z" fill="white"/>
<path d="M42.2505 114.881L20.0027 104.141C18.7347 103.529 17.2112 104.06 16.5991 105.328C15.9874 106.596 16.5189 108.12 17.7865 108.732L40.0344 119.472C40.3916 119.645 40.7691 119.726 41.1406 119.726C42.0881 119.726 42.9982 119.196 43.4376 118.285C44.0497 117.017 43.5181 115.493 42.2505 114.881Z" stroke="black"/>
</g>
</mask>
<g mask="url(#mask0_3089_6392)">
<rect width="174" height="174" fill="url(#paint0_linear_3089_6392)"/>
</g>
<defs>
<linearGradient id="paint0_linear_3089_6392" x1="0" y1="0" x2="177" y2="178.5" gradientUnits="userSpaceOnUse">
<stop stop-color="#1788D6"/>
<stop offset="1" stop-color="#E48A36"/>
</linearGradient>
<clipPath id="clip0_3089_6392">
<rect width="174" height="174" fill="white"/>
</clipPath>
</defs>
</svg>
