<svg width="227" height="62" viewBox="0 0 227 62" fill="none" xmlns="http://www.w3.org/2000/svg">
<g clip-path="url(#clip0_2841_732)">
<mask id="mask0_2841_732" style="mask-type:luminance" maskUnits="userSpaceOnUse" x="0" y="0" width="227" height="62">
<path d="M227 0H0V62H227V0Z" fill="white"/>
</mask>
<g mask="url(#mask0_2841_732)">
<path fill-rule="evenodd" clip-rule="evenodd" d="M24.4164 62.0013C24.1491 61.3968 23.7703 60.8372 23.3471 60.3445C22.9684 59.9189 22.5451 59.4937 22.0996 59.1577C21.81 58.934 21.4758 58.7099 21.1417 58.5084C20.9412 58.3965 20.8298 58.3291 20.5848 58.2621C19.3596 57.8591 18.3571 57.389 17.2432 56.7619C17.065 56.6723 16.9091 56.5604 16.7309 56.4486C16.1963 56.1126 15.7062 55.7318 15.2161 55.3288C15.1715 55.284 15.1493 55.284 15.1047 55.2391L14.7705 54.9484C14.4141 54.6573 13.6122 53.7616 13.3225 53.3808C12.9216 52.8211 12.5206 52.2837 12.2087 51.657C11.9637 51.1643 11.4513 50.0672 11.4513 49.5967C11.3399 49.5967 11.2731 49.6864 11.2063 49.7312L9.58008 50.8732C9.58008 49.4849 9.91419 47.8729 10.3598 46.5964C10.7384 45.5667 11.184 44.5814 11.7632 43.641C11.8077 43.5513 11.83 43.5065 11.8746 43.4395C13.4562 58.4862 35.332 58.2399 36.8468 43.4395C36.8914 43.5065 36.9136 43.5513 36.9804 43.641C37.5374 44.5814 38.0052 45.5441 38.3839 46.5964C38.8294 47.8729 39.1636 49.4849 39.1636 50.8732L37.5374 49.7312C37.5374 49.7312 37.4037 49.5967 37.2923 49.5967C37.2923 50.0672 36.78 51.1643 36.5349 51.657C36.223 52.2837 35.8444 52.8433 35.4211 53.3808C35.1315 53.7616 34.3295 54.6573 33.9731 54.9484L33.639 55.2391C33.639 55.2391 33.5721 55.284 33.5276 55.3288C33.0375 55.7318 32.5474 56.0904 32.0127 56.4486C31.8345 56.5604 31.6786 56.6501 31.5004 56.7619C30.3865 57.389 29.3841 57.8369 28.1589 58.2621C27.9138 58.3517 27.8024 58.3965 27.602 58.5084C27.2678 58.6877 26.9336 58.9114 26.6441 59.1577C26.1985 59.5159 25.7752 59.9189 25.3966 60.3445C24.9733 60.8145 24.5946 61.3968 24.3273 62.0013H24.4164Z" fill="#F58345"/>
<path d="M19.6935 39.4982C19.4708 39.9012 19.2925 40.349 19.1589 40.7745C19.0475 41.1999 18.9807 41.6701 18.9807 42.1626C18.9807 43.6627 19.5821 45.0288 20.5623 46.0137C21.5425 46.999 22.9014 47.6035 24.3939 47.6035C25.8865 47.6035 27.2453 46.999 28.2255 46.0137C29.2057 45.0288 29.8072 43.6627 29.8072 42.1626C29.8072 41.6701 29.7403 41.1999 29.629 40.7745C29.5176 40.3266 29.3393 39.8789 29.1166 39.4982L24.3939 31.0569L19.6713 39.4982H19.6935ZM16.8866 17.6L3.89931 39.9012C3.32012 40.9088 2.02806 41.2447 1.02561 40.6625C0.0231587 40.0804 -0.310993 38.7817 0.268202 37.7741L14.5699 13.2339C14.4362 12.8756 14.3026 12.495 14.2135 12.1143C14.013 11.3082 13.9016 10.5022 13.9016 9.67371C13.9016 7.00922 14.9709 4.59101 16.7307 2.82214C18.4683 1.07566 20.8742 -0.0214844 23.5474 -0.0214844C25.5746 -0.0214844 27.4459 0.605456 29.0052 1.68021C30.6091 2.77736 31.8566 4.3671 32.5472 6.20313C32.9705 7.30028 32.4136 8.50941 31.322 8.93482C30.2304 9.36023 29.0275 8.80047 28.6042 7.70332C28.2033 6.65096 27.5127 5.77772 26.5993 5.15077C25.7305 4.54623 24.6835 4.21038 23.5251 4.21038C22.0326 4.21038 20.6737 4.81492 19.6935 5.80009C18.7134 6.78531 18.1119 8.15115 18.1119 9.65134C18.1119 10.1439 18.1787 10.6141 18.2901 11.0396C18.4015 11.4426 18.5574 11.8456 18.7356 12.2039C18.7579 12.2486 18.7802 12.2934 18.8025 12.3382L24.4162 22.3917L30.0299 12.3382C30.6091 11.3306 31.8789 10.95 32.9036 11.5322C33.2601 11.7337 33.5496 12.0247 33.7279 12.383C33.817 12.4725 33.8838 12.5845 33.9507 12.6965L48.5415 37.7517C49.1207 38.7593 48.7869 40.058 47.7842 40.6401C46.7819 41.2223 45.49 40.8864 44.9108 39.8788L31.9235 17.5777L26.8221 26.7131L32.7922 37.4159C33.1932 38.1324 33.5051 38.916 33.7056 39.6997C33.9061 40.5058 34.0175 41.3118 34.0175 42.1404C34.0175 44.8047 32.9482 47.2231 31.1883 48.9918C29.4508 50.7383 27.0448 51.8354 24.3716 51.8354C21.6985 51.8354 19.3148 50.7609 17.555 48.9918C15.8174 47.2453 14.7258 44.8273 14.7258 42.1404C14.7258 41.3118 14.8372 40.4834 15.0377 39.6997C15.2605 38.8713 15.5723 38.11 15.951 37.4159L21.9212 26.7131L16.8198 17.5777L16.8866 17.6Z" fill="white"/>
<path d="M62.4203 1.6582L62.9769 31.0125L62.4203 60.3445H61.5957L61.0391 31.0125L61.5957 1.6582H62.4203Z" fill="#C9CBCC"/>
<path d="M76.5664 40.7978V3.562H84.6975L104.724 32.7148L124.796 3.562H133.105V40.7978H126.355V13.0781L107.108 40.7978H102.563L83.3163 13.0781V40.7978H76.5664ZM187.014 26.9156H192.539L192.428 28.3038V28.5949H192.406V28.9531H192.383C192.383 29.3114 192.361 29.58 192.339 29.7592C192.339 29.8935 192.339 30.0502 192.339 30.2518C192.339 31.9311 192.829 33.073 193.832 33.6776C194.411 34.0134 195.279 34.2821 196.438 34.4836C197.685 34.6852 199.244 34.7747 201.138 34.7747H210.138C212.41 34.7747 214.282 34.6628 215.752 34.4388C217.111 34.2373 218.046 33.9463 218.603 33.588C219.093 33.2745 219.45 32.8043 219.717 32.155C220.007 31.4161 220.162 30.4981 220.162 29.3338C220.162 28.371 220.051 27.5873 219.851 26.9827C219.672 26.4677 219.45 26.0871 219.138 25.8408C218.804 25.5721 218.247 25.3482 217.445 25.1915C216.509 25.0123 215.306 24.9004 213.858 24.9004H199.289C196.906 24.9004 194.878 24.6989 193.141 24.3182C191.336 23.9152 189.911 23.3106 188.819 22.4598C187.705 21.5866 186.859 20.4222 186.302 18.9668C185.789 17.5786 185.522 15.9441 185.522 14.0409C185.522 10.0105 186.769 7.16692 189.264 5.46523C190.913 4.41287 192.339 4.00982 194.255 3.65156C196.282 3.27092 198.755 3.0918 201.628 3.0918H209.447C211.563 3.0918 213.413 3.13658 214.972 3.22614C220.653 3.38287 225.086 4.92784 225.91 10.9733C226.021 11.7346 226.066 12.5631 226.066 13.4363V15.7202H219.361V13.9065C219.361 12.9213 219.249 12.0929 219.026 11.466C218.848 10.9509 218.581 10.5703 218.269 10.324C217.89 10.0329 217.222 9.83142 216.264 9.65229C215.195 9.47316 213.813 9.38359 212.12 9.38359H200.359C198.621 9.38359 197.195 9.47316 196.081 9.6747C195.057 9.85379 194.299 10.1001 193.832 10.4136C193.431 10.6823 193.118 11.0629 192.918 11.5779C192.673 12.1601 192.562 12.9437 192.562 13.8617C192.562 14.7798 192.673 15.6082 192.918 16.2128C193.118 16.7278 193.431 17.1308 193.809 17.3995C194.255 17.713 195.012 17.9592 196.081 18.1384C197.262 18.3399 198.777 18.4295 200.626 18.4295H213.012C214.348 18.4295 215.551 18.4518 216.62 18.519C217.667 18.5862 218.581 18.6534 219.316 18.7877C220.073 18.8997 220.764 19.0564 221.365 19.2579C221.989 19.4594 222.546 19.7058 223.058 20.0192C223.771 20.4446 224.395 20.9596 224.908 21.5418C225.42 22.1463 225.843 22.8181 226.133 23.5793C226.422 24.3182 226.645 25.1915 226.779 26.2215C226.912 27.2066 226.979 28.3262 226.979 29.5801C226.979 31.64 226.689 33.4313 226.11 34.9314C225.509 36.5212 224.595 37.7527 223.348 38.6707C222.167 39.544 220.563 40.1933 218.514 40.5963C216.554 40.9994 214.192 41.2009 211.452 41.2009H199.757C197.351 41.2009 195.279 41.0217 193.542 40.6411C191.715 40.2605 190.245 39.6559 189.109 38.8498C187.928 37.999 187.037 36.8795 186.458 35.4912C185.901 34.1478 185.611 32.5804 185.611 30.7892C185.611 30.6548 185.611 30.3414 185.611 29.8712C185.611 29.4905 185.634 29.0427 185.656 28.5725C185.656 28.3486 185.656 28.1471 185.7 27.9679L185.879 26.8932H186.97L187.014 26.9156ZM167.121 9.89857H146.671V20.6238H167.121C168.614 20.6238 169.817 20.5342 170.753 20.3551C171.577 20.1983 172.156 19.9968 172.512 19.7281C173.181 19.2131 173.515 18.004 173.515 16.0784V14.4215C173.515 12.5183 173.181 11.3092 172.512 10.7942C172.156 10.5255 171.577 10.3016 170.753 10.1449C169.817 9.96576 168.614 9.8762 167.144 9.8762L167.121 9.89857ZM139.833 40.7978V3.562H165.74C168.525 3.562 170.864 3.71874 172.758 4.00982C174.762 4.3233 176.277 4.83828 177.324 5.51002C178.638 6.42803 179.195 7.07736 179.819 8.59992C180.332 9.83142 180.599 11.3316 180.599 13.0781V17.2428C180.599 19.7058 180.042 21.5642 178.951 22.7957C178.483 23.3106 177.904 23.7585 177.19 24.1615C177.681 24.4973 178.126 24.9004 178.505 25.3482C179.084 26.0423 179.53 26.8708 179.819 27.8336C180.109 28.7516 180.242 29.7816 180.242 30.9011V40.7754H173.404V31.752C173.404 29.8935 173.069 28.6844 172.401 28.1023C172.089 27.8336 171.465 27.6321 170.552 27.4529C169.483 27.2514 168.08 27.1618 166.364 27.1618H146.716V40.753H139.877L139.833 40.7978Z" fill="white"/>
<path d="M76.9221 54.7015H78.6818V55.2612C78.6818 55.5524 78.7043 55.8209 78.7264 56.0224C78.7711 56.3806 78.7932 56.5821 79.1275 56.7165C79.3056 56.7836 79.7066 56.851 80.3305 56.8958C80.9985 56.9406 81.8898 56.9629 83.0257 56.9629C83.8502 56.9629 84.5408 56.9628 85.12 56.8958C85.6992 56.851 86.167 56.8062 86.5012 56.7165C86.7683 56.6495 86.969 56.5372 87.1025 56.3357C87.236 56.112 87.3253 55.7987 87.3253 55.3957C87.3253 55.1716 87.3253 54.9701 87.2807 54.8134C87.1918 54.2089 86.9022 54.097 86.3451 54.0074C86.167 53.9848 85.9441 53.9626 85.7213 53.9626C85.4764 53.9626 84.9418 53.9626 84.1398 53.9626H80.8871C80.4193 53.9626 79.9962 53.9399 79.6173 53.8951C79.2389 53.8507 78.8825 53.7833 78.5929 53.6936C78.2808 53.6044 78.0137 53.4699 77.7909 53.3132C77.546 53.1566 77.3453 52.9773 77.1671 52.7536C76.9668 52.4846 76.8107 52.1713 76.7214 51.7905C76.6325 51.4323 76.5879 51.0071 76.5879 50.5144C76.5879 49.977 76.6772 49.5069 76.8107 49.1035C76.9668 48.6783 77.2117 48.3423 77.5234 48.096C77.6795 47.962 77.8356 47.8723 77.9912 47.76C78.1473 47.6708 78.3254 47.5812 78.5262 47.5141C78.7043 47.4467 78.9272 47.4019 79.1721 47.357C79.417 47.3126 79.6845 47.2678 79.9962 47.223C80.4865 47.1555 81.0211 47.1107 81.6224 47.0885C82.2241 47.0663 82.8475 47.0437 83.516 47.0437C84.7858 47.0437 85.766 47.1107 86.4787 47.2452C86.835 47.3126 87.1693 47.4019 87.4589 47.5141C87.7484 47.626 88.0159 47.7827 88.2162 47.962C88.3944 48.1186 88.5505 48.2753 88.6619 48.432C88.7954 48.6113 88.8847 48.7902 88.9515 48.9917C89.0182 49.1932 89.0629 49.4173 89.1075 49.7084C89.1296 49.977 89.1522 50.2903 89.1743 50.6711V51.0071H87.0578V50.5144C87.0578 50.2455 87.0578 50.044 87.0136 49.8873C86.969 49.6188 86.8797 49.4843 86.6347 49.3498C86.4787 49.2606 86.2558 49.1932 86.0109 49.1261C85.7438 49.0591 85.3871 49.0143 84.9639 48.9917C84.5408 48.9695 84.0505 48.9468 83.4713 48.9468C82.7586 48.9468 82.1348 48.9468 81.6224 48.9917C81.0878 49.0143 80.6647 49.0591 80.3079 49.1035C79.9741 49.1483 79.6845 49.2158 79.4617 49.305C79.1275 49.4173 78.9493 49.5513 78.8379 49.8873C78.7932 50.044 78.7711 50.2681 78.7711 50.5144C78.7711 50.7608 78.7711 50.9396 78.8157 51.0963C78.8825 51.4993 79.0382 51.6338 79.417 51.7456C79.6399 51.8131 79.9962 51.8801 80.464 51.9249C80.9318 51.9698 81.5335 51.992 82.2241 51.992H85.8327C86.2558 51.992 86.6126 52.0368 86.9243 52.0594C88.1941 52.2161 89.0629 52.798 89.3971 54.0522C89.486 54.4104 89.5306 54.8134 89.5306 55.2612C89.5306 55.6864 89.486 56.0672 89.4192 56.4254C89.2632 57.1866 88.9293 57.7467 88.2388 58.1497C87.9045 58.3512 87.4814 58.5078 87.0136 58.5975C86.5454 58.6871 85.8995 58.7542 85.0975 58.8212C84.2733 58.866 83.2932 58.8886 82.1348 58.8886C81.5335 58.8886 80.9985 58.8886 80.5308 58.866C80.063 58.866 79.6845 58.8212 79.3949 58.7763C79.0828 58.7315 78.8157 58.6871 78.5704 58.6197C78.3254 58.5526 78.1026 58.463 77.9023 58.3511C77.6574 58.2167 77.4788 58.06 77.3006 57.9033C77.1224 57.724 77.011 57.5225 76.8996 57.321C76.8107 57.1195 76.744 56.851 76.6993 56.5598C76.6547 56.2687 76.6325 55.9327 76.6325 55.5746V54.7464H76.9668L76.9221 54.7015ZM91.1121 47.0437H92.9169V52.8428C92.9169 54.4552 92.9169 55.4179 92.9611 55.7312C93.0283 56.4702 93.34 56.6495 94.0306 56.7387C94.4095 56.7836 94.8772 56.8284 95.4118 56.851C95.9463 56.851 96.5702 56.8958 97.3054 56.8958C98.3077 56.8958 99.1318 56.8958 99.8003 56.851C100.468 56.8284 101.003 56.7836 101.36 56.7165C101.56 56.6943 101.716 56.6495 101.85 56.5821C102.072 56.4702 102.184 56.3584 102.251 56.1342C102.295 56.0002 102.317 55.8209 102.34 55.6194C102.34 55.3957 102.362 55.0597 102.385 54.6119C102.385 54.1414 102.385 53.5596 102.407 52.8654V47.0663H104.545V52.8654C104.545 53.6044 104.545 54.2311 104.523 54.7464C104.523 55.2834 104.501 55.6864 104.478 55.9776C104.412 56.4928 104.345 56.8732 104.1 57.3436C103.899 57.724 103.61 58.0378 103.253 58.2615C103.03 58.396 102.808 58.4856 102.563 58.5749C102.317 58.6423 102.05 58.7093 101.761 58.7315C101.493 58.7541 101.003 58.799 100.335 58.8212C99.6668 58.8438 98.798 58.866 97.7285 58.8886L95.4785 58.8438C94.8994 58.8438 94.543 58.8438 94.3648 58.8212C94.1641 58.8212 93.9638 58.799 93.7631 58.7541C92.0702 58.53 91.09 57.7466 90.934 55.9327C90.934 55.6864 90.8897 55.3282 90.8897 54.8134C90.8897 54.2985 90.8672 53.6492 90.8451 52.8654V47.0663H91.1793L91.1121 47.0437ZM106.171 47.0437C109.357 47.0437 112.565 46.9767 115.728 47.1107C116.285 47.1107 116.686 47.1555 116.887 47.1782C117.087 47.2004 117.288 47.2678 117.466 47.3348C117.644 47.4019 117.822 47.4915 118 47.626C118.179 47.7378 118.312 47.8723 118.446 48.029C118.58 48.1857 118.691 48.3423 118.758 48.5216C118.891 48.7902 118.981 49.1261 119.047 49.5291C119.114 49.9099 119.137 50.3578 119.137 50.85C119.137 51.6338 119.07 52.2609 118.936 52.7087C118.669 53.5818 118.022 54.2311 117.154 54.4774C116.976 54.5222 116.753 54.5671 116.486 54.5893C116.241 54.6119 115.929 54.6341 115.572 54.6567H113.5H108.288V58.8438H106.149V47.0437H106.171ZM108.31 52.6861H113.523C114.191 52.6861 114.726 52.6861 115.149 52.6861C115.55 52.6861 115.84 52.6639 116.018 52.6413C116.151 52.6413 116.285 52.5965 116.396 52.5521C116.508 52.5072 116.597 52.4398 116.686 52.3728C116.797 52.2831 116.887 52.1264 116.931 51.9471C116.953 51.8353 116.976 51.7008 116.998 51.5219C116.998 51.3426 117.02 51.1189 117.02 50.8726C117.02 50.5815 117.02 50.3578 117.02 50.1563C117.02 49.9543 116.998 49.8203 116.976 49.7306C116.909 49.4395 116.753 49.305 116.486 49.1932C116.374 49.1483 116.241 49.1261 116.107 49.1035C115.817 49.0591 115.528 49.0591 115.238 49.0591C114.815 49.0591 114.258 49.0365 113.567 49.0143H108.355V52.7087L108.31 52.6861ZM120.295 58.5078V47.0437C123.48 47.0437 126.688 46.9767 129.852 47.1107C130.409 47.1107 130.81 47.1555 131.01 47.1782C131.211 47.2004 131.411 47.2678 131.589 47.3348C131.767 47.4019 131.945 47.4915 132.124 47.626C132.302 47.7378 132.436 47.8723 132.569 48.029C132.703 48.1857 132.814 48.3423 132.881 48.5216C133.015 48.7902 133.104 49.1261 133.171 49.5291C133.238 49.9099 133.26 50.3578 133.26 50.85C133.26 51.6338 133.193 52.2609 133.06 52.7087C132.993 52.9551 132.881 53.1788 132.77 53.3581C132.659 53.5596 132.502 53.7384 132.324 53.8729C132.168 54.0074 131.99 54.1414 131.812 54.2311C131.634 54.3207 131.456 54.4104 131.255 54.4552C131.077 54.5 130.854 54.5449 130.587 54.5671C130.342 54.5893 130.03 54.6119 129.673 54.6341H127.602H122.389V58.8212H120.25V58.4856L120.295 58.5078ZM122.434 52.6861H127.646C128.315 52.6861 128.849 52.6861 129.272 52.6861C129.673 52.6861 129.963 52.6639 130.141 52.6413C130.275 52.6413 130.409 52.5965 130.52 52.5521C130.81 52.4398 130.965 52.2609 131.055 51.9698C131.077 51.8579 131.099 51.7234 131.121 51.5441C131.121 51.3653 131.144 51.1411 131.144 50.8948C131.144 50.6037 131.144 50.38 131.144 50.1785C131.144 49.977 131.121 49.8425 131.099 49.7528C131.032 49.4621 130.876 49.3276 130.609 49.2158C130.475 49.171 130.364 49.1483 130.23 49.1261C130.074 49.1261 129.785 49.0813 129.362 49.0813C128.938 49.0813 128.381 49.0591 127.691 49.0365H122.478V52.7309L122.434 52.6861ZM134.73 47.0437H136.535V56.8732H145.267V58.8212H134.396V47.0215H134.73V47.0437ZM142.861 47.0437H145L150.213 52.2609L155.247 47.0437H158.232L151.282 54.097V58.8438H149.143V54.097L142.082 47.0437H142.861ZM174.516 54.3878H176.298V54.7237C176.254 55.2386 176.232 55.6864 176.21 56.0224C176.187 56.3806 176.143 56.6717 176.098 56.8732C175.875 57.8807 175.185 58.4408 174.205 58.6423C173.804 58.7315 173.269 58.7764 172.601 58.8212C171.932 58.866 171.108 58.8886 170.15 58.8886C168.925 58.8886 167.878 58.866 167.032 58.8212C166.185 58.7764 165.517 58.7093 165.071 58.6197C164.603 58.53 164.224 58.3511 163.89 58.1048C163.556 57.8585 163.311 57.5225 163.155 57.1195C162.999 56.7387 162.888 56.2017 162.799 55.5297C162.643 54.0522 162.643 52.3057 162.777 50.8056C162.821 50.1336 162.91 49.5962 163.021 49.171C163.178 48.6335 163.445 48.1857 163.823 47.8723C164.202 47.5585 164.692 47.357 165.294 47.2678C165.829 47.1782 166.474 47.1333 167.254 47.0885C168.034 47.0437 168.925 47.0215 169.905 47.0215C170.886 47.0215 171.687 47.0437 172.4 47.0885C173.091 47.1333 173.67 47.2004 174.093 47.3126C174.316 47.357 174.539 47.4467 174.739 47.5363C174.94 47.6482 175.14 47.76 175.296 47.9171C175.474 48.0738 175.608 48.2527 175.719 48.432C175.831 48.6113 175.92 48.8128 175.965 49.0365C176.009 49.2158 176.054 49.4843 176.076 49.8203C176.098 50.1336 176.12 50.5593 176.12 51.0515V51.3875H174.116C174.116 51.3204 174.116 50.7381 174.116 50.6711C174.116 50.4248 174.116 50.2007 174.071 50.044C174.026 49.6636 173.937 49.4843 173.559 49.3276C173.314 49.238 172.89 49.1483 172.289 49.1035C171.665 49.0591 170.841 49.0143 169.861 49.0143C169.125 49.0143 168.479 49.0143 167.967 49.0365C167.433 49.0365 166.987 49.0813 166.631 49.1261C166.274 49.171 166.007 49.2158 165.784 49.2828C165.584 49.3276 165.45 49.3947 165.383 49.4395C165.316 49.4843 165.249 49.574 165.205 49.7084C165.138 49.8651 165.071 50.0666 165.026 50.3129C164.982 50.5593 164.938 50.8726 164.915 51.2534C164.848 52.2831 164.893 53.2684 164.915 54.2759C164.96 54.9923 164.982 55.4627 165.026 55.7312C165.049 55.9105 165.093 56.0672 165.138 56.2017C165.183 56.3135 165.249 56.4032 165.316 56.4702C165.383 56.5372 165.494 56.5821 165.606 56.6269C165.739 56.6717 165.918 56.7165 166.118 56.7387C166.541 56.7836 167.032 56.8062 167.633 56.8284C168.212 56.8284 168.881 56.851 169.683 56.851H170.529L171.554 56.8062L172.489 56.7613C172.734 56.7613 172.89 56.7387 173.002 56.7165C173.18 56.6943 173.358 56.6717 173.492 56.6269C174.049 56.4702 174.093 56.2687 174.138 55.709C174.16 55.4401 174.182 55.0819 174.182 54.6567V54.3429H174.516V54.3878ZM177.902 47.0437H179.707V51.7456H189.241V47.0437H191.38V58.8438H189.241V53.7162H179.707V58.8438H177.568V47.0437H177.902ZM204.234 56.4928H195.657L194.343 58.8438H191.915L198.553 47.0437H201.293C203.498 50.9845 205.704 54.903 207.932 58.8438H205.548L204.234 56.4928ZM203.164 54.5222L200.09 48.9917H199.867L196.748 54.5222H203.164ZM210.583 47.0437V58.8438H208.444V47.0437H210.583ZM215.261 47.0437L224.84 56.6943V47.0437H226.978V58.8438H224.015L214.481 49.238V58.8438H212.342V47.0437H215.261Z" fill="#A8A8A8"/>
</g>
</g>
<defs>
<clipPath id="clip0_2841_732">
<rect width="227" height="62" fill="white"/>
</clipPath>
</defs>
</svg>
