<svg width="67" height="93" viewBox="0 0 67 93" fill="none" xmlns="http://www.w3.org/2000/svg">
<g id="Vector">
<path d="M51.4225 36.3058L48.0725 32.7288C47.4025 32.0135 46.3975 32.0135 45.7275 32.7288L42.3775 36.3058C41.7075 37.0212 41.7075 38.0942 42.3775 38.8096C43.0475 39.525 44.0525 39.525 44.7225 38.8096L45.225 38.2731C44.89 44.175 40.7025 49.0038 35.175 49.8981V37.5577H36.85C37.855 37.5577 38.525 36.8423 38.525 35.7692C38.525 34.6962 37.855 33.9808 36.85 33.9808H35.175V30.225C38.6925 29.1519 40.87 25.3962 40.0325 21.4615C39.195 17.5269 35.51 15.3808 31.825 16.275C28.3075 17.3481 26.13 21.1038 26.9675 25.0385C27.6375 27.5423 29.48 29.5096 31.825 30.225V33.9808H30.15C29.145 33.9808 28.475 34.6962 28.475 35.7692C28.475 36.8423 29.145 37.5577 30.15 37.5577H31.825V49.8981C26.2975 49.0038 22.11 44.175 21.775 38.2731L22.2775 38.8096C22.9475 39.525 23.9525 39.525 24.6225 38.8096C25.2925 38.0942 25.2925 37.0212 24.6225 36.3058L21.2725 32.7288C20.6025 32.0135 19.5975 32.0135 18.9275 32.7288L15.5775 36.3058C14.9075 37.0212 14.9075 38.0942 15.5775 38.8096C16.2475 39.525 17.2525 39.525 17.9225 38.8096L18.425 38.2731C18.76 46.1423 24.455 52.5808 31.825 53.475V55.4423C31.825 56.5154 32.495 57.2308 33.5 57.2308C34.505 57.2308 35.175 56.5154 35.175 55.4423V53.475C42.545 52.5808 48.24 46.1423 48.575 38.2731L49.0775 38.8096C49.7475 39.525 50.7525 39.525 51.4225 38.8096C52.0925 38.0942 52.0925 37.0212 51.4225 36.3058ZM30.15 23.25C30.15 21.2827 31.6575 19.6731 33.5 19.6731C35.3425 19.6731 36.85 21.2827 36.85 23.25C36.85 25.2173 35.3425 26.8269 33.5 26.8269C31.6575 26.8269 30.15 25.2173 30.15 23.25Z" fill="url(#paint0_linear_0_2239)"/>
<path d="M33.5 64.3846C18.76 64.3846 6.7 51.5077 6.7 35.7692C6.7 20.0308 18.76 7.15385 33.5 7.15385C48.24 7.15385 60.3 20.0308 60.3 35.7692C60.3 51.5077 48.24 64.3846 33.5 64.3846ZM33.5 10.7308C20.6025 10.7308 10.05 21.9981 10.05 35.7692C10.05 49.5404 20.6025 60.8077 33.5 60.8077C46.3975 60.8077 56.95 49.5404 56.95 35.7692C56.95 21.9981 46.3975 10.7308 33.5 10.7308Z" fill="url(#paint1_linear_0_2239)"/>
<path d="M33.5 87.9923C32.16 87.9923 30.82 87.4558 29.9825 86.3827C20.9375 76.3673 0 51.6865 0 35.7692C0 16.0962 15.075 0 33.5 0C51.925 0 67 16.0962 67 35.7692C67 51.6865 46.0625 76.3673 37.0175 86.3827C36.18 87.2769 34.84 87.9923 33.5 87.9923ZM33.5 3.57692C16.9175 3.57692 3.35 18.0635 3.35 35.7692C3.35 50.7923 25.46 76.3673 32.3275 83.8788C32.9975 84.5942 34.0025 84.5942 34.6725 83.8788C41.54 76.3673 63.65 50.7923 63.65 35.7692C63.65 18.0635 50.0825 3.57692 33.5 3.57692Z" fill="url(#paint2_linear_0_2239)"/>
<path d="M47.0675 79.2288C46.0625 80.4808 45.225 81.5538 44.22 82.6269C53.6 83.3423 58.4575 84.9519 59.7975 85.8462C57.955 87.0981 50.7525 88.8865 38.3575 89.4231C36.6825 89.4231 35.175 89.4231 33.3325 89.4231C31.49 89.4231 29.9825 89.4231 28.3075 89.4231C15.9125 89.0654 8.71 87.0981 6.8675 85.8462C8.375 84.9519 13.2325 83.3423 22.6125 82.6269C21.775 81.5538 20.77 80.4808 19.9325 79.2288C11.2225 80.1231 3.35 81.9115 3.35 85.8462C3.35 92.6423 28.475 93 33.5 93C38.525 93 63.65 92.6423 63.65 85.8462C63.65 81.9115 55.7775 80.1231 47.0675 79.2288Z" fill="url(#paint3_linear_0_2239)"/>
</g>
<defs>
<linearGradient id="paint0_linear_0_2239" x1="96.6714" y1="-66.3685" x2="32.9618" y2="92.7844" gradientUnits="userSpaceOnUse">
<stop offset="0.425987" stop-color="#E8F3FF"/>
<stop offset="0.821693" stop-color="#C9E2FF"/>
<stop offset="1" stop-color="#97C7FF"/>
</linearGradient>
<linearGradient id="paint1_linear_0_2239" x1="96.6714" y1="-66.3685" x2="32.9618" y2="92.7844" gradientUnits="userSpaceOnUse">
<stop offset="0.425987" stop-color="#E8F3FF"/>
<stop offset="0.821693" stop-color="#C9E2FF"/>
<stop offset="1" stop-color="#97C7FF"/>
</linearGradient>
<linearGradient id="paint2_linear_0_2239" x1="96.6714" y1="-66.3685" x2="32.9618" y2="92.7844" gradientUnits="userSpaceOnUse">
<stop offset="0.425987" stop-color="#E8F3FF"/>
<stop offset="0.821693" stop-color="#C9E2FF"/>
<stop offset="1" stop-color="#97C7FF"/>
</linearGradient>
<linearGradient id="paint3_linear_0_2239" x1="96.6714" y1="-66.3685" x2="32.9618" y2="92.7844" gradientUnits="userSpaceOnUse">
<stop offset="0.425987" stop-color="#E8F3FF"/>
<stop offset="0.821693" stop-color="#C9E2FF"/>
<stop offset="1" stop-color="#97C7FF"/>
</linearGradient>
</defs>
</svg>
