<svg width="100" height="100" viewBox="0 0 100 100" fill="none" xmlns="http://www.w3.org/2000/svg">
<g clip-path="url(#clip0_1848_631)">
<path d="M68.2748 41.2154C68.2575 41.1641 68.2369 41.1141 68.2131 41.0654C68.1854 40.9812 68.1514 40.8993 68.1114 40.8204C68.076 40.767 68.0377 40.716 67.9964 40.667C67.9529 40.6008 67.9043 40.5377 67.8514 40.4787C67.8021 40.435 67.7502 40.3937 67.6964 40.3554C67.6435 40.3072 67.5879 40.2622 67.5298 40.2204L50.8631 30.2204C50.335 29.9031 49.6746 29.9031 49.1465 30.2204L32.4798 40.2204C32.4182 40.261 32.3596 40.306 32.3048 40.3554C32.2505 40.3937 32.1982 40.435 32.1482 40.4787C32.0963 40.5377 32.0484 40.6 32.0048 40.6654C31.9625 40.7145 31.9236 40.7662 31.8882 40.8204C31.849 40.8972 31.8157 40.9768 31.7882 41.0587C31.7644 41.1104 31.7432 41.1633 31.7248 41.217C31.6859 41.3577 31.6663 41.5029 31.6665 41.6487V58.3153C31.6667 58.9003 31.9734 59.4424 32.4748 59.7437L49.1415 69.7436L49.1598 69.752L49.1781 69.7653C49.2656 69.8107 49.3571 69.8482 49.4515 69.877C49.4898 69.8903 49.5265 69.912 49.5665 69.9236C49.8502 70.0013 50.1496 70.0013 50.4331 69.9236C50.4731 69.912 50.5098 69.8903 50.5481 69.877C50.6425 69.8482 50.734 69.8107 50.8215 69.7653L50.8398 69.752L50.8581 69.7436L67.5248 59.7437C68.0262 59.4424 68.3329 58.9003 68.3331 58.3153V41.6487C68.3333 41.5024 68.3135 41.3566 68.2748 41.2154ZM49.9998 33.5921L55.0931 36.6487L41.6665 44.7054L36.5732 41.6487L49.9998 33.5921ZM48.3331 65.3703L34.9998 57.3703V44.592L48.3331 52.592V65.3703ZM49.9998 49.7053L44.9065 46.6487L58.3331 38.592L63.4264 41.6487L49.9998 49.7053ZM64.9998 57.372L51.6665 65.372V52.592L64.9998 44.592V57.372Z" fill="url(#paint0_linear_1848_631)"/>
<path d="M51.3332 0.649157C50.7273 -0.0873 49.6392 -0.192925 48.9027 0.412907C48.8165 0.48374 48.7373 0.562907 48.6665 0.649157L43.6665 7.31581L46.3332 9.3158L48.3332 6.64914V19.9824H51.6665V6.64914L53.6665 9.3158L56.3331 7.31581L51.3332 0.649157Z" fill="url(#paint1_linear_1848_631)"/>
<path d="M53.6665 90.6471L51.6665 93.3138V79.9805H48.3332V93.3138L46.3332 90.6471L43.6665 92.6471L48.6665 99.3138C49.2188 100.05 50.2634 100.199 50.9998 99.6471C51.1261 99.5523 51.2384 99.44 51.3332 99.3138L56.3331 92.6471L53.6665 90.6471Z" fill="url(#paint2_linear_1848_631)"/>
<path d="M51.6668 23.3145H48.3335V26.6478H51.6668V23.3145Z" fill="url(#paint3_linear_1848_631)"/>
<path d="M51.6668 73.3145H48.3335V76.6478H51.6668V73.3145Z" fill="url(#paint4_linear_1848_631)"/>
<path d="M20.0001 48.3151H6.66678L9.33344 46.3151L7.33344 43.6484L0.66679 48.6484C-0.0696673 49.2007 -0.218834 50.2453 0.333457 50.9818C0.428248 51.108 0.54054 51.2203 0.66679 51.3151L7.33344 56.3151L9.33344 53.6484L6.66678 51.6484H20.0001V48.3151Z" fill="url(#paint5_linear_1848_631)"/>
<path d="M99.6661 48.9818C99.5713 48.8555 99.4591 48.7432 99.3328 48.6484L92.6661 43.6484L90.6662 46.3151L93.3328 48.3151H79.9995V51.6484H93.3328L90.6662 53.6484L92.6661 56.3151L99.3328 51.3151C100.069 50.7628 100.218 49.7182 99.6661 48.9818Z" fill="url(#paint6_linear_1848_631)"/>
<path d="M26.6668 48.3145H23.3335V51.6478H26.6668V48.3145Z" fill="url(#paint7_linear_1848_631)"/>
<path d="M76.6663 48.3145H73.333V51.6478H76.6663V48.3145Z" fill="url(#paint8_linear_1848_631)"/>
<path d="M29.9649 27.5908L20.5382 18.1642L23.8365 18.6342L24.3082 15.3342L16.0599 14.1492C15.1495 14.014 14.3018 14.6425 14.1666 15.5531C14.1424 15.7154 14.1424 15.8804 14.1666 16.0425L15.3449 24.2908L18.6449 23.8191L18.1749 20.5208L27.6015 29.9475L29.9649 27.5908Z" fill="url(#paint9_linear_1848_631)"/>
<path d="M85.8301 83.9212L84.6518 75.6728L81.3485 76.1478L81.8185 79.4462L72.3918 70.0195L70.0352 72.3762L79.4618 81.8028L76.1668 81.3295L75.6951 84.6295L83.9435 85.8078C84.0218 85.8191 84.101 85.8247 84.1801 85.8245C85.1005 85.8247 85.8468 85.0785 85.847 84.158C85.8472 84.0789 85.8414 83.9997 85.8301 83.9212Z" fill="url(#paint10_linear_1848_631)"/>
<path d="M32.3228 29.9496L29.9658 32.3066L32.3228 34.6636L34.6798 32.3066L32.3228 29.9496Z" fill="url(#paint11_linear_1848_631)"/>
<path d="M67.6783 65.3012L65.3213 67.6582L67.6783 70.0152L70.0353 67.6582L67.6783 65.3012Z" fill="url(#paint12_linear_1848_631)"/>
<path d="M20.5315 81.7989L29.9581 72.3723L27.6081 70.0156L18.1815 79.4423L18.6515 76.1439L15.3515 75.6723L14.1665 83.9206C14.0359 84.8316 14.6684 85.6762 15.5796 85.807C15.6582 85.8183 15.7373 85.8239 15.8165 85.8239C15.8957 85.8241 15.9748 85.8185 16.0532 85.8073L24.3015 84.6289L23.8298 81.3289L20.5315 81.7989Z" fill="url(#paint13_linear_1848_631)"/>
<path d="M85.3551 14.6262C84.9855 14.2527 84.4599 14.0775 83.9401 14.1546L75.6918 15.3329L76.1635 18.6329L79.4618 18.1629L70.0352 27.5896L72.3918 29.9462L81.8185 20.5196L81.3485 23.8146L84.6485 24.2896L85.8268 16.0412C85.9014 15.5217 85.7266 14.9975 85.3551 14.6262Z" fill="url(#paint14_linear_1848_631)"/>
<path d="M32.3238 65.3032L29.9668 67.6602L32.3238 70.0172L34.6808 67.6602L32.3238 65.3032Z" fill="url(#paint15_linear_1848_631)"/>
<path d="M67.6788 29.9438L65.3218 32.3008L67.6788 34.6578L70.0358 32.3008L67.6788 29.9438Z" fill="url(#paint16_linear_1848_631)"/>
</g>
<defs>
<linearGradient id="paint0_linear_1848_631" x1="84.5712" y1="1.43721" x2="61.8352" y2="73.7053" gradientUnits="userSpaceOnUse">
<stop offset="0.425987" stop-color="#E8F3FF"/>
<stop offset="0.821693" stop-color="#C9E2FF"/>
<stop offset="1" stop-color="#97C7FF"/>
</linearGradient>
<linearGradient id="paint1_linear_1848_631" x1="61.9427" y1="-14.2268" x2="47.0115" y2="18.6242" gradientUnits="userSpaceOnUse">
<stop offset="0.425987" stop-color="#E8F3FF"/>
<stop offset="0.821693" stop-color="#C9E2FF"/>
<stop offset="1" stop-color="#97C7FF"/>
</linearGradient>
<linearGradient id="paint2_linear_1848_631" x1="61.9427" y1="65.7076" x2="46.9654" y2="98.5988" gradientUnits="userSpaceOnUse">
<stop offset="0.425987" stop-color="#E8F3FF"/>
<stop offset="0.821693" stop-color="#C9E2FF"/>
<stop offset="1" stop-color="#97C7FF"/>
</linearGradient>
<linearGradient id="paint3_linear_1848_631" x1="53.143" y1="20.9357" x2="51.3809" y2="27.046" gradientUnits="userSpaceOnUse">
<stop offset="0.425987" stop-color="#E8F3FF"/>
<stop offset="0.821693" stop-color="#C9E2FF"/>
<stop offset="1" stop-color="#97C7FF"/>
</linearGradient>
<linearGradient id="paint4_linear_1848_631" x1="53.143" y1="70.9357" x2="51.3809" y2="77.046" gradientUnits="userSpaceOnUse">
<stop offset="0.425987" stop-color="#E8F3FF"/>
<stop offset="0.821693" stop-color="#C9E2FF"/>
<stop offset="1" stop-color="#97C7FF"/>
</linearGradient>
<linearGradient id="paint5_linear_1848_631" x1="28.8573" y1="34.609" x2="24.4119" y2="58.9473" gradientUnits="userSpaceOnUse">
<stop offset="0.425987" stop-color="#E8F3FF"/>
<stop offset="0.821693" stop-color="#C9E2FF"/>
<stop offset="1" stop-color="#97C7FF"/>
</linearGradient>
<linearGradient id="paint6_linear_1848_631" x1="108.857" y1="34.609" x2="104.411" y2="58.9473" gradientUnits="userSpaceOnUse">
<stop offset="0.425987" stop-color="#E8F3FF"/>
<stop offset="0.821693" stop-color="#C9E2FF"/>
<stop offset="1" stop-color="#97C7FF"/>
</linearGradient>
<linearGradient id="paint7_linear_1848_631" x1="28.143" y1="45.9357" x2="26.3809" y2="52.046" gradientUnits="userSpaceOnUse">
<stop offset="0.425987" stop-color="#E8F3FF"/>
<stop offset="0.821693" stop-color="#C9E2FF"/>
<stop offset="1" stop-color="#97C7FF"/>
</linearGradient>
<linearGradient id="paint8_linear_1848_631" x1="78.1425" y1="45.9357" x2="76.3804" y2="52.046" gradientUnits="userSpaceOnUse">
<stop offset="0.425987" stop-color="#E8F3FF"/>
<stop offset="0.821693" stop-color="#C9E2FF"/>
<stop offset="1" stop-color="#97C7FF"/>
</linearGradient>
<linearGradient id="paint9_linear_1848_631" x1="36.9693" y1="2.84351" x2="28.6078" y2="31.8367" gradientUnits="userSpaceOnUse">
<stop offset="0.425987" stop-color="#E8F3FF"/>
<stop offset="0.821693" stop-color="#C9E2FF"/>
<stop offset="1" stop-color="#97C7FF"/>
</linearGradient>
<linearGradient id="paint10_linear_1848_631" x1="92.8494" y1="58.7405" x2="84.4972" y2="87.7144" gradientUnits="userSpaceOnUse">
<stop offset="0.425987" stop-color="#E8F3FF"/>
<stop offset="0.821693" stop-color="#C9E2FF"/>
<stop offset="1" stop-color="#97C7FF"/>
</linearGradient>
<linearGradient id="paint11_linear_1848_631" x1="31.6846" y1="27.2238" x2="34.7592" y2="32.7904" gradientUnits="userSpaceOnUse">
<stop offset="0.425987" stop-color="#E8F3FF"/>
<stop offset="0.821693" stop-color="#C9E2FF"/>
<stop offset="1" stop-color="#97C7FF"/>
</linearGradient>
<linearGradient id="paint12_linear_1848_631" x1="67.0401" y1="62.5754" x2="70.1146" y2="68.142" gradientUnits="userSpaceOnUse">
<stop offset="0.425987" stop-color="#E8F3FF"/>
<stop offset="0.821693" stop-color="#C9E2FF"/>
<stop offset="1" stop-color="#97C7FF"/>
</linearGradient>
<linearGradient id="paint13_linear_1848_631" x1="36.9591" y1="58.7342" x2="28.6023" y2="87.7124" gradientUnits="userSpaceOnUse">
<stop offset="0.425987" stop-color="#E8F3FF"/>
<stop offset="0.821693" stop-color="#C9E2FF"/>
<stop offset="1" stop-color="#97C7FF"/>
</linearGradient>
<linearGradient id="paint14_linear_1848_631" x1="92.8446" y1="2.85444" x2="84.4865" y2="31.8344" gradientUnits="userSpaceOnUse">
<stop offset="0.425987" stop-color="#E8F3FF"/>
<stop offset="0.821693" stop-color="#C9E2FF"/>
<stop offset="1" stop-color="#97C7FF"/>
</linearGradient>
<linearGradient id="paint15_linear_1848_631" x1="31.6856" y1="62.5773" x2="34.7601" y2="68.1439" gradientUnits="userSpaceOnUse">
<stop offset="0.425987" stop-color="#E8F3FF"/>
<stop offset="0.821693" stop-color="#C9E2FF"/>
<stop offset="1" stop-color="#97C7FF"/>
</linearGradient>
<linearGradient id="paint16_linear_1848_631" x1="67.0405" y1="27.2179" x2="70.1151" y2="32.7845" gradientUnits="userSpaceOnUse">
<stop offset="0.425987" stop-color="#E8F3FF"/>
<stop offset="0.821693" stop-color="#C9E2FF"/>
<stop offset="1" stop-color="#97C7FF"/>
</linearGradient>
<clipPath id="clip0_1848_631">
<rect width="100" height="100" fill="white"/>
</clipPath>
</defs>
</svg>
