<svg width="143" height="143" viewBox="0 0 143 143" fill="none" xmlns="http://www.w3.org/2000/svg">
<path d="M74.2344 129.094V125.625H77.7031V129.094H74.2344Z" fill="url(#paint0_linear_3250_5788)" stroke="#3C5D8C"/>
<path d="M34.0156 129.094V125.625H37.4844V129.094H34.0156Z" fill="url(#paint1_linear_3250_5788)" stroke="#3C5D8C"/>
<path d="M34.0156 93.3438V89.875H37.4844V93.3438H34.0156Z" fill="url(#paint2_linear_3250_5788)" stroke="#3C5D8C"/>
<path d="M46.4219 98.3125V98.8125H46.9219H84.9062C85.3662 98.8125 85.8074 98.9952 86.1326 99.3205C86.4579 99.6457 86.6406 100.087 86.6406 100.547V136.297C86.6406 136.757 86.4579 137.198 86.1326 137.523C85.8074 137.849 85.3662 138.031 84.9062 138.031H4.46875C4.00876 138.031 3.56762 137.849 3.24236 137.523C2.9171 137.198 2.73438 136.757 2.73438 136.297V64.7969C2.73438 64.3369 2.9171 63.8957 3.24236 63.5705C3.56762 63.2452 4.00876 63.0625 4.46875 63.0625H44.6875C45.1475 63.0625 45.5886 63.2452 45.9139 63.5705C46.2391 63.8957 46.4219 64.3369 46.4219 64.7969V98.3125ZM60.3281 102.281H59.8281V102.781V111.719V112.219H60.3281H69.2656H69.7656V111.719V102.781V102.281H69.2656H60.3281ZM20.1094 66.5312H19.6094V67.0312V75.9688V76.4688H20.1094H29.0469H29.5469V75.9688V67.0312V66.5312H29.0469H20.1094ZM6.70312 66.5312H6.20312V67.0312V98.3125V98.8125H6.70312H42.4531H42.9531V98.3125V67.0312V66.5312H42.4531H33.5156H33.0156V67.0312V78.2031C33.0156 78.6631 32.8329 79.1043 32.5076 79.4295C32.1824 79.7548 31.7412 79.9375 31.2812 79.9375H17.875C17.415 79.9375 16.9739 79.7548 16.6486 79.4295C16.3234 79.1043 16.1406 78.6631 16.1406 78.2031V67.0312V66.5312H15.6406H6.70312ZM20.1094 102.281H19.6094V102.781V111.719V112.219H20.1094H29.0469H29.5469V111.719V102.781V102.281H29.0469H20.1094ZM6.70312 102.281H6.20312V102.781V134.062V134.562H6.70312H42.4531H42.9531V134.062V102.781V102.281H42.4531H33.5156H33.0156V102.781V113.953C33.0156 114.413 32.8329 114.854 32.5076 115.18C32.1824 115.505 31.7412 115.688 31.2812 115.688H17.875C17.415 115.688 16.9739 115.505 16.6486 115.18C16.3234 114.854 16.1406 114.413 16.1406 113.953V102.781V102.281H15.6406H6.70312ZM82.6719 134.562H83.1719V134.062V102.781V102.281H82.6719H73.7344H73.2344V102.781V113.953C73.2344 114.413 73.0517 114.854 72.7264 115.18C72.4011 115.505 71.96 115.688 71.5 115.688H58.0938C57.6338 115.688 57.1926 115.505 56.8674 115.18C56.5421 114.854 56.3594 114.413 56.3594 113.953V102.781V102.281H55.8594H46.9219H46.4219V102.781V134.062V134.562H46.9219H82.6719Z" fill="url(#paint3_linear_3250_5788)" stroke="#3C5D8C"/>
<path d="M133.656 30.7329L133.656 30.7327L129.711 29.7806L129.094 29.6316V30.2666V134.063V134.563H129.594H135.797V138.031H92.1094V134.563H107.25H107.75V134.063V84.9063V84.4063H107.25H51.8906V80.9376H107.25H107.75V80.4376V75.9688V75.4688H107.25H51.8906V72.0001H107.25H107.75V71.5001V67.0313V66.5313H107.25H51.8906V63.0626H107.25H107.75V62.5626V58.0938V57.5938H107.25H29.0469C28.5869 57.5938 28.1457 57.4111 27.8205 57.0858C27.4952 56.7606 27.3125 56.3194 27.3125 55.8594V46.9219C27.3125 46.462 27.4952 46.0208 27.8205 45.6956C28.1457 45.3703 28.5869 45.1876 29.0469 45.1876H109.484C109.944 45.1876 110.385 45.3703 110.711 45.6956C111.036 46.0208 111.219 46.462 111.219 46.9219V134.063V134.563H111.719H125.125H125.625V134.063V29.188V28.7943L125.242 28.702L69.3829 15.2186L69.2656 15.1903L69.1483 15.2186L13.2889 28.702L12.9063 28.7943V29.188V57.5938H9.4375V30.2666V29.6316L8.82021 29.7806L4.87523 30.7326C4.53193 30.8152 4.17162 30.7912 3.84227 30.664L3.66202 31.1303L3.84227 30.664C3.514 30.5371 3.23201 30.3136 3.03356 30.023C2.83262 29.7171 2.72834 29.3577 2.73431 28.9917L2.73438 28.9917V28.9835V20.1095C2.73438 20.1095 2.73438 20.1095 2.73438 20.1094C2.73442 19.7203 2.86535 19.3424 3.10612 19.0367C3.34689 18.7309 3.6835 18.515 4.06183 18.4237L68.8587 2.78305L68.8592 2.78294C69.1263 2.71819 69.405 2.71819 69.6721 2.78294L69.6725 2.78305L134.469 18.4237C134.848 18.515 135.184 18.7309 135.425 19.0367C135.666 19.3424 135.797 19.7203 135.797 20.1094L135.797 28.9956L135.797 29.0035C135.802 29.3243 135.721 29.6407 135.563 29.9198C135.41 30.1813 135.191 30.3984 134.929 30.5495C134.665 30.7012 134.366 30.7811 134.062 30.7813C133.925 30.7814 133.789 30.7651 133.656 30.7329ZM30.7812 53.6251V54.1251H31.2812H107.25H107.75V53.6251V49.1563V48.6563H107.25H31.2812H30.7812V49.1563V53.6251ZM68.8587 11.7206L68.8593 11.7204C68.9922 11.6881 69.1286 11.6719 69.2654 11.6719H69.2659C69.4027 11.6719 69.539 11.6881 69.672 11.7204L69.6725 11.7206L131.711 26.6953L132.328 26.8443V26.2093V21.869V21.4753L131.945 21.383L69.3829 6.2814L69.2656 6.25308L69.1483 6.2814L6.58581 21.383L6.20313 21.4753V21.869V26.209V26.8441L6.82045 26.6951L68.8587 11.7206Z" fill="url(#paint4_linear_3250_5788)" stroke="#3C5D8C"/>
<path d="M64.7969 28.5469L64.7963 28.5469C64.0715 28.5477 63.3766 28.836 62.8641 29.3485C62.3516 29.861 62.0633 30.5559 62.0625 31.2807L62.0625 31.2818C62.0633 32.0066 62.3516 32.7015 62.8641 33.214C63.3766 33.7265 64.0715 34.0148 64.7963 34.0156H64.7969H73.7344C74.4596 34.0156 75.1551 33.7275 75.6679 33.2147C76.1807 32.702 76.4688 32.0065 76.4688 31.2812C76.4688 30.556 76.1807 29.8606 75.6679 29.3478C75.1551 28.835 74.4596 28.5469 73.7344 28.5469L64.7969 28.5469ZM78.1206 35.6675C76.9573 36.8308 75.3795 37.4844 73.7344 37.4844H64.7969C63.1517 37.4844 61.5739 36.8308 60.4106 35.6675C59.2473 34.5042 58.5938 32.9264 58.5938 31.2812C58.5938 29.6361 59.2473 28.0583 60.4106 26.895C61.5739 25.7317 63.1517 25.0781 64.7969 25.0781H73.7344C75.3795 25.0781 76.9573 25.7317 78.1206 26.895C79.284 28.0583 79.9375 29.6361 79.9375 31.2812C79.9375 32.9264 79.284 34.5042 78.1206 35.6675Z" fill="url(#paint5_linear_3250_5788)" stroke="#3C5D8C"/>
<defs>
<linearGradient id="paint0_linear_3250_5788" x1="67.8017" y1="117.112" x2="78.2802" y2="129.709" gradientUnits="userSpaceOnUse">
<stop stop-color="#1788D6"/>
<stop offset="1" stop-color="#E48A36"/>
</linearGradient>
<linearGradient id="paint1_linear_3250_5788" x1="29.9971" y1="118.756" x2="38.0614" y2="129.709" gradientUnits="userSpaceOnUse">
<stop stop-color="#1788D6"/>
<stop offset="1" stop-color="#E48A36"/>
</linearGradient>
<linearGradient id="paint2_linear_3250_5788" x1="33.5156" y1="89.375" x2="40.2701" y2="96.977" gradientUnits="userSpaceOnUse">
<stop stop-color="#1788D6"/>
<stop offset="1" stop-color="#E48A36"/>
</linearGradient>
<linearGradient id="paint3_linear_3250_5788" x1="2.23437" y1="62.5625" x2="78.9656" y2="149.048" gradientUnits="userSpaceOnUse">
<stop stop-color="#1788D6"/>
<stop offset="1" stop-color="#E48A36"/>
</linearGradient>
<linearGradient id="paint4_linear_3250_5788" x1="2.23407" y1="2.23437" x2="140.881" y2="139.765" gradientUnits="userSpaceOnUse">
<stop stop-color="#1788D6"/>
<stop offset="1" stop-color="#E48A36"/>
</linearGradient>
<linearGradient id="paint5_linear_3250_5788" x1="10.6839" y1="-3.28736" x2="52.9374" y2="160.192" gradientUnits="userSpaceOnUse">
<stop stop-color="#1788D6"/>
<stop offset="1" stop-color="#E48A36"/>
</linearGradient>
</defs>
</svg>
