<svg width="80" height="80" viewBox="0 0 80 80" fill="none" xmlns="http://www.w3.org/2000/svg">
<path fill-rule="evenodd" clip-rule="evenodd" d="M41.7926 18.456H31.6734C31.2477 18.456 30.9023 18.1108 30.9023 17.6851C30.9024 17.2594 31.2477 16.9141 31.6733 16.9141L41.7926 16.9141C42.2183 16.9141 42.5634 17.2594 42.5634 17.6851C42.5636 18.1107 42.2182 18.456 41.7926 18.456Z" fill="#F1F3F4" stroke="#F1F3F4" stroke-width="0.25"/>
<path fill-rule="evenodd" clip-rule="evenodd" d="M46.43 22.8174H27.0367C26.611 22.8174 26.2656 22.4721 26.2656 22.0464C26.2657 21.6208 26.611 21.2754 27.0366 21.2754L46.43 21.2754C46.8558 21.2754 47.201 21.6208 47.201 22.0464C47.2011 22.472 46.8556 22.8174 46.43 22.8174Z" fill="#F1F3F4" stroke="#F1F3F4" stroke-width="0.25"/>
<path fill-rule="evenodd" clip-rule="evenodd" d="M14.7103 13.5124C14.3538 13.5124 14.0518 13.7758 14.0518 14.0874L14.0518 71.8803C14.0518 72.1903 14.3537 72.4537 14.7103 72.4537H58.7543C59.1125 72.4537 59.4144 72.1903 59.4144 71.8803L59.4145 14.0874C59.4145 13.7758 59.1124 13.5124 58.7542 13.5124L14.7103 13.5124ZM58.7543 73.996H14.7103C13.4976 73.996 12.5098 73.0467 12.5098 71.8806L12.5099 14.0877C12.5099 12.92 13.4976 11.9707 14.7103 11.9707L58.7543 11.9707C59.9687 11.9707 60.9563 12.92 60.9563 14.0877L60.9564 71.8807C60.9564 73.0468 59.9685 73.996 58.7543 73.996Z" fill="#F1F3F4" stroke="#F1F3F4" stroke-width="0.25"/>
<path fill-rule="evenodd" clip-rule="evenodd" d="M54.896 31.8232H18.5685C18.1428 31.8232 17.7974 31.4779 17.7974 31.0522C17.7975 30.6266 18.1427 30.2813 18.5684 30.2813L54.896 30.2812C55.3234 30.2812 55.667 30.6266 55.667 31.0522C55.6671 31.4779 55.3233 31.8232 54.896 31.8232Z" fill="#F1F3F4" stroke="#F1F3F4" stroke-width="0.25"/>
<path fill-rule="evenodd" clip-rule="evenodd" d="M55.1388 69.0517H42.2954C41.8699 69.0517 41.5244 68.7064 41.5244 68.2808C41.5244 67.8551 41.8697 67.5098 42.2954 67.5098H55.1388C55.5643 67.5098 55.9097 67.8551 55.9097 68.2808C55.9097 68.7064 55.5642 69.0517 55.1388 69.0517Z" fill="#F1F3F4" stroke="#F1F3F4" stroke-width="0.25"/>
<path fill-rule="evenodd" clip-rule="evenodd" d="M52.4855 65.5127H44.9493C44.5236 65.5127 44.1782 65.1673 44.1782 64.7417C44.1783 64.316 44.5235 63.9707 44.9492 63.9707H52.4855C52.9113 63.9707 53.2565 64.316 53.2565 64.7417C53.2566 65.1673 52.9112 65.5127 52.4855 65.5127Z" fill="#F1F3F4" stroke="#F1F3F4" stroke-width="0.25"/>
<path fill-rule="evenodd" clip-rule="evenodd" d="M54.896 36.2998H18.5685C18.1428 36.2998 17.7974 35.9545 17.7974 35.5288C17.7975 35.1031 18.1427 34.7578 18.5684 34.7578H54.896C55.3234 34.7578 55.667 35.1032 55.667 35.5288C55.6671 35.9545 55.3233 36.2998 54.896 36.2998Z" fill="#F1F3F4" stroke="#F1F3F4" stroke-width="0.25"/>
<path fill-rule="evenodd" clip-rule="evenodd" d="M54.896 40.7744H18.5685C18.1428 40.7744 17.7974 40.429 17.7974 40.0034C17.7975 39.5778 18.1427 39.2325 18.5684 39.2325L54.896 39.2324C55.3234 39.2324 55.667 39.5778 55.667 40.0034C55.6671 40.429 55.3233 40.7744 54.896 40.7744Z" fill="#F1F3F4" stroke="#F1F3F4" stroke-width="0.25"/>
<path fill-rule="evenodd" clip-rule="evenodd" d="M13.2808 66.7128H7.42775C6.21347 66.7128 5.22559 65.7635 5.22559 64.5958V6.80288C5.22559 5.63677 6.21342 4.6875 7.4277 4.6875H51.4716C52.6844 4.6875 53.6722 5.63677 53.6722 6.80292L53.6722 12.741C53.6722 13.1666 53.3268 13.5121 52.9012 13.5121C52.4756 13.5121 52.1302 13.1667 52.1302 12.741L52.1303 6.80288C52.1303 6.49127 51.8282 6.22944 51.4716 6.22944L7.42775 6.2294C7.06963 6.2294 6.76757 6.49127 6.76757 6.80292L6.76767 64.5958C6.76767 64.9075 7.06954 65.1709 7.4277 65.1709H13.2808C13.7065 65.1709 14.0518 65.5146 14.0518 65.9419C14.0519 66.3675 13.7064 66.7128 13.2808 66.7128Z" fill="#F1F3F4" stroke="#F1F3F4" stroke-width="0.25"/>
<path fill-rule="evenodd" clip-rule="evenodd" d="M21.2638 48.5441C20.8929 58.2071 23.7309 64.3926 29.9261 67.4284C36.1212 64.3926 38.9594 58.2071 38.5884 48.5442C36.6386 48.4173 33.789 47.2946 29.9261 45.1326C26.0648 47.2946 23.2137 48.4173 21.2638 48.5441ZM29.9262 69.0523C29.8153 69.0523 29.7044 69.0282 29.6016 68.9816C22.4861 65.6824 19.1741 58.5316 19.7587 47.7266C19.77 47.5162 19.8663 47.3203 20.027 47.1821C20.1862 47.0456 20.3948 46.9797 20.6052 47.0006C21.7329 47.1162 24.1967 46.6119 29.5454 43.5778C29.7816 43.4428 30.0706 43.4428 30.3067 43.5778C35.6556 46.6119 38.121 47.1147 39.2469 47.0006C39.4573 46.9797 39.6661 47.0456 39.8267 47.1821C39.9859 47.3203 40.0838 47.5162 40.095 47.7266C40.6781 58.5316 37.366 65.6824 30.2505 68.9816C30.1479 69.0282 30.0369 69.0523 29.9262 69.0523Z" fill="#F1F3F4" stroke="#F1F3F4" stroke-width="0.25"/>
<path fill-rule="evenodd" clip-rule="evenodd" d="M26.1353 61.6894C26.0999 61.6894 26.0662 61.6878 26.0308 61.683C25.8077 61.6508 25.61 61.5255 25.4879 61.336L23.6055 58.4175C23.3742 58.0609 23.477 57.5839 23.8352 57.3526C24.1934 57.1213 24.6704 57.2241 24.9017 57.5823L26.2976 59.7475L36.1677 51.0322C36.4858 50.751 36.974 50.7815 37.255 51.1012C37.5378 51.4192 37.5072 51.9075 37.1876 52.1886L26.6462 61.4966C26.5047 61.6219 26.3232 61.6894 26.1353 61.6894Z" fill="#F1F3F4" stroke="#F1F3F4" stroke-width="0.25"/>
<path fill-rule="evenodd" clip-rule="evenodd" d="M68.4637 75.3128H66.5877C66.2343 75.3128 65.9274 75.0735 65.8407 74.7314C63.372 65.0459 62.5961 52.5576 63.5374 37.6118C63.5648 37.1878 63.9293 36.8649 64.355 36.8922C64.7807 36.9179 65.1034 37.2842 65.0761 37.7098C64.1638 52.1946 64.8753 64.3231 67.1899 73.7708H67.8615C70.176 64.3231 70.8858 52.1946 69.9751 37.7098C69.9478 37.2842 70.2706 36.918 70.6947 36.8922C71.1203 36.8649 71.4865 37.1878 71.5138 37.6118C72.4536 52.5576 71.6793 65.0459 69.2105 74.7314C69.1238 75.0735 68.8154 75.3128 68.4637 75.3128Z" fill="#F1F3F4" stroke="#F1F3F4" stroke-width="0.25"/>
<path fill-rule="evenodd" clip-rule="evenodd" d="M64.3068 38.4321C64.2153 38.4321 64.122 38.4144 64.0337 38.3822C63.7751 38.2843 63.5888 38.0546 63.5454 37.7815C62.776 32.9099 62.9542 26.8593 64.077 19.7968C64.1446 19.3759 64.5396 19.0901 64.9604 19.1559C65.3813 19.2234 65.6671 19.6184 65.5997 20.0393C64.5911 26.3871 64.3581 31.8755 64.9058 36.381C66.5121 35.6308 68.5375 35.6308 70.1437 36.381C70.6915 31.8755 70.4601 26.3871 69.4498 20.0393C69.3839 19.6184 69.6698 19.2234 70.0907 19.1559C70.5115 19.09 70.9066 19.3759 70.9725 19.7968C72.097 26.8593 72.2751 32.9099 71.5058 37.7815C71.4625 38.0546 71.2761 38.2843 71.0158 38.3822C70.7573 38.4803 70.4665 38.4304 70.2529 38.2537C68.7994 37.0523 66.2502 37.0523 64.7982 38.2537C64.6569 38.371 64.4834 38.4321 64.3068 38.4321Z" fill="#F1F3F4" stroke="#F1F3F4" stroke-width="0.25"/>
<path fill-rule="evenodd" clip-rule="evenodd" d="M67.5257 17.1912C66.9363 17.1912 66.3466 17.3165 65.8423 17.5671C65.6898 17.6425 65.6094 17.7726 65.6094 17.9429V18.6095C66.819 18.1517 68.2323 18.1517 69.4402 18.6095V17.9429C69.4402 17.7726 69.3599 17.6426 69.2073 17.5671C68.7046 17.3165 68.1151 17.1912 67.5257 17.1912ZM70.2113 20.688C70.0394 20.688 69.8691 20.6317 69.7294 20.5193C68.5554 19.578 66.4944 19.578 65.3203 20.5193C65.0889 20.704 64.7725 20.7409 64.506 20.6125C64.2377 20.4839 64.0674 20.2141 64.0674 19.9186L64.0675 17.9429C64.0675 17.1816 64.4738 16.5246 65.1548 16.1857C66.5956 15.4693 68.4556 15.4693 69.8948 16.1857C70.5759 16.5246 70.9822 17.1816 70.9822 17.9429L70.9823 19.9186C70.9823 20.2141 70.8119 20.4839 70.5452 20.6125C70.4393 20.6639 70.3253 20.688 70.2113 20.688Z" fill="#F1F3F4" stroke="#F1F3F4" stroke-width="0.25"/>
<path fill-rule="evenodd" clip-rule="evenodd" d="M69.3455 17.5519C68.9197 17.5519 68.5744 17.2081 68.5744 16.7809L68.5744 13.1669C68.5744 13.1027 68.5744 12.9677 68.3608 12.8297C68.1584 12.7011 67.8468 12.624 67.5256 12.624C67.0904 12.624 66.4751 12.7926 66.4751 13.1669L66.4752 16.7809C66.4752 17.2081 66.1313 17.5519 65.7057 17.5519C65.2785 17.5519 64.9331 17.2081 64.9331 16.7809L64.9331 13.1669C64.9331 11.959 66.0238 11.082 67.5256 11.082C69.0274 11.082 70.1164 11.959 70.1164 13.1669L70.1165 16.7809C70.1165 17.2081 69.7711 17.5519 69.3455 17.5519Z" fill="#F1F3F4" stroke="#F1F3F4" stroke-width="0.25"/>
<path fill-rule="evenodd" clip-rule="evenodd" d="M74.0033 35.8065C73.5776 35.8065 73.2322 35.4628 73.2322 35.0355L73.2323 22.1874C73.2323 21.3618 72.5608 20.6904 71.7352 20.6904L70.211 20.6889C69.7852 20.6889 69.4399 20.3451 69.4399 19.9178C69.4399 19.4922 69.7852 19.1484 70.2109 19.1484H71.7353C73.4106 19.1484 74.7741 20.5122 74.7741 22.1874V35.0355C74.7741 35.4628 74.4288 35.8065 74.0033 35.8065Z" fill="#F1F3F4" stroke="#F1F3F4" stroke-width="0.25"/>
</svg>
