<svg width="80" height="80" viewBox="0 0 80 80" fill="none" xmlns="http://www.w3.org/2000/svg">
<g clip-path="url(#clip0_2009_624)">
<path d="M40.5522 47.9177H40.1174C37.4799 47.9177 35.334 45.7718 35.334 43.1343V38.7856C35.334 38.3054 35.7233 37.916 36.2035 37.916C36.6838 37.916 37.0731 38.3054 37.0731 38.7856V43.1343C37.0731 44.8131 38.4386 46.1786 40.1174 46.1786H40.5522C42.2311 46.1786 43.5966 44.8131 43.5966 43.1343V38.7856C43.5966 38.3054 43.9859 37.916 44.4661 37.916C44.9463 37.916 45.3357 38.3054 45.3357 38.7856V43.1343C45.3357 45.7718 43.1898 47.9177 40.5522 47.9177Z" fill="#F1F3F4"/>
<path d="M44.4641 39.6604H36.2058C35.7256 39.6604 35.3362 39.2711 35.3362 38.7909C35.3362 36.217 34.135 33.7454 32.0405 32.0097C28.7487 29.2808 27.0095 25.0956 27.3874 20.8153C27.9279 14.694 32.7475 9.75851 38.8467 9.08086C42.6065 8.66136 46.2122 9.80861 49.003 12.3069C51.7561 14.7708 53.3351 18.303 53.3351 21.9978C53.3351 25.9291 51.5849 29.6069 48.5338 32.0882C46.5 33.7416 45.3337 36.1834 45.3337 38.7879C45.3337 39.2681 44.9443 39.6604 44.4641 39.6604ZM37.0376 37.9213H43.6306C43.8646 35.1194 45.2224 32.5392 47.4367 30.7389C50.0798 28.5892 51.596 25.4035 51.596 21.9978C51.596 18.7972 50.2279 15.7372 47.843 13.6028C45.425 11.439 42.2995 10.4489 39.0387 10.809C33.7593 11.3962 29.5877 15.6684 29.1198 20.9682C28.792 24.6795 30.2984 28.3068 33.1504 30.6705C35.4097 32.5434 36.7964 35.1483 37.0376 37.9213Z" fill="#F1F3F4"/>
<path d="M37.0753 38.7909H37.0838M28.2536 20.8917H28.2621M44.4641 39.6604H36.2058C35.7256 39.6604 35.3362 39.2711 35.3362 38.7909C35.3362 36.217 34.135 33.7454 32.0405 32.0097C28.7487 29.2808 27.0095 25.0956 27.3874 20.8153C27.9279 14.694 32.7475 9.75851 38.8467 9.08086C42.6065 8.66136 46.2122 9.80861 49.003 12.3069C51.7561 14.7708 53.3351 18.303 53.3351 21.9978C53.3351 25.9291 51.5849 29.6069 48.5338 32.0882C46.5 33.7416 45.3337 36.1834 45.3337 38.7879C45.3337 39.2681 44.9443 39.6604 44.4641 39.6604ZM37.0376 37.9213H43.6306C43.8646 35.1194 45.2224 32.5392 47.4367 30.7389C50.0798 28.5892 51.596 25.4035 51.596 21.9978C51.596 18.7972 50.2279 15.7372 47.843 13.6028C45.425 11.439 42.2995 10.4489 39.0387 10.809C33.7593 11.3962 29.5877 15.6684 29.1198 20.9682C28.792 24.6795 30.2984 28.3068 33.1504 30.6705C35.4097 32.5434 36.7964 35.1483 37.0376 37.9213Z" stroke="#F1F3F4"/>
<path d="M40.335 27.9746C38.3101 27.9746 36.6631 26.3276 36.6631 24.3027C36.6631 22.2779 38.3101 20.6309 40.335 20.6309C42.3598 20.6309 44.0068 22.2779 44.0068 24.3027C44.0068 26.3276 42.3598 27.9746 40.335 27.9746ZM40.335 22.37C39.2692 22.37 38.4022 23.237 38.4022 24.3027C38.4022 25.3685 39.2692 26.2355 40.335 26.2355C41.4007 26.2355 42.2677 25.3685 42.2677 24.3027C42.2677 23.237 41.4007 22.37 40.335 22.37Z" fill="#F1F3F4"/>
<path d="M40.3349 39.6566C39.8547 39.6566 39.4653 39.2672 39.4653 38.787V27.1039C39.4653 26.6237 39.8547 26.2344 40.3349 26.2344C40.8151 26.2344 41.2045 26.6237 41.2045 27.1039V38.787C41.2045 39.2672 40.8151 39.6566 40.3349 39.6566Z" fill="#F1F3F4"/>
<path d="M40.3344 5.96892C39.8542 5.96892 39.4648 5.57957 39.4648 5.09936V0.869565C39.4648 0.389351 39.8542 0 40.3344 0C40.8146 0 41.204 0.389351 41.204 0.869565V5.09936C41.204 5.57957 40.8146 5.96892 40.3344 5.96892Z" fill="#F1F3F4" stroke="#F1F3F4"/>
<path d="M29.4744 9.92211C29.2265 9.92211 28.9798 9.81639 28.8078 9.61131L26.0892 6.37125C25.7805 6.00355 25.8285 5.45498 26.1966 5.1463C26.5639 4.83847 27.1133 4.88602 27.4215 5.25372L30.1402 8.49378C30.4489 8.86148 30.4009 9.41005 30.0328 9.71873C29.8702 9.85545 29.6719 9.92211 29.4744 9.92211Z" fill="#F1F3F4" stroke="#F1F3F4"/>
<path d="M23.6959 19.9312C23.6458 19.9312 23.5953 19.9269 23.5439 19.918L19.3782 19.1835C18.9052 19.0998 18.5898 18.6489 18.673 18.1759C18.7562 17.7029 19.2029 17.3862 19.6805 17.4707L23.8462 18.2052C24.3192 18.2889 24.6347 18.7398 24.5515 19.2128C24.4772 19.6344 24.1103 19.9312 23.6959 19.9312Z" fill="#F1F3F4" stroke="#F1F3F4"/>
<path d="M56.9729 19.9313C56.5585 19.9313 56.1916 19.6345 56.1173 19.2129C56.0341 18.7399 56.3496 18.289 56.8226 18.2053L60.9882 17.4708C61.4646 17.3859 61.9126 17.703 61.9958 18.176C62.079 18.649 61.7636 19.0999 61.2906 19.1836L57.1249 19.9181C57.0735 19.9271 57.023 19.9313 56.9729 19.9313Z" fill="#F1F3F4" stroke="#F1F3F4"/>
<path d="M51.1949 9.92257C50.9974 9.92257 50.7992 9.85591 50.6365 9.71919C50.2684 9.41051 50.2204 8.86193 50.5291 8.49424L53.2478 5.25417C53.5565 4.88563 54.1063 4.8385 54.4727 5.14675C54.8408 5.45543 54.8888 6.004 54.5802 6.3717L51.8615 9.61176C51.6895 9.81684 51.4428 9.92257 51.1949 9.92257Z" fill="#F1F3F4" stroke="#F1F3F4"/>
<path d="M29.1257 80.0007C29.1142 80.0007 29.1027 80.0007 29.0913 79.9999C28.6115 79.9812 28.2378 79.577 28.2565 79.0972L28.3364 77.0494C28.4871 75.7382 29.2233 74.6165 30.3107 73.9813L30.5629 73.8306C31.6168 73.2145 32.7572 72.7546 33.9601 72.46L36.0979 71.9437C36.159 71.9288 36.207 71.88 36.2193 71.8188L36.4983 70.4461C36.5938 69.9753 37.0498 69.6729 37.5237 69.7672C37.9941 69.8627 38.2981 70.3217 38.2026 70.7926L37.9236 72.1653C37.7776 72.8846 37.2214 73.4612 36.5068 73.634L34.3715 74.1499C33.3342 74.4038 32.3496 74.8007 31.4473 75.3281L31.1947 75.4788C30.5697 75.844 30.1511 76.48 30.0687 77.1844L29.994 79.1651C29.9757 79.6335 29.5906 80.0007 29.1257 80.0007Z" fill="#F1F3F4" stroke="#F1F3F4"/>
<path d="M51.5437 80.001C51.0788 80.001 50.6937 79.6337 50.6754 79.1654L50.5956 77.1176C50.5183 76.4803 50.0997 75.8442 49.4815 75.4829L49.2157 75.3245C48.3198 74.801 47.3352 74.404 46.2949 74.1492L44.163 73.6346C43.448 73.4614 42.8918 72.8848 42.7457 72.1655L42.4668 70.7928C42.3712 70.322 42.6752 69.863 43.1457 69.7674C43.6178 69.6723 44.0756 69.9755 44.1711 70.4464L44.45 71.8191C44.4624 71.8802 44.5103 71.929 44.5719 71.9443L46.7063 72.4594C47.9122 72.7549 49.0526 73.2147 50.1001 73.827L50.3655 73.9853C51.4461 74.6167 52.1823 75.7385 52.3279 76.9825L52.4129 79.0974C52.4315 79.5772 52.0579 79.9814 51.5781 80.0001C51.5666 80.0006 51.5547 80.001 51.5437 80.001Z" fill="#F1F3F4" stroke="#F1F3F4"/>
<path d="M40.3346 72.9992C36.771 72.9992 34.1084 68.2901 34.1084 64.0794C34.1084 59.9961 36.6687 57.1445 40.3346 57.1445C44.0006 57.1445 46.5608 59.9961 46.5608 64.0794C46.5608 68.2901 43.8982 72.9992 40.3346 72.9992ZM40.3346 58.8837C37.6087 58.8837 35.8475 60.923 35.8475 64.0794C35.8475 67.7033 38.0703 71.2601 40.3346 71.2601C42.599 71.2601 44.8217 67.7033 44.8217 64.0794C44.8217 60.923 43.0605 58.8837 40.3346 58.8837Z" fill="#F1F3F4" stroke="#F1F3F4"/>
<path d="M55.381 61.9035C55.37 61.9035 55.3585 61.9035 55.3471 61.9027C54.8669 61.8844 54.4932 61.4802 54.5119 61.0004L54.5913 58.9531C54.742 57.6415 55.4783 56.5193 56.5661 55.8841L56.8183 55.7334C57.8717 55.1173 59.0126 54.6575 60.2155 54.3632L62.3528 53.8465C62.4144 53.8316 62.4624 53.7824 62.4747 53.7208L62.7537 52.3489C62.8492 51.8785 63.3056 51.5741 63.7791 51.67C64.2495 51.7656 64.5535 52.2245 64.458 52.6954L64.179 54.0681C64.0321 54.7878 63.4759 55.364 62.7617 55.5368L60.6265 56.0531C59.5892 56.307 58.605 56.7031 57.7027 57.2309L57.4501 57.3816C56.8247 57.7472 56.406 58.3832 56.3236 59.0876L56.2493 61.0675C56.2315 61.5363 55.846 61.9035 55.381 61.9035Z" fill="#F1F3F4" stroke="#F1F3F4"/>
<path d="M77.7996 61.9038C77.3346 61.9038 76.9491 61.5365 76.9313 61.0678L76.8519 59.0204C76.7746 58.3835 76.356 57.7475 75.7373 57.3857L75.4715 57.2273C74.5756 56.7034 73.5914 56.3072 72.5516 56.0525L70.4193 55.5374C69.7047 55.3642 69.1485 54.788 69.0016 54.0692L68.7226 52.6957C68.6271 52.2248 68.9311 51.7658 69.4016 51.6703C69.8746 51.5735 70.3314 51.8787 70.4269 52.3492L70.7059 53.7219C70.7182 53.7826 70.7662 53.8319 70.8282 53.8471L72.9626 54.3626C74.168 54.6577 75.3089 55.1175 76.356 55.7298L76.6213 55.8882C77.7023 56.5195 78.4386 57.6417 78.5842 58.8858L78.6687 61.0007C78.6874 61.4805 78.3137 61.8847 77.8335 61.9029C77.8221 61.9038 77.8106 61.9038 77.7996 61.9038Z" fill="#F1F3F4" stroke="#F1F3F4"/>
<path d="M66.5905 54.9016C63.0274 54.9016 60.3647 50.1924 60.3647 45.9817C60.3647 41.8984 62.925 39.0469 66.5905 39.0469C70.2565 39.0469 72.8168 41.8984 72.8168 45.9817C72.8168 50.1924 70.1542 54.9016 66.5905 54.9016ZM66.5905 40.786C63.8651 40.786 62.1039 42.8253 62.1039 45.9817C62.1039 49.6056 64.3262 53.1624 66.5905 53.1624C68.8549 53.1624 71.0776 49.6056 71.0776 45.9817C71.0776 42.8253 69.3164 40.786 66.5905 40.786Z" fill="#F1F3F4" stroke="#F1F3F4"/>
<path d="M25.2878 61.9038C24.8229 61.9038 24.4374 61.5365 24.4196 61.0678L24.3402 59.0204C24.2629 58.3835 23.8442 57.7475 23.2256 57.3857L22.9598 57.2273C22.0639 56.7034 21.0797 56.3072 20.0399 56.0525L17.9076 55.5374C17.193 55.3642 16.6368 54.788 16.4899 54.0692L16.2109 52.6957C16.1154 52.2248 16.4194 51.7658 16.8898 51.6703C17.3616 51.5735 17.8193 51.8787 17.9152 52.3492L18.1942 53.7219C18.2065 53.7826 18.2545 53.8319 18.3165 53.8471L20.4509 54.3626C21.6563 54.6577 22.7972 55.1175 23.8442 55.7298L24.1096 55.8882C25.1906 56.5195 25.9269 57.6417 26.0725 58.8858L26.157 61.0007C26.1757 61.4805 25.802 61.8847 25.3218 61.9029C25.3104 61.9038 25.2989 61.9038 25.2878 61.9038Z" fill="#F1F3F4" stroke="#F1F3F4"/>
<path d="M2.86981 61.9035C2.85877 61.9035 2.84731 61.9035 2.83584 61.9027C2.35563 61.8844 1.98199 61.4802 2.00067 61.0004L2.08007 58.9531C2.2308 57.6415 2.96704 56.5193 4.05485 55.8841L4.30706 55.7334C5.36047 55.1173 6.50135 54.6575 7.70422 54.3632L9.84162 53.8465C9.90318 53.8316 9.95116 53.7824 9.96348 53.7208L10.2424 52.3489C10.338 51.8785 10.7965 51.5741 11.2678 51.67C11.7383 51.7656 12.0423 52.2245 11.9467 52.6954L11.6678 54.0681C11.5209 54.7878 10.9647 55.364 10.2505 55.5368L8.11523 56.0531C7.07795 56.307 6.09374 56.7031 5.19148 57.2309L4.93885 57.3816C4.31343 57.7472 3.89478 58.3832 3.81241 59.0876L3.7381 61.0675C3.72027 61.5363 3.33474 61.9035 2.86981 61.9035Z" fill="#F1F3F4" stroke="#F1F3F4"/>
<path d="M14.0788 54.9016C10.5152 54.9016 7.85254 50.1924 7.85254 45.9817C7.85254 41.8984 10.4128 39.0469 14.0788 39.0469C17.7443 39.0469 20.3046 41.8984 20.3046 45.9817C20.3046 50.1924 17.6419 54.9016 14.0788 54.9016ZM14.0788 40.786C11.3529 40.786 9.59167 42.8253 9.59167 45.9817C9.59167 49.6056 11.8144 53.1624 14.0788 53.1624C16.3431 53.1624 18.5654 49.6056 18.5654 45.9817C18.5654 42.8253 16.8042 40.786 14.0788 40.786Z" fill="#F1F3F4" stroke="#F1F3F4"/>
</g>
<defs>
<clipPath id="clip0_2009_624">
<rect width="80" height="80" fill="white"/>
</clipPath>
</defs>
</svg>
