<svg width="81" height="80" viewBox="0 0 81 80" fill="none" xmlns="http://www.w3.org/2000/svg">
<path d="M35.1375 77.375H9.25C5.86904 77.375 3.125 74.631 3.125 71.25V8.75C3.125 5.36904 5.86904 2.625 9.25 2.625H54.25C57.631 2.625 60.375 5.36904 60.375 8.75V38.8375C60.375 39.456 59.8685 39.9625 59.25 39.9625C58.6315 39.9625 58.125 39.456 58.125 38.8375V8.75C58.125 6.61846 56.3815 4.875 54.25 4.875H9.25C7.11846 4.875 5.375 6.61846 5.375 8.75V71.25C5.375 73.3815 7.11846 75.125 9.25 75.125H35.1375C35.756 75.125 36.2625 75.6315 36.2625 76.25C36.2625 76.8685 35.756 77.375 35.1375 77.375Z" fill="#F1F3F4" stroke="#1616A5" stroke-width="0.25"/>
<path d="M38.7711 74.8255L38.7714 74.826C39.6738 76.4235 41.3193 77.375 43.1876 77.375H72.8126C74.6686 77.375 76.3264 76.4234 77.2288 74.826L77.2291 74.8255C78.1064 73.2901 78.0824 71.4633 77.1802 69.939L38.7711 74.8255ZM38.7711 74.8255C37.8937 73.29 37.9177 71.463 38.8202 69.9387L53.6325 45.0765L53.6325 45.0764C54.5469 43.5402 56.1806 42.625 58.0001 42.625C59.8196 42.625 61.4533 43.5402 62.3677 45.0764L62.3677 45.0765L77.18 69.9387L38.7711 74.8255ZM40.7286 73.7238L40.7289 73.7242L75.1626 71.1625L75.27 71.0985L75.2699 71.0984C75.2698 71.0982 75.2697 71.0981 75.2696 71.0979L60.4575 46.236L60.4573 46.2357C59.9468 45.3849 59.0432 44.875 58.0251 44.875H58.0001C56.9831 44.875 56.066 45.384 55.5674 46.2365C55.5673 46.2366 55.5673 46.2368 55.5672 46.2369L40.7556 71.0979C40.7555 71.098 40.7554 71.0981 40.7554 71.0982C40.2565 71.9255 40.2574 72.886 40.7286 73.7238Z" fill="#F1F3F4" stroke="#1616A5" stroke-width="0.25"/>
<path d="M58 63.625C57.3815 63.625 56.875 63.1185 56.875 62.5V50C56.875 49.3815 57.3815 48.875 58 48.875C58.6185 48.875 59.125 49.3815 59.125 50V62.5C59.125 63.1185 58.6185 63.625 58 63.625Z" fill="#F1F3F4" stroke="#1616A5" stroke-width="0.25"/>
<path d="M58 71.125C57.3815 71.125 56.875 70.6185 56.875 70V67.5C56.875 66.8815 57.3815 66.375 58 66.375C58.6185 66.375 59.125 66.8815 59.125 67.5V70C59.125 70.6185 58.6185 71.125 58 71.125Z" fill="#F1F3F4" stroke="#1616A5" stroke-width="0.25"/>
<path d="M15.5 17.375H15.375V17.5V27.5V27.625H15.5H25.5H25.625V27.5V25C25.625 24.3815 26.1315 23.875 26.75 23.875C27.3685 23.875 27.875 24.3815 27.875 25V27.5C27.875 28.806 26.806 29.875 25.5 29.875H15.5C14.194 29.875 13.125 28.806 13.125 27.5V17.5C13.125 16.194 14.194 15.125 15.5 15.125H21.75C22.3685 15.125 22.875 15.6315 22.875 16.25C22.875 16.8685 22.3685 17.375 21.75 17.375H15.5Z" fill="#F1F3F4" stroke="#1616A5" stroke-width="0.25"/>
<path d="M22.5243 24.5495C22.303 24.7708 22.0281 24.8724 21.7381 24.8753C21.451 24.8723 21.1741 24.7608 20.9499 24.5483L18.4511 22.0495C18.0124 21.6108 18.0124 20.9025 18.4511 20.4638C18.8898 20.0251 19.5981 20.0251 20.0368 20.4638L21.6493 22.0763L21.7377 22.1647L21.8261 22.0763L28.4386 15.4638C28.8773 15.0251 29.5856 15.0251 30.0243 15.4638C30.463 15.9025 30.463 16.6108 30.0243 17.0495L22.5243 24.5495Z" fill="#F1F3F4" stroke="#1616A5" stroke-width="0.25"/>
<path d="M15.5 38.625H15.375V38.75V48.75V48.875H15.5H25.5H25.625V48.75V46.25C25.625 45.6315 26.1315 45.125 26.75 45.125C27.3685 45.125 27.875 45.6315 27.875 46.25V48.75C27.875 50.056 26.806 51.125 25.5 51.125H15.5C14.194 51.125 13.125 50.056 13.125 48.75V38.75C13.125 37.444 14.194 36.375 15.5 36.375H21.75C22.3685 36.375 22.875 36.8815 22.875 37.5C22.875 38.1185 22.3685 38.625 21.75 38.625H15.5Z" fill="#F1F3F4" stroke="#1616A5" stroke-width="0.25"/>
<path d="M22.5243 45.7995C22.303 46.0208 22.0281 46.1224 21.7381 46.1253C21.451 46.1223 21.1741 46.0108 20.9499 45.7984L18.4511 43.2995C18.0124 42.8608 18.0124 42.1525 18.4511 41.7138C18.8898 41.2751 19.5981 41.2751 20.0368 41.7138L21.6493 43.3263L21.7377 43.4147L21.8261 43.3263L28.4386 36.7138C28.8773 36.2751 29.5856 36.2751 30.0243 36.7138C30.463 37.1525 30.463 37.8608 30.0243 38.2995L22.5243 45.7995Z" fill="#F1F3F4" stroke="#1616A5" stroke-width="0.25"/>
<path d="M41.75 27.375H34.25C33.6315 27.375 33.125 26.8685 33.125 26.25C33.125 25.6315 33.6315 25.125 34.25 25.125H41.75C42.3685 25.125 42.875 25.6315 42.875 26.25C42.875 26.8685 42.3685 27.375 41.75 27.375Z" fill="#F1F3F4" stroke="#1616A5" stroke-width="0.25"/>
<path d="M49.25 19.875H34.25C33.6315 19.875 33.125 19.3685 33.125 18.75C33.125 18.1315 33.6315 17.625 34.25 17.625H49.25C49.8685 17.625 50.375 18.1315 50.375 18.75C50.375 19.3685 49.8685 19.875 49.25 19.875Z" fill="#F1F3F4" stroke="#1616A5" stroke-width="0.25"/>
<path d="M41.75 48.625H34.25C33.6315 48.625 33.125 48.1185 33.125 47.5C33.125 46.8815 33.6315 46.375 34.25 46.375H41.75C42.3685 46.375 42.875 46.8815 42.875 47.5C42.875 48.1185 42.3685 48.625 41.75 48.625Z" fill="#F1F3F4" stroke="#1616A5" stroke-width="0.25"/>
<path d="M49.25 41.125H34.25C33.6315 41.125 33.125 40.6185 33.125 40C33.125 39.3815 33.6315 38.875 34.25 38.875H49.25C49.8685 38.875 50.375 39.3815 50.375 40C50.375 40.6185 49.8685 41.125 49.25 41.125Z" fill="#F1F3F4" stroke="#1616A5" stroke-width="0.25"/>
</svg>
