<svg width="81" height="80" viewBox="0 0 81 80" fill="none" xmlns="http://www.w3.org/2000/svg">
<g clip-path="url(#clip0_2009_766)">
<path fill-rule="evenodd" clip-rule="evenodd" d="M25.9312 37.4746H5.22656C4.70938 37.4746 4.28906 37.0559 4.28906 36.5371C4.28906 36.0199 4.70938 35.5996 5.22656 35.5996H25.9312C26.4484 35.5996 26.8687 36.0199 26.8687 36.5371C26.8687 37.0559 26.4484 37.4746 25.9312 37.4746Z" fill="#F1F3F4"/>
<path fill-rule="evenodd" clip-rule="evenodd" d="M20.3828 44.75H1.4375C0.920313 44.75 0.5 44.3297 0.5 43.8125C0.5 43.2953 0.920313 42.875 1.4375 42.875H20.3828C20.9 42.875 21.3203 43.2953 21.3203 43.8125C21.3203 44.3297 20.9 44.75 20.3828 44.75Z" fill="#F1F3F4"/>
<path fill-rule="evenodd" clip-rule="evenodd" d="M25.9312 52.0254H5.22656C4.70938 52.0254 4.28906 51.6066 4.28906 51.0879C4.28906 50.5707 4.70938 50.1504 5.22656 50.1504H25.9312C26.4484 50.1504 26.8687 50.5707 26.8687 51.0879C26.8687 51.6066 26.4484 52.0254 25.9312 52.0254Z" fill="#F1F3F4"/>
<path fill-rule="evenodd" clip-rule="evenodd" d="M54.7719 62.202C42.5297 62.202 32.5703 52.2426 32.5703 40.0004C32.5703 27.7582 42.5297 17.7988 54.7719 17.7988C67.0141 17.7988 76.9734 27.7582 76.9734 40.0004C76.9734 52.2426 67.0141 62.202 54.7719 62.202ZM54.7719 19.6738C43.5625 19.6738 34.4453 28.7926 34.4453 40.0004C34.4453 51.2082 43.5625 60.327 54.7719 60.327C65.9797 60.327 75.0984 51.2082 75.0984 40.0004C75.0984 28.7926 65.9797 19.6738 54.7719 19.6738Z" fill="#F1F3F4"/>
<path fill-rule="evenodd" clip-rule="evenodd" d="M54.7715 24.2863C54.2527 24.2863 53.834 23.8676 53.834 23.3488V18.7363C53.834 18.2191 54.2527 17.7988 54.7715 17.7988C55.2887 17.7988 55.709 18.2191 55.709 18.7363V23.3488C55.709 23.8676 55.2887 24.2863 54.7715 24.2863Z" fill="#F1F3F4"/>
<path fill-rule="evenodd" clip-rule="evenodd" d="M63.0953 26.5165C62.9374 26.5165 62.7765 26.4758 62.6281 26.3915C62.1796 26.1321 62.0265 25.5587 62.2843 25.1102L64.5921 21.1149C64.8499 20.6665 65.4234 20.5133 65.8718 20.7727C66.3203 21.0305 66.4734 21.604 66.2156 22.0524L63.9093 26.0477C63.7359 26.3493 63.4203 26.5165 63.0953 26.5165Z" fill="#F1F3F4"/>
<path fill-rule="evenodd" clip-rule="evenodd" d="M69.1918 32.6118C68.8683 32.6118 68.5527 32.4431 68.3792 32.1431C68.1199 31.6946 68.2746 31.1212 68.723 30.8618L72.7183 28.5556C73.1668 28.2962 73.7386 28.4509 73.998 28.8978C74.2574 29.3462 74.1027 29.9196 73.6558 30.179L69.6605 32.4853C69.5121 32.5712 69.3511 32.6118 69.1918 32.6118Z" fill="#F1F3F4"/>
<path fill-rule="evenodd" clip-rule="evenodd" d="M76.0359 40.9375H71.4219C70.9047 40.9375 70.4844 40.5172 70.4844 40C70.4844 39.4828 70.9047 39.0625 71.4219 39.0625H76.0359C76.5531 39.0625 76.9734 39.4828 76.9734 40C76.9734 40.5172 76.5531 40.9375 76.0359 40.9375Z" fill="#F1F3F4"/>
<path fill-rule="evenodd" clip-rule="evenodd" d="M73.1855 51.5708C73.0261 51.5708 72.8652 51.5302 72.7183 51.4442L68.723 49.138C68.2746 48.8786 68.1199 48.3052 68.3792 47.8567C68.6386 47.4099 69.2105 47.2552 69.6605 47.5146L73.6558 49.8208C74.1043 50.0802 74.2574 50.6536 73.998 51.1021C73.8246 51.4021 73.5089 51.5708 73.1855 51.5708Z" fill="#F1F3F4"/>
<path fill-rule="evenodd" clip-rule="evenodd" d="M65.4046 59.3536C65.0812 59.3536 64.7656 59.1848 64.5921 58.8848L62.2843 54.8895C62.0265 54.4411 62.1796 53.8676 62.6281 53.6083C63.0765 53.3489 63.6499 53.5036 63.9093 53.952L66.2156 57.9473C66.4734 58.3958 66.3203 58.9692 65.8718 59.227C65.7249 59.3129 65.564 59.3536 65.4046 59.3536Z" fill="#F1F3F4"/>
<path fill-rule="evenodd" clip-rule="evenodd" d="M54.7715 62.2004C54.2527 62.2004 53.834 61.7801 53.834 61.2629V56.6504C53.834 56.1316 54.2527 55.7129 54.7715 55.7129C55.2887 55.7129 55.709 56.1316 55.709 56.6504V61.2629C55.709 61.7801 55.2887 62.2004 54.7715 62.2004Z" fill="#F1F3F4"/>
<path fill-rule="evenodd" clip-rule="evenodd" d="M44.1372 59.3536C43.9794 59.3536 43.8185 59.3129 43.6701 59.227C43.2216 58.9692 43.0685 58.3958 43.3263 57.9473L45.6341 53.952C45.8919 53.5036 46.4654 53.3489 46.9138 53.6083C47.3622 53.8676 47.5169 54.4411 47.2576 54.8895L44.9513 58.8848C44.7779 59.1848 44.4622 59.3536 44.1372 59.3536Z" fill="#F1F3F4"/>
<path fill-rule="evenodd" clip-rule="evenodd" d="M36.3558 51.5692C36.0324 51.5692 35.7168 51.4004 35.5433 51.1004C35.2839 50.652 35.4386 50.0786 35.8871 49.8192L39.8824 47.5129C40.3293 47.2536 40.9042 47.4067 41.1621 47.8551C41.4214 48.3036 41.2667 48.877 40.8199 49.1364L36.8246 51.4426C36.6761 51.5286 36.5152 51.5692 36.3558 51.5692Z" fill="#F1F3F4"/>
<path fill-rule="evenodd" clip-rule="evenodd" d="M38.1203 40.9375H33.5078C32.9891 40.9375 32.5703 40.5172 32.5703 40C32.5703 39.4828 32.9891 39.0625 33.5078 39.0625H38.1203C38.6375 39.0625 39.0578 39.4828 39.0578 40C39.0578 40.5172 38.6375 40.9375 38.1203 40.9375Z" fill="#F1F3F4"/>
<path fill-rule="evenodd" clip-rule="evenodd" d="M40.3498 32.6122C40.1905 32.6122 40.0295 32.5715 39.8827 32.4856L35.8873 30.1794C35.4389 29.92 35.2858 29.3465 35.5436 28.8981C35.803 28.4497 36.3764 28.2965 36.8248 28.5559L40.8202 30.8622C41.2686 31.1215 41.4217 31.695 41.1623 32.1434C40.9889 32.4434 40.6733 32.6122 40.3498 32.6122Z" fill="#F1F3F4"/>
<path fill-rule="evenodd" clip-rule="evenodd" d="M46.4466 26.5165C46.1232 26.5165 45.8076 26.3493 45.6341 26.0477L43.3263 22.0524C43.0685 21.604 43.2216 21.0305 43.6701 20.7727C44.1185 20.5133 44.6919 20.6665 44.9513 21.1149L47.2576 25.1102C47.5169 25.5587 47.3622 26.1321 46.9138 26.3915C46.7669 26.4758 46.606 26.5165 46.4466 26.5165Z" fill="#F1F3F4"/>
<path fill-rule="evenodd" clip-rule="evenodd" d="M54.7717 65.7277C40.5842 65.7277 29.042 54.1871 29.042 39.9996C29.042 25.8121 40.5842 14.2715 54.7717 14.2715C68.9576 14.2715 80.4998 25.8121 80.4998 39.9996C80.4998 54.1871 68.9576 65.7277 54.7717 65.7277ZM54.7717 16.1465C41.6186 16.1465 30.917 26.8465 30.917 39.9996C30.917 53.1527 41.6186 63.8527 54.7717 63.8527C67.9248 63.8527 78.6248 53.1527 78.6248 39.9996C78.6248 26.8465 67.9248 16.1465 54.7717 16.1465Z" fill="#F1F3F4"/>
<path fill-rule="evenodd" clip-rule="evenodd" d="M54.7717 43.2434C52.9826 43.2434 51.5264 41.7887 51.5264 39.9996C51.5264 38.2105 52.9826 36.7559 54.7717 36.7559C56.5592 36.7559 58.0154 38.2105 58.0154 39.9996C58.0154 41.7887 56.5592 43.2434 54.7717 43.2434ZM54.7717 38.6309C54.0154 38.6309 53.4014 39.2449 53.4014 39.9996C53.4014 40.7543 54.0154 41.3684 54.7717 41.3684C55.5264 41.3684 56.1404 40.7543 56.1404 39.9996C56.1404 39.2449 55.5264 38.6309 54.7717 38.6309Z" fill="#F1F3F4"/>
<path fill-rule="evenodd" clip-rule="evenodd" d="M54.7715 38.6316C54.2527 38.6316 53.834 38.2113 53.834 37.6941V28.1582C53.834 27.641 54.2527 27.2207 54.7715 27.2207C55.2887 27.2207 55.709 27.641 55.709 28.1582V37.6941C55.709 38.2113 55.2887 38.6316 54.7715 38.6316Z" fill="#F1F3F4"/>
<path fill-rule="evenodd" clip-rule="evenodd" d="M63.0094 40.9375H57.0781C56.5609 40.9375 56.1406 40.5172 56.1406 40C56.1406 39.4828 56.5609 39.0625 57.0781 39.0625H63.0094C63.5266 39.0625 63.9469 39.4828 63.9469 40C63.9469 40.5172 63.5266 40.9375 63.0094 40.9375Z" fill="#F1F3F4"/>
<path fill-rule="evenodd" clip-rule="evenodd" d="M53.1856 30.6801C52.945 30.6801 52.706 30.5879 52.5231 30.4051C52.156 30.0395 52.156 29.4457 52.5216 29.0801L54.1075 27.4941C54.4747 27.127 55.0685 27.127 55.4341 27.4941L57.02 29.0801C57.3856 29.4457 57.3856 30.0395 57.02 30.4051C56.6544 30.7707 56.0606 30.7723 55.695 30.4051L54.7716 29.4832L53.8481 30.4051C53.6653 30.5879 53.4247 30.6801 53.1856 30.6801Z" fill="#F1F3F4"/>
<path fill-rule="evenodd" clip-rule="evenodd" d="M60.9379 42.0461C60.6973 42.0461 60.4582 41.9539 60.2754 41.7711C59.9082 41.4055 59.9082 40.8117 60.2754 40.4461L61.1973 39.5227L60.2754 38.5992C59.9082 38.2336 59.9082 37.6398 60.2754 37.2742C60.641 36.9086 61.2348 36.9086 61.6004 37.2742L63.1863 38.8602C63.5519 39.2258 63.5519 39.8195 63.1863 40.1852L61.6004 41.7711C61.4176 41.9539 61.177 42.0461 60.9379 42.0461Z" fill="#F1F3F4"/>
</g>
<defs>
<clipPath id="clip0_2009_766">
<rect width="80" height="80" fill="white" transform="translate(0.5)"/>
</clipPath>
</defs>
</svg>
