<svg width="80" height="80" viewBox="0 0 80 80" fill="none" xmlns="http://www.w3.org/2000/svg">
<path d="M69.4361 33.1022C69.1064 33.1022 68.7767 33.05 68.4573 32.948C67.9269 32.7748 67.3553 33.0705 67.1853 33.6034C67.0145 34.1355 67.3078 34.7047 67.8408 34.8755C68.3594 35.0416 68.8962 35.1261 69.4362 35.1261C73.6279 35.1261 77.0378 38.5359 77.0378 42.7276V55.1951C77.0378 59.382 73.6279 62.7887 69.4362 62.7887H39.4255C38.8665 62.7887 38.4136 63.2417 38.4136 63.8008C38.4136 64.3598 38.8665 64.8126 39.4255 64.8126H69.4361C74.7433 64.8126 79.0614 60.4984 79.0614 55.1951V42.7276C79.0614 37.4205 74.7433 33.1022 69.4361 33.1022Z" fill="#F1F3F4"/>
<path d="M69.4361 58.3598H39.4255C38.8665 58.3598 38.4136 58.8128 38.4136 59.3717C38.4136 59.9306 38.8665 60.3835 39.4255 60.3835H69.4361C72.2972 60.3835 74.6255 58.0553 74.6255 55.1942V42.7267C74.6255 39.8656 72.2972 37.5381 69.4361 37.5381C66.8326 37.5381 64.4395 36.2209 63.0362 34.0153C62.7358 33.5424 62.1112 33.4065 61.6392 33.7046C61.1672 34.0051 61.0289 34.6304 61.3286 35.1017C63.1058 37.8948 66.1369 39.5621 69.4361 39.5621C71.1817 39.5621 72.6015 40.982 72.6015 42.7268V55.1943C72.6015 56.9399 71.1817 58.3598 69.4361 58.3598Z" fill="#F1F3F4"/>
<path d="M36.3865 73.1972V49.9794C36.3865 48.3539 35.0638 47.0312 33.4376 47.0312C16.7338 47.0312 21.0133 47.0312 3.88709 47.0312C2.26162 47.0312 0.938965 48.3539 0.938965 49.9794V73.1973C0.938965 74.8236 2.26162 76.1462 3.88709 76.1462H33.4376C35.0638 76.1461 36.3865 74.8234 36.3865 73.1972ZM21.4183 49.0552V57.2448C21.4183 57.8172 20.9527 58.2828 20.3812 58.2828H16.9444C16.3721 58.2828 15.9065 57.8172 15.9065 57.2448V49.0552H21.4183ZM2.96287 73.1972V49.9794C2.96287 49.4694 3.37709 49.0552 3.88709 49.0552H13.8824V57.2448C13.8824 58.9336 15.2557 60.3067 16.9443 60.3067H20.381C22.069 60.3067 23.4421 58.9334 23.4421 57.2448V49.0552H33.4374C33.9474 49.0552 34.3624 49.4694 34.3624 49.9794V73.1973C34.3624 73.7073 33.9474 74.1223 33.4374 74.1223H3.88709C3.37709 74.1222 2.96287 73.7072 2.96287 73.1972Z" fill="#F1F3F4"/>
<path d="M13.0459 66.0977H6.68717C6.12826 66.0977 5.67529 66.5506 5.67529 67.1095C5.67529 67.6684 6.12826 68.1214 6.68717 68.1214H13.0459C13.6048 68.1214 14.0578 67.6684 14.0578 67.1095C14.0578 66.5506 13.6048 66.0977 13.0459 66.0977Z" fill="#F1F3F4"/>
<path d="M10.6512 69.8262H6.68717C6.12826 69.8262 5.67529 70.2791 5.67529 70.8382C5.67529 71.3973 6.12826 71.8501 6.68717 71.8501H10.6512C11.2101 71.8501 11.6631 71.3971 11.6631 70.8382C11.6631 70.2793 11.2101 69.8262 10.6512 69.8262Z" fill="#F1F3F4"/>
<path d="M63.0472 3.85352C57.3628 3.85352 52.7388 8.47851 52.7388 14.1627C52.7388 17.367 55.821 21.6279 58.5674 24.7916C56.4567 25.4371 55.2283 26.5251 55.2283 27.8557C55.2283 30.2741 59.1622 31.5398 63.0488 31.5398C66.9345 31.5398 70.8685 30.274 70.8685 27.8557C70.8685 26.5246 69.6392 25.4365 67.5275 24.7912C70.2739 21.6274 73.3556 17.367 73.3556 14.1629C73.3556 8.47836 68.7314 3.85352 63.0472 3.85352ZM63.0472 5.87742C67.6152 5.87742 71.3317 9.59398 71.3317 14.1627C71.3317 17.2484 67.0752 22.6015 63.0922 26.5821C63.0716 26.6027 63.0227 26.6027 63.0021 26.5821C59.0191 22.6015 54.7625 17.2485 54.7625 14.1627C54.7627 9.59398 58.4792 5.87742 63.0472 5.87742ZM68.8446 27.8557C68.8446 28.2826 66.8514 29.5159 63.0488 29.5159C59.2453 29.5159 57.2522 28.2826 57.2522 27.8557C57.2522 27.6654 57.9628 26.9232 60.0977 26.488C60.6483 27.0759 61.1558 27.598 61.5713 28.013C61.9658 28.4084 62.4906 28.6257 63.0474 28.6257C63.6039 28.6257 64.1289 28.4084 64.5235 28.013C64.9389 27.5979 65.4466 27.0755 65.9974 26.4877C68.1333 26.9227 68.8446 27.6652 68.8446 27.8557Z" fill="#F1F3F4"/>
<path d="M68.1658 13.798C68.1658 10.9756 65.8698 8.67969 63.0475 8.67969C60.2251 8.67969 57.9292 10.9756 57.9292 13.798C57.9292 16.6203 60.2251 18.9163 63.0475 18.9163C65.8698 18.9163 68.1658 16.6205 68.1658 13.798ZM59.9531 13.798C59.9531 12.0919 61.3414 10.7036 63.0475 10.7036C64.7536 10.7036 66.1419 12.0919 66.1419 13.798C66.1419 15.5041 64.7536 16.8923 63.0475 16.8923C61.3414 16.8923 59.9531 15.5041 59.9531 13.798Z" fill="#F1F3F4"/>
</svg>
