<svg width="80" height="81" viewBox="0 0 80 81" fill="none" xmlns="http://www.w3.org/2000/svg">
<path fill-rule="evenodd" clip-rule="evenodd" d="M59.4858 55.5889H57.8324C57.4061 55.5889 57.0535 55.9388 57.0535 56.3708C57.0535 56.8022 57.4061 57.1519 57.8324 57.1519C59.3902 57.1519 60.6614 58.418 60.6614 59.975C60.6614 61.5314 59.3902 62.7981 57.8324 62.7981H55.8263C55.4 62.7981 55.0474 63.1478 55.0474 63.5792C55.0474 64.0113 55.4 64.3603 55.8263 64.3603C57.3841 64.3603 58.6553 65.627 58.6553 67.1834C58.6553 68.7405 57.3841 70.0066 55.8263 70.0066H53.9966C53.5703 70.0066 53.2177 70.3563 53.2177 70.7884C53.2177 71.2198 53.5705 71.5695 53.9966 71.5695C55.5544 71.5695 56.8257 72.8356 56.8257 74.3927C56.8257 75.9491 55.5544 77.2158 53.9966 77.2158H37.1916C34.0172 77.2158 30.7325 77.2136 29.1013 74.2331V52.6136C29.1013 52.1852 29.035 51.7722 28.9175 51.3813C30.0711 49.5347 31.2542 48.5081 32.5035 47.4272C32.9591 47.0305 33.4367 46.6197 33.9069 46.1625C35.9275 44.2336 38.2791 39.5816 38.3966 36.2425C38.4774 34.1695 39.1314 32.883 40.2483 32.6198C40.8582 32.4759 41.4533 32.6073 42.0339 33.0094C43.1067 33.7581 43.9664 35.3534 44.1649 36.9795C44.378 38.7048 44.0546 39.8666 43.7093 41.0967C43.1875 42.9647 42.6511 44.8899 44.3044 48.3736C43.5622 48.3184 42.9818 47.9114 42.5335 47.1325C42.3203 46.7592 41.8427 46.6306 41.468 46.8467C41.0933 47.0628 40.9683 47.5403 41.1814 47.9136C41.9457 49.2414 43.0846 49.9423 44.4808 49.9423H45.5757C45.583 49.9431 45.5903 49.9431 45.605 49.9423H59.4857C61.0435 49.9423 62.3074 51.2092 62.3074 52.7655C62.3074 54.3228 61.0436 55.5889 59.4858 55.5889ZM27.5361 74.5C27.5361 75.9991 26.3163 77.2181 24.8174 77.2181H20.4085C19.6883 77.2181 19.005 76.9345 18.4907 76.4202C17.9763 75.905 17.6897 75.2239 17.6897 74.5002V52.6136C17.6897 51.1153 18.9096 49.8963 20.4085 49.8963H24.8174C26.3164 49.8963 27.5361 51.1153 27.5361 52.6136V74.5ZM59.4858 48.3803H46.0535C44.2532 44.9774 44.7014 43.3681 45.2158 41.5164C45.5685 40.2541 45.9653 38.8241 45.7155 36.7894C45.4583 34.7172 44.3635 32.7303 42.9233 31.7273C41.9827 31.0697 40.9319 30.853 39.8886 31.0991C38.8085 31.3541 36.9788 32.3542 36.8391 36.1855C36.7363 39.0659 34.5611 43.3816 32.8344 45.0333C32.3788 45.4639 31.9233 45.8622 31.475 46.2472C30.3582 47.2202 29.1971 48.2238 28.0728 49.8338C27.2866 48.9159 26.1183 48.3333 24.8177 48.3333H20.4088C18.05 48.3333 16.1322 50.2534 16.1322 52.6136V74.5C16.1322 75.6411 16.5732 76.7147 17.3814 77.5245C18.1971 78.3342 19.2699 78.7803 20.4088 78.7803H24.8177C26.5224 78.7803 27.9994 77.7794 28.6828 76.3349C30.9092 78.7758 34.3482 78.7781 37.1919 78.7781H53.9971C56.4219 78.7781 58.3839 76.8111 58.3839 74.3928C58.3839 73.2172 57.921 72.1495 57.1641 71.3609C58.935 70.7936 60.2136 69.1359 60.2136 67.1836C60.2136 66.0292 59.7653 64.9777 59.0378 64.1936C60.8675 63.6697 62.2196 61.9774 62.2196 59.975C62.2196 58.7774 61.7346 57.6905 60.9557 56.8983C62.653 56.292 63.8728 54.6681 63.8728 52.7658C63.8725 50.3475 61.9033 48.3803 59.4858 48.3803ZM70.2655 27.5595L76.6436 22.9442L68.7738 22.9597C68.1052 22.9531 67.5172 22.535 67.3189 21.9002L64.8939 14.4086L62.4764 21.9008C62.2707 22.5342 61.6902 22.9597 61.0216 22.9597L53.1517 22.9442L59.5299 27.5595C60.0663 27.9505 60.2941 28.6391 60.081 29.2731L57.6341 36.7558L63.9975 32.1163C64.5339 31.7231 65.2614 31.7231 65.7978 32.1163L72.1613 36.7558L69.7144 29.2731C69.5013 28.6397 69.7291 27.9505 70.2655 27.5595ZM78.2014 22.4378C77.9957 21.7948 77.4299 21.3759 76.7466 21.3811L68.796 21.3966L66.3491 13.8273C66.1433 13.1844 65.5702 12.7692 64.8942 12.7692C64.2182 12.7692 63.6524 13.1844 63.4394 13.8273L60.9999 21.3966L53.0492 21.3811C53.0419 21.3811 53.0419 21.3811 53.0419 21.3811C52.366 21.3811 51.8 21.7955 51.5871 22.4378C51.3813 23.0808 51.6017 23.7523 52.1455 24.1477L58.5897 28.8108L56.1208 36.3705C55.9077 37.0113 56.1282 37.6822 56.6719 38.0797C56.9511 38.2789 57.2599 38.378 57.5758 38.378C57.8844 38.378 58.2003 38.2788 58.4722 38.0803L64.8944 33.393L71.3239 38.0803C71.8677 38.4778 72.5732 38.477 73.1242 38.0795C73.668 37.682 73.8885 37.0111 73.6753 36.3703L71.2063 28.8106L77.6505 24.1475C78.1941 23.7523 78.4144 23.0808 78.2014 22.4378ZM15.1032 31.8214C14.7872 31.8214 14.4713 31.9198 14.2066 32.1161L7.84315 36.7556L10.29 29.273C10.4958 28.6389 10.2753 27.9503 9.73159 27.5594L3.35347 22.9441L11.2233 22.9595H11.2307C11.8992 22.9595 12.4799 22.5341 12.6857 21.9006L15.1032 14.4084L17.5207 21.8998C17.7264 22.5341 18.3142 22.9594 18.9757 22.9594H18.983L26.8528 22.9439L20.4747 27.5592C19.9383 27.9502 19.7105 28.6388 19.9163 29.2728L22.3632 36.7555L16.0071 32.1159C15.735 31.9198 15.4191 31.8214 15.1032 31.8214ZM23.3257 38.0798C22.7819 38.4773 22.0764 38.4781 21.5327 38.0806L15.1032 33.3933L8.67362 38.0805C8.40175 38.2789 8.09315 38.3781 7.77706 38.3781C7.46847 38.3781 7.15253 38.2789 6.88065 38.0798C6.32956 37.6823 6.11643 37.0114 6.32222 36.3706L8.79847 28.8109L2.35425 24.1478C1.80315 23.7525 1.59003 23.0809 1.79581 22.438C2.00159 21.7958 2.57472 21.3813 3.25065 21.3813L11.2086 21.3967L13.6483 13.8275C13.8541 13.1845 14.4272 12.7694 15.1033 12.7694C15.7794 12.7694 16.3525 13.1845 16.5582 13.8275L19.0052 21.3967L26.9558 21.3813C27.6319 21.3813 28.205 21.7956 28.4108 22.438C28.6239 23.0809 28.4035 23.7525 27.8524 24.1478L21.4082 28.8109L23.8844 36.3706C24.0899 37.0114 23.8769 37.6822 23.3257 38.0798ZM36.1261 12.4091C36.7949 12.4091 37.3753 11.9836 37.5811 11.3503L39.9986 3.85734L42.4161 11.3502C42.6219 11.9836 43.2097 12.4089 43.8711 12.4089H43.8785L51.7483 12.3934L45.3702 17.0088C44.8264 17.3997 44.606 18.0883 44.8117 18.7223L47.2586 26.2048L40.9025 21.5653C40.6306 21.3684 40.3147 21.27 39.9988 21.27C39.6828 21.27 39.3669 21.3684 39.1024 21.5647L32.7389 26.205L35.1858 18.7217C35.3916 18.0883 35.1711 17.3998 34.6274 17.0089L28.2492 12.3936L36.1261 12.4091ZM27.2496 13.5973C26.7058 13.2013 26.4853 12.5305 26.6911 11.8875C26.9042 11.2453 27.47 10.8308 28.1461 10.8308L36.1041 10.8463L38.5436 3.27688C38.7567 2.63391 39.3225 2.21875 39.9985 2.21875C40.6744 2.21875 41.2477 2.63391 41.4535 3.27688L43.9003 10.8463L51.851 10.8308H51.8583C52.5271 10.8308 53.1002 11.2452 53.3058 11.8875C53.5189 12.5305 53.2985 13.2014 52.7547 13.5973L46.3033 18.2605L48.7796 25.8202C48.9927 26.4609 48.7722 27.1319 48.2211 27.5294C47.6774 27.9269 46.9719 27.9269 46.4282 27.5302L39.9986 22.842L33.5764 27.5302C33.3046 27.7286 32.9886 27.8278 32.68 27.8278C32.3641 27.8278 32.0555 27.7286 31.7763 27.5294C31.2325 27.1319 31.0121 26.4609 31.2178 25.8209L33.6941 18.2605L27.2496 13.5973Z" fill="#FC7B12" stroke="#FC7B12" stroke-width="0.75"/>
</svg>
