<svg width="80" height="80" viewBox="0 0 80 80" fill="none" xmlns="http://www.w3.org/2000/svg">
<mask id="path-1-inside-1_2009_832" fill="white">
<path fill-rule="evenodd" clip-rule="evenodd" d="M61.3534 55.0192C61.6989 55.6181 61.4934 56.3823 60.8956 56.7278L60.1422 57.1617V58.0323C60.1422 58.7228 59.5831 59.2817 58.8922 59.2817C58.3844 59.2817 57.947 58.9773 57.7517 58.5414L52.7031 61.457C52.5063 61.57 52.292 61.6242 52.08 61.6242C51.6472 61.6242 51.2286 61.4005 50.9952 60.9992C50.6503 60.4011 50.8569 59.6369 51.453 59.2914L57.6428 55.718V45.2741C57.6428 44.5836 58.2016 44.0239 58.8922 44.0239C59.5831 44.0239 60.1422 44.5836 60.1422 45.2741V54.4025C60.6173 54.3525 61.0986 54.5789 61.3534 55.0192ZM58.8922 70.068C66.5705 70.068 72.8158 63.8225 72.8158 56.1444C72.8158 48.468 66.5703 42.2214 58.8922 42.2214C51.2145 42.2214 44.9692 48.4681 44.9692 56.1444C44.9692 63.8227 51.2145 70.068 58.8922 70.068ZM58.8922 39.7213C49.8361 39.7213 42.4689 47.0884 42.4689 56.1444C42.4689 65.2009 49.8361 72.5683 58.8922 72.5683C67.9486 72.5683 75.3161 65.2009 75.3161 56.1444C75.3161 47.0884 67.9486 39.7213 58.8922 39.7213ZM58.8922 74.6742C69.1098 74.6742 77.4222 66.362 77.4222 56.1444C77.4222 45.9273 69.1098 37.6152 58.8922 37.6152C48.6752 37.6152 40.3628 45.9273 40.3628 56.1444C40.3628 66.362 48.6753 74.6742 58.8922 74.6742ZM38.305 51.8511C37.4094 52.0305 36.4941 52.1211 35.5734 52.1211C27.9645 52.1211 21.7722 45.9308 21.7722 38.3198C21.7722 30.7089 27.9645 24.518 35.5734 24.518C42.8516 24.518 48.872 30.2339 49.3439 37.4109C43.7625 40.2667 39.6173 45.5461 38.305 51.8511ZM40.0391 71.315V65.4523C38.6475 62.645 37.8628 59.4852 37.8628 56.1445C37.8628 55.5747 37.8856 55.0084 37.9313 54.4494C37.1536 54.5634 36.3645 54.6212 35.5734 54.6212C26.5848 54.6212 19.2719 47.3084 19.2719 38.3198C19.2719 29.3306 26.5848 22.0184 35.5734 22.0184C39.9002 22.0184 43.9755 23.6948 47.0489 26.74C49.6892 29.3577 51.3253 32.7227 51.7581 36.362C53.9859 35.5556 56.3895 35.1152 58.8922 35.1152C62.3803 35.1152 65.6705 35.9698 68.5687 37.4795V33.8563H61.9175C61.3284 33.8563 60.8206 33.4453 60.6956 32.8702C60.0444 29.8525 58.8661 27.0075 57.1909 24.4123C56.8723 23.9167 56.9419 23.2667 57.3581 22.8494L62.063 18.1464L55.7483 11.8323L51.0441 16.5353C50.6287 16.9527 49.9788 17.0212 49.4831 16.7027C46.8861 15.0294 44.0409 13.8498 41.0252 13.1978C40.4502 13.0747 40.0391 12.565 40.0391 11.9759V5.32453H31.1097V11.9756C31.1097 12.5648 30.6986 13.0744 30.1236 13.1975C27.1066 13.8495 24.2609 15.0291 21.6656 16.7023C21.1709 17.0209 20.5209 16.9523 20.1034 16.535L15.3998 11.8309L9.08453 18.1448L13.7894 22.8491C14.2063 23.2664 14.2755 23.9164 13.9569 24.412C12.2814 27.0091 11.1031 29.8542 10.4519 32.8698C10.3283 33.445 9.81922 33.8559 9.23 33.8559H2.57812V42.785H9.23C9.81922 42.785 10.3283 43.1945 10.4519 43.7711C11.1031 46.7867 12.283 49.6325 13.9569 52.2289C14.2755 52.7244 14.2063 53.3744 13.7894 53.7905L9.08625 58.4947L15.3997 64.8087L20.1034 60.1039C20.5209 59.6884 21.1709 59.6197 21.6656 59.9384C24.2627 61.6116 27.1078 62.7919 30.1236 63.442C30.6986 63.567 31.1097 64.0747 31.1097 64.6631V71.315H40.0391ZM71.0691 39.0089V32.6058C71.0691 31.9147 70.5094 31.3558 69.8187 31.3558H62.908C62.2436 28.735 61.2097 26.2419 59.8269 23.9178L64.7142 19.0289C65.2016 18.5417 65.2016 17.7494 64.7142 17.262L56.633 9.17859C56.3983 8.94469 56.0797 8.81328 55.7483 8.81328C55.4175 8.81328 55.0989 8.94469 54.8642 9.17859L49.9766 14.0681C47.652 12.6834 45.1575 11.6506 42.5394 10.9853V4.07437C42.5394 3.38391 41.9797 2.82422 41.2894 2.82422H29.8597C29.1691 2.82422 28.61 3.38391 28.61 4.07437V10.9853C25.9895 11.6508 23.4956 12.6834 21.1722 14.0681L16.2833 9.17859C15.7953 8.69141 15.0037 8.69141 14.5156 9.17859L6.43297 17.262C6.19828 17.4959 6.06734 17.8133 6.06734 18.1447C6.06734 18.4775 6.19828 18.7947 6.43297 19.0287L11.3219 23.9177C9.93766 26.2416 8.90359 28.7366 8.23922 31.3556H1.32812C0.6375 31.3556 0.078125 31.9145 0.078125 32.6056V44.0348C0.078125 44.7239 0.6375 45.285 1.32812 45.285H8.23938C8.905 47.9037 9.93766 50.3977 11.322 52.7228L6.43437 57.6098C6.19844 57.8444 6.0675 58.163 6.0675 58.4944C6.0675 58.8258 6.19844 59.1431 6.43437 59.3784L14.5158 67.46C15.0037 67.9472 15.7953 67.9472 16.2834 67.46L21.1723 62.573C23.4956 63.9572 25.9908 64.99 28.6102 65.6541V72.565C28.6102 73.2553 29.1692 73.8144 29.8598 73.8144H41.2895C41.9798 73.8144 42.5395 73.2553 42.5395 72.565V69.3494C46.397 74.1195 52.2942 77.1744 58.8923 77.1744C70.4875 77.1744 79.9223 67.7395 79.9223 56.1442C79.9222 49.0836 76.4239 42.8239 71.0691 39.0089Z"/>
</mask>
<path fill-rule="evenodd" clip-rule="evenodd" d="M61.3534 55.0192C61.6989 55.6181 61.4934 56.3823 60.8956 56.7278L60.1422 57.1617V58.0323C60.1422 58.7228 59.5831 59.2817 58.8922 59.2817C58.3844 59.2817 57.947 58.9773 57.7517 58.5414L52.7031 61.457C52.5063 61.57 52.292 61.6242 52.08 61.6242C51.6472 61.6242 51.2286 61.4005 50.9952 60.9992C50.6503 60.4011 50.8569 59.6369 51.453 59.2914L57.6428 55.718V45.2741C57.6428 44.5836 58.2016 44.0239 58.8922 44.0239C59.5831 44.0239 60.1422 44.5836 60.1422 45.2741V54.4025C60.6173 54.3525 61.0986 54.5789 61.3534 55.0192ZM58.8922 70.068C66.5705 70.068 72.8158 63.8225 72.8158 56.1444C72.8158 48.468 66.5703 42.2214 58.8922 42.2214C51.2145 42.2214 44.9692 48.4681 44.9692 56.1444C44.9692 63.8227 51.2145 70.068 58.8922 70.068ZM58.8922 39.7213C49.8361 39.7213 42.4689 47.0884 42.4689 56.1444C42.4689 65.2009 49.8361 72.5683 58.8922 72.5683C67.9486 72.5683 75.3161 65.2009 75.3161 56.1444C75.3161 47.0884 67.9486 39.7213 58.8922 39.7213ZM58.8922 74.6742C69.1098 74.6742 77.4222 66.362 77.4222 56.1444C77.4222 45.9273 69.1098 37.6152 58.8922 37.6152C48.6752 37.6152 40.3628 45.9273 40.3628 56.1444C40.3628 66.362 48.6753 74.6742 58.8922 74.6742ZM38.305 51.8511C37.4094 52.0305 36.4941 52.1211 35.5734 52.1211C27.9645 52.1211 21.7722 45.9308 21.7722 38.3198C21.7722 30.7089 27.9645 24.518 35.5734 24.518C42.8516 24.518 48.872 30.2339 49.3439 37.4109C43.7625 40.2667 39.6173 45.5461 38.305 51.8511ZM40.0391 71.315V65.4523C38.6475 62.645 37.8628 59.4852 37.8628 56.1445C37.8628 55.5747 37.8856 55.0084 37.9313 54.4494C37.1536 54.5634 36.3645 54.6212 35.5734 54.6212C26.5848 54.6212 19.2719 47.3084 19.2719 38.3198C19.2719 29.3306 26.5848 22.0184 35.5734 22.0184C39.9002 22.0184 43.9755 23.6948 47.0489 26.74C49.6892 29.3577 51.3253 32.7227 51.7581 36.362C53.9859 35.5556 56.3895 35.1152 58.8922 35.1152C62.3803 35.1152 65.6705 35.9698 68.5687 37.4795V33.8563H61.9175C61.3284 33.8563 60.8206 33.4453 60.6956 32.8702C60.0444 29.8525 58.8661 27.0075 57.1909 24.4123C56.8723 23.9167 56.9419 23.2667 57.3581 22.8494L62.063 18.1464L55.7483 11.8323L51.0441 16.5353C50.6287 16.9527 49.9788 17.0212 49.4831 16.7027C46.8861 15.0294 44.0409 13.8498 41.0252 13.1978C40.4502 13.0747 40.0391 12.565 40.0391 11.9759V5.32453H31.1097V11.9756C31.1097 12.5648 30.6986 13.0744 30.1236 13.1975C27.1066 13.8495 24.2609 15.0291 21.6656 16.7023C21.1709 17.0209 20.5209 16.9523 20.1034 16.535L15.3998 11.8309L9.08453 18.1448L13.7894 22.8491C14.2063 23.2664 14.2755 23.9164 13.9569 24.412C12.2814 27.0091 11.1031 29.8542 10.4519 32.8698C10.3283 33.445 9.81922 33.8559 9.23 33.8559H2.57812V42.785H9.23C9.81922 42.785 10.3283 43.1945 10.4519 43.7711C11.1031 46.7867 12.283 49.6325 13.9569 52.2289C14.2755 52.7244 14.2063 53.3744 13.7894 53.7905L9.08625 58.4947L15.3997 64.8087L20.1034 60.1039C20.5209 59.6884 21.1709 59.6197 21.6656 59.9384C24.2627 61.6116 27.1078 62.7919 30.1236 63.442C30.6986 63.567 31.1097 64.0747 31.1097 64.6631V71.315H40.0391ZM71.0691 39.0089V32.6058C71.0691 31.9147 70.5094 31.3558 69.8187 31.3558H62.908C62.2436 28.735 61.2097 26.2419 59.8269 23.9178L64.7142 19.0289C65.2016 18.5417 65.2016 17.7494 64.7142 17.262L56.633 9.17859C56.3983 8.94469 56.0797 8.81328 55.7483 8.81328C55.4175 8.81328 55.0989 8.94469 54.8642 9.17859L49.9766 14.0681C47.652 12.6834 45.1575 11.6506 42.5394 10.9853V4.07437C42.5394 3.38391 41.9797 2.82422 41.2894 2.82422H29.8597C29.1691 2.82422 28.61 3.38391 28.61 4.07437V10.9853C25.9895 11.6508 23.4956 12.6834 21.1722 14.0681L16.2833 9.17859C15.7953 8.69141 15.0037 8.69141 14.5156 9.17859L6.43297 17.262C6.19828 17.4959 6.06734 17.8133 6.06734 18.1447C6.06734 18.4775 6.19828 18.7947 6.43297 19.0287L11.3219 23.9177C9.93766 26.2416 8.90359 28.7366 8.23922 31.3556H1.32812C0.6375 31.3556 0.078125 31.9145 0.078125 32.6056V44.0348C0.078125 44.7239 0.6375 45.285 1.32812 45.285H8.23938C8.905 47.9037 9.93766 50.3977 11.322 52.7228L6.43437 57.6098C6.19844 57.8444 6.0675 58.163 6.0675 58.4944C6.0675 58.8258 6.19844 59.1431 6.43437 59.3784L14.5158 67.46C15.0037 67.9472 15.7953 67.9472 16.2834 67.46L21.1723 62.573C23.4956 63.9572 25.9908 64.99 28.6102 65.6541V72.565C28.6102 73.2553 29.1692 73.8144 29.8598 73.8144H41.2895C41.9798 73.8144 42.5395 73.2553 42.5395 72.565V69.3494C46.397 74.1195 52.2942 77.1744 58.8923 77.1744C70.4875 77.1744 79.9223 67.7395 79.9223 56.1442C79.9222 49.0836 76.4239 42.8239 71.0691 39.0089Z" fill="#FC7B12" stroke="#FC7B12" mask="url(#path-1-inside-1_2009_832)"/>
</svg>
