<svg width="80" height="81" viewBox="0 0 80 81" fill="none" xmlns="http://www.w3.org/2000/svg">
<g clip-path="url(#clip0_2009_836)">
<path fill-rule="evenodd" clip-rule="evenodd" d="M37.9391 42.0046V21.2824L31.5941 27.6274L28.3703 24.4037L38.6069 14.1671C39.497 13.277 40.9405 13.277 41.8306 14.1671L52.0672 24.4037L48.8434 27.6274L42.4984 21.2824V42.0046C47.8484 42.4674 52.8967 44.5632 57.0081 48.0162L71.6695 33.3548H62.6886V28.8107H77.1653C78.42 28.8107 79.4373 29.828 79.4373 31.0827V45.5595H74.8933V36.5785L60.2319 51.2399C64.1917 55.9546 66.3417 61.8641 66.3417 68.0293V68.3418H61.7823V68.0293C61.7823 62.2904 59.5241 56.8388 55.4667 52.7815C51.4094 48.7241 45.9578 46.4659 40.2189 46.4659C34.48 46.4659 29.0284 48.7241 24.9711 52.7815C20.9137 56.8388 18.6555 62.2904 18.6555 68.0293V68.3418H14.0961V68.0293C14.0961 61.8643 16.2461 55.9546 20.2059 51.2399L5.54453 36.5785V45.5595H1L1 31.0827C1 29.828 2.01734 28.8107 3.27203 28.8107H17.7488V33.3548H8.76781L23.4292 48.0162C27.5406 44.5632 32.5891 42.4674 37.9391 42.0046Z" fill="#FC7B12" stroke="#E6E6E6" stroke-width="1.5"/>
</g>
<defs>
<clipPath id="clip0_2009_836">
<rect width="80" height="80" fill="white" transform="matrix(0 -1 1 0 0 80.5)"/>
</clipPath>
</defs>
</svg>
