<svg width="683" height="683" viewBox="0 0 683 683" fill="none" xmlns="http://www.w3.org/2000/svg">
<mask id="mask0_557_206" style="mask-type:luminance" maskUnits="userSpaceOnUse" x="0" y="-1" width="683" height="684">
<path d="M0 -0.00012207H682.667V682.667H0V-0.00012207Z" fill="white"/>
</mask>
<g mask="url(#mask0_557_206)">
<path d="M37.824 181.834C26.684 174.412 20 161.922 20 148.545V148.512C20 124.862 39.1733 105.69 62.824 105.69H619.841C643.491 105.69 662.664 124.862 662.664 148.512V148.533V148.545C662.664 161.922 655.981 174.412 644.841 181.834C590.483 218.081 426.688 327.269 365.1 368.336C350.705 377.933 331.96 377.933 317.565 368.336C255.976 327.269 92.1827 218.081 37.824 181.834Z" stroke="black" stroke-width="40" stroke-miterlimit="10" stroke-linecap="round" stroke-linejoin="round"/>
<path d="M20 148.534V534.132C20 545.496 24.5093 556.39 32.5533 564.423C40.5867 572.467 51.48 576.976 62.844 576.976H619.82C631.184 576.976 642.077 572.467 650.111 564.423C658.155 556.39 662.664 545.496 662.664 534.132V148.534" stroke="black" stroke-width="40" stroke-miterlimit="10" stroke-linecap="round" stroke-linejoin="round"/>
</g>
</svg>
