<svg width="25" height="24" viewBox="0 0 25 24" fill="none" xmlns="http://www.w3.org/2000/svg">
<path d="M9.65798 19.046C4.33299 19.046 0 14.775 0 9.52398C0 4.27299 4.33299 0 9.65798 0C14.983 0 19.315 4.27199 19.315 9.52298C19.315 14.774 14.983 19.046 9.65798 19.046ZM9.65798 2C5.43499 2 2 5.37499 2 9.52298C2 13.67 5.43599 17.045 9.65798 17.045C13.88 17.045 17.315 13.67 17.315 9.52298C17.315 5.37499 13.881 2 9.65798 2Z" fill="white"/>
<path d="M23.125 24.0001C22.872 24.0001 22.618 23.9041 22.424 23.7131L14.9641 16.3692C14.5701 15.9812 14.5661 15.3482 14.9521 14.9552C15.3401 14.5612 15.9731 14.5562 16.3661 14.9432L23.826 22.2871C24.22 22.6751 24.224 23.3081 23.838 23.7011C23.642 23.9001 23.384 24.0001 23.125 24.0001Z" fill="white"/>
</svg>
