<svg width="81" height="80" viewBox="0 0 81 80" fill="none" xmlns="http://www.w3.org/2000/svg">
<g clip-path="url(#clip0_2009_608)">
<path fill-rule="evenodd" clip-rule="evenodd" d="M76.4936 77.9327H4.50641C3.94539 77.9327 3.49066 77.4782 3.49066 76.9171V31.1406C3.49066 30.5797 3.94539 30.125 4.50641 30.125H76.4936C77.0544 30.125 77.5091 30.5797 77.5091 31.1406V76.9171C77.5091 77.478 77.0544 77.9327 76.4936 77.9327ZM5.52173 75.9016H75.4778V32.1563H5.52173V75.9016Z" fill="#FC7B12"/>
<path fill-rule="evenodd" clip-rule="evenodd" d="M79.4842 77.9315H1.51533C0.954483 77.9315 0.499756 77.477 0.499756 76.916C0.499756 76.3549 0.954482 75.9004 1.51533 75.9004H79.4842C80.0451 75.9004 80.4998 76.3551 80.4998 76.916C80.4998 77.477 80.0451 77.9315 79.4842 77.9315Z" fill="#FC7B12"/>
<path fill-rule="evenodd" clip-rule="evenodd" d="M76.4936 32.156H4.50645C4.07332 32.156 3.68761 31.881 3.54625 31.4717C3.40488 31.0622 3.53887 30.6082 3.87991 30.341L39.6892 2.28454C40.0556 1.99757 40.5701 1.99609 40.9381 2.2814L77.1163 30.3378C77.4594 30.604 77.5954 31.0587 77.4548 31.4695C77.3141 31.8801 76.9279 32.156 76.4936 32.156ZM7.44928 30.1247H73.5269L40.3188 4.37155L7.44928 30.1247Z" fill="#FC7B12"/>
<path fill-rule="evenodd" clip-rule="evenodd" d="M42.8207 68.7071H38.1788C37.6776 68.7071 37.2511 68.3414 37.1749 67.8459L36.4791 63.3228C35.7644 63.0135 35.0898 62.623 34.4633 62.1566L30.196 63.8166C29.7289 63.998 29.1991 63.8122 28.9483 63.3778L26.6272 59.3576C26.3766 58.9235 26.4801 58.3713 26.871 58.0578L30.442 55.1921C30.3977 54.8061 30.3754 54.4167 30.3754 54.0284C30.3754 53.6401 30.3977 53.2507 30.442 52.8648L26.871 49.9991C26.4801 49.6852 26.3766 49.1332 26.6272 48.6992L28.9483 44.679C29.1991 44.2449 29.7291 44.0587 30.196 44.2403L34.4633 45.9003C35.09 45.4338 35.7646 45.0435 36.4791 44.7342L37.1749 40.2109C37.2511 39.7154 37.6774 39.3496 38.1788 39.3496L42.8207 39.35C43.322 39.35 43.7485 39.7158 43.8247 40.2111L44.5204 44.7344C45.235 45.0437 45.9097 45.4342 46.5362 45.9005L50.8035 44.2405C51.2708 44.0587 51.8007 44.2451 52.0511 44.6794L54.372 48.6994C54.6226 49.1334 54.5191 49.6858 54.1282 49.9993L50.5572 52.865C50.6017 53.2512 50.624 53.6406 50.624 54.0287C50.624 54.4169 50.6017 54.8064 50.5574 55.1923L54.1284 58.058C54.5192 58.3717 54.6228 58.9239 54.3722 59.3579L52.0513 63.3779C51.8005 63.8122 51.2705 63.9986 50.8035 63.8168L46.5361 62.1566C45.9099 62.6228 45.2354 63.0129 44.5206 63.3224L43.8249 67.846C43.7485 68.3414 43.3222 68.7071 42.8207 68.7071ZM39.0502 66.676H41.9495L42.6013 62.4393C42.6576 62.0726 42.9099 61.7657 43.2587 61.6391C44.1534 61.3143 44.9774 60.8376 45.7082 60.2225C45.9922 59.9832 46.3842 59.9177 46.7306 60.0529L50.7281 61.6078L52.1775 59.0968L48.8341 56.4135C48.5449 56.1817 48.4052 55.8104 48.4694 55.4453C48.5513 54.9797 48.593 54.503 48.593 54.0287C48.593 53.5548 48.5513 53.0783 48.4692 52.6123C48.405 52.2473 48.5445 51.876 48.8339 51.644L52.1775 48.9607L50.7281 46.4499L46.7309 48.0047C46.3847 48.1396 45.9926 48.0743 45.7087 47.8351C44.9766 47.2193 44.1524 46.7424 43.2587 46.4182C42.9099 46.2916 42.6576 45.9847 42.6011 45.6178L41.9495 41.3817H39.0502L38.3986 45.6178C38.3423 45.9849 38.09 46.2918 37.7411 46.4182C36.8475 46.7424 36.0233 47.2191 35.2915 47.8351C35.0073 48.0745 34.6152 48.1396 34.2692 48.0047L30.2718 46.4499L28.8222 48.9607L32.166 51.644C32.4552 51.8762 32.5949 52.2473 32.5305 52.6125C32.4486 53.0778 32.4067 53.5543 32.4067 54.0287C32.4067 54.5034 32.4484 54.9799 32.5305 55.4451C32.5949 55.8104 32.4552 56.1817 32.166 56.4137L28.8222 59.0968L30.2718 61.6078L34.2692 60.0529C34.6152 59.9179 35.0073 59.9834 35.2915 60.2225C36.0229 60.8384 36.8471 61.3151 37.7411 61.6395C38.09 61.7659 38.3423 62.0728 38.3986 62.4397L39.0502 66.676Z" fill="#FC7B12"/>
<path fill-rule="evenodd" clip-rule="evenodd" d="M40.4999 59.8829C37.2716 59.8829 34.6454 57.2566 34.6454 54.0284C34.6454 50.8003 37.2716 48.1738 40.4999 48.1738C43.728 48.1738 46.3543 50.8003 46.3543 54.0284C46.3543 57.2566 43.728 59.8829 40.4999 59.8829ZM40.4999 50.2054C38.3918 50.2054 36.6766 51.9205 36.6766 54.0286C36.6766 56.1367 38.3918 57.8519 40.4999 57.8519C42.608 57.8519 44.3232 56.1367 44.3232 54.0286C44.3232 51.9205 42.608 50.2054 40.4999 50.2054Z" fill="#FC7B12"/>
<path fill-rule="evenodd" clip-rule="evenodd" d="M71.3593 55.0429H55.3435C54.7827 55.0429 54.3279 54.5883 54.3279 54.0273C54.3279 53.4663 54.7827 53.0117 55.3435 53.0117H71.3593C71.9203 53.0117 72.3751 53.4663 72.3751 54.0273C72.3751 54.5883 71.9203 55.0429 71.3593 55.0429Z" fill="#FC7B12"/>
<path fill-rule="evenodd" clip-rule="evenodd" d="M65.6959 59.3889C65.3908 59.3889 65.0893 59.2519 64.8892 58.9913C64.5476 58.5462 64.632 57.9088 65.0767 57.5674L69.6908 54.0274L65.0767 50.4874C64.6318 50.1458 64.5476 49.5083 64.8892 49.0634C65.2308 48.6184 65.8681 48.5345 66.3134 48.8759L71.9777 53.2216C72.2283 53.4137 72.3751 53.7118 72.3751 54.0274C72.3751 54.3431 72.2283 54.641 71.9777 54.8333L66.3134 59.179C66.1288 59.3204 65.9114 59.3889 65.6959 59.3889Z" fill="#FC7B12"/>
<path fill-rule="evenodd" clip-rule="evenodd" d="M25.6562 55.0429H9.64045C9.07942 55.0429 8.62469 54.5883 8.62469 54.0273C8.62469 53.4663 9.07942 53.0117 9.64045 53.0117H25.6562C26.2171 53.0117 26.6718 53.4663 26.6718 54.0273C26.6718 54.5883 26.2171 55.0429 25.6562 55.0429Z" fill="#FC7B12"/>
<path fill-rule="evenodd" clip-rule="evenodd" d="M15.3039 59.3891C15.0883 59.3891 14.8709 59.3207 14.6864 59.1791L9.02203 54.8334C8.77141 54.6413 8.62469 54.3432 8.62469 54.0276C8.62469 53.7119 8.77159 53.414 9.02203 53.2217L14.6864 48.876C15.1317 48.5344 15.7689 48.6185 16.1105 49.0635C16.4519 49.5086 16.368 50.146 15.9228 50.4874L11.3088 54.0275L15.9228 57.5675C16.368 57.909 16.4519 58.5465 16.1105 58.9914C15.9105 59.2522 15.6089 59.3891 15.3039 59.3891Z" fill="#FC7B12"/>
<path fill-rule="evenodd" clip-rule="evenodd" d="M40.4998 24.7673C37.14 24.7673 34.4061 22.0337 34.4061 18.6737C34.4061 15.3138 37.1398 12.5801 40.4998 12.5801C43.8599 12.5801 46.5936 15.3136 46.5936 18.6737C46.5936 22.0339 43.8599 24.7673 40.4998 24.7673ZM40.4998 14.6112C38.2598 14.6112 36.4374 16.4338 36.4374 18.6737C36.4374 20.9137 38.2598 22.7361 40.4998 22.7361C42.7399 22.7361 44.5623 20.9137 44.5623 18.6737C44.5623 16.4338 42.7399 14.6112 40.4998 14.6112Z" fill="#FC7B12"/>
</g>
<defs>
<clipPath id="clip0_2009_608">
<rect width="80" height="80" fill="white" transform="translate(0.5)"/>
</clipPath>
</defs>
</svg>
