<svg width="116" height="72" viewBox="0 0 116 72" fill="none" xmlns="http://www.w3.org/2000/svg">
<path d="M84.3197 1.80005C81.9168 -0.600016 78.0223 -0.600016 75.6194 1.80005C73.2173 4.20012 73.2173 8.09217 75.6194 10.4922L94.9972 29.8535H6.1515C2.75394 29.8535 0 32.6052 0 35.9999C0 39.3946 2.75394 42.1462 6.1515 42.1462H94.9972L75.6194 61.5075C73.2173 63.9076 73.2173 67.7997 75.6194 70.1997C76.8209 71.3998 78.3956 72 79.9696 72C81.5435 72 83.1182 71.3998 84.3197 70.1997L114.198 40.346C116.601 37.9459 116.601 34.0539 114.198 31.6538L84.3197 1.80005Z" fill="url(#paint0_linear_3204_11969)"/>
<defs>
<linearGradient id="paint0_linear_3204_11969" x1="8.7132" y1="72" x2="58" y2="72" gradientUnits="userSpaceOnUse">
<stop offset="0.0542986" stop-color="#304D75"/>
<stop offset="1" stop-color="#F47920"/>
</linearGradient>
</defs>
</svg>
