<svg width="97" height="96" viewBox="0 0 97 96" fill="none" xmlns="http://www.w3.org/2000/svg">
<path d="M45.3525 31.2299V56.8037" stroke="#FF0000" stroke-width="2" stroke-miterlimit="10"/>
<mask id="mask0_346_174" style="mask-type:luminance" maskUnits="userSpaceOnUse" x="4" y="6" width="83" height="83">
<path d="M4.43457 6.29529H86.2706V88.1313H4.43457V6.29529Z" fill="white"/>
</mask>
<g mask="url(#mask0_346_174)">
<path d="M82.0662 71.0613L53.935 14.799C52.3618 11.6525 49.1093 9.49195 45.3522 9.49195C41.5949 9.49195 38.3424 11.6525 36.7693 14.799L8.63815 71.0613C7.99353 72.3504 7.63086 73.805 7.63086 75.3444C7.63086 80.6409 11.9245 84.9346 17.221 84.9346H73.4833C78.7796 84.9346 83.0735 80.6409 83.0735 75.3444C83.0735 73.805 82.7106 72.3504 82.0662 71.0613Z" stroke="#565050" stroke-width="2" stroke-miterlimit="10"/>
<path d="M48.5487 66.3936C48.5487 68.1592 47.1175 69.5903 45.352 69.5903C43.5864 69.5903 42.1553 68.1592 42.1553 66.3936C42.1553 64.6281 43.5864 63.1969 45.352 63.1969C47.1175 63.1969 48.5487 64.6281 48.5487 66.3936Z" fill="#2BB04C"/>
</g>
</svg>
