<svg width="67" height="74" viewBox="0 0 67 74" fill="none" xmlns="http://www.w3.org/2000/svg">
<path fill-rule="evenodd" clip-rule="evenodd" d="M1.20656 0.845703H5.935C6.42203 0.845703 6.81687 1.24055 6.81687 1.72758V17.144H8.19766V2.00664C8.19766 1.51961 8.5925 1.12477 9.07953 1.12477H27.3708C27.8578 1.12477 28.2527 1.51961 28.2527 2.00664V17.144H30.8917V2.00664C30.8917 1.51961 31.2866 1.12477 31.7736 1.12477H50.065C50.552 1.12477 50.9469 1.51961 50.9469 2.00664V17.144H60.1831V1.72758C60.1831 1.24055 60.578 0.845703 61.065 0.845703H65.7934C66.2805 0.845703 66.6753 1.24055 66.6753 1.72758V72.2735C66.6753 72.7605 66.2805 73.1554 65.7934 73.1554H61.065C60.578 73.1554 60.1831 72.7605 60.1831 72.2735V68.5566H6.81703V72.2735C6.81703 72.7605 6.42219 73.1554 5.93516 73.1554H1.20672C0.719688 73.1554 0.324844 72.7605 0.324844 72.2735V1.72758C0.324844 1.24055 0.719531 0.845703 1.20656 0.845703ZM19.1683 16.2076H24.0439C25.2039 16.2076 25.2039 14.4438 24.0439 14.4438H19.1683C18.0083 14.4438 18.0083 16.2076 19.1683 16.2076ZM20.2602 13.726H22.952C24.112 13.726 24.112 11.9623 22.952 11.9623H20.2602C19.1002 11.9623 19.1002 13.726 20.2602 13.726ZM17.2666 2.88852V4.56383L17.5602 4.22492C17.9144 3.81539 18.5511 3.82305 18.8977 4.23398L19.1836 4.56398V2.88852H17.2666ZM20.9472 2.88852L20.9445 6.92398C20.9442 7.72445 19.9377 8.11992 19.4006 7.4993L18.2252 6.14273L17.0944 7.44773C16.5948 8.12352 15.5031 7.7782 15.5031 6.92398V2.88852H9.96141V17.144H26.4891V2.88852H20.9472ZM51.668 28.4943V30.7596C51.668 31.2466 51.2731 31.6415 50.7861 31.6415H48.2172C47.7302 31.6415 47.3353 31.2466 47.3353 30.7596V28.4943H44.3217V39.6045H54.6816V28.4943H51.668ZM49.0991 28.4943V29.8777H49.9044V28.4943H49.0991ZM42.5581 39.6045V27.6126C42.5581 27.1255 42.953 26.7307 43.44 26.7307H55.5634C56.0505 26.7307 56.4453 27.1255 56.4453 27.6126V39.6045H60.1828V23.6363H6.81703V39.6045H10.5545V32.6726C10.5545 32.1855 10.9494 31.7907 11.4364 31.7907H19.2502C19.7372 31.7907 20.132 32.1855 20.132 32.6726V39.6045H24.9538V28.7921C24.9538 28.3051 25.3486 27.9102 25.8356 27.9102H36.855C37.342 27.9102 37.7369 28.3051 37.7369 28.7921V39.6045H42.5581ZM18.3681 39.6045V33.5543H12.3181V39.6045H18.3681ZM35.9728 39.6045V29.6738H26.7172V39.6045H35.9728ZM19.8769 49.6837V51.3401L20.8547 50.5762C21.1839 50.319 21.6389 50.3337 21.9497 50.5866L22.9142 51.3401V49.6837H19.8769ZM24.678 49.6837L24.6747 53.1438C24.6752 53.8652 23.8372 54.2907 23.2553 53.8362L21.3955 52.3834L19.5953 53.7898C19.0392 54.307 18.1131 53.9201 18.1131 53.1438V49.6837H10.3478V62.0648H32.4433V49.6837H24.678ZM8.58422 62.0648V48.8019C8.58422 48.3149 8.97906 47.9201 9.46609 47.9201H33.3252C33.8122 47.9201 34.207 48.3149 34.207 48.8019V62.0648H38.0752V48.7968C38.0752 48.3098 38.47 47.9149 38.957 47.9149H57.5336C58.0206 47.9149 58.4155 48.3098 58.4155 48.7968V62.0648H60.183V46.0966H6.81703V62.0648H8.58422ZM47.258 49.6787V51.0135L47.6217 50.6485C47.9641 50.3043 48.5209 50.3027 48.8652 50.6451L49.2323 51.0135V49.6787H47.258ZM50.9961 49.6787L50.9934 53.144C50.9934 53.9179 50.0478 54.3241 49.4908 53.764L48.2452 52.5141L47.0459 53.7174C46.52 54.3312 45.4942 53.9674 45.4942 53.144V49.6787H39.8387V62.0648H56.6517V49.6787H50.9961ZM41.8624 16.2079H46.738C47.898 16.2079 47.898 14.4441 46.738 14.4441H41.8624C40.7024 14.4441 40.7024 16.2079 41.8624 16.2079ZM42.9542 13.7263H45.6461C46.8061 13.7263 46.8061 11.9626 45.6461 11.9626H42.9542C41.7942 11.9626 41.7942 13.7263 42.9542 13.7263ZM39.9606 2.88883V4.56414L40.2544 4.22523C40.6086 3.8157 41.2453 3.82336 41.5919 4.2343L41.8778 4.5643V2.88883H39.9606ZM43.6414 2.88883L43.6387 6.9243C43.6384 7.72477 42.6319 8.12023 42.0948 7.49961L40.9194 6.14305L39.7886 7.44805C39.2891 8.12383 38.1973 7.77852 38.1973 6.9243V2.88883H32.6556V17.1443H49.1833V2.88852L43.6414 2.88883ZM6.81703 44.3327H60.1831V41.3679H6.81703V44.3327ZM60.1831 66.793V63.8282H6.81703V66.793H60.1831ZM6.81703 18.9076V21.8724H60.1831V18.9076H6.81703ZM64.9116 2.60945H61.9467V71.3916H64.9116V2.60945ZM5.05328 2.60945H2.08844V71.3916H5.05328V2.60945Z" fill="#FC7B12"/>
</svg>
