<svg width="30" height="30" viewBox="0 0 30 30" fill="none" xmlns="http://www.w3.org/2000/svg">
<g id="Vector">
<path fill-rule="evenodd" clip-rule="evenodd" d="M6.79949 1.29913H23.187C26.2324 1.29913 28.6978 3.76451 28.6978 6.80995V23.1974C28.6978 26.2429 26.2324 28.7082 23.187 28.7082H6.79949C3.75404 28.7082 1.28867 26.2429 1.28867 23.1974V6.80995C1.28867 3.76451 3.75404 1.29913 6.79949 1.29913Z" fill="#61A9EB"/>
<path fill-rule="evenodd" clip-rule="evenodd" d="M7.41806 12.2545H10.4787V22.5322H7.41806V12.2545ZM8.92947 7.04011C9.94969 7.04011 10.781 7.87138 10.781 8.89159C10.781 9.91179 9.94969 10.7431 8.92947 10.7431C7.90925 10.7431 7.11576 9.9118 7.11576 8.89159C7.11576 7.87137 7.90926 7.04011 8.92947 7.04011ZM12.2924 12.2545H15.3152V13.6904C15.9576 12.7457 17.0156 12.1411 18.2247 12.1411H19.056C20.9831 12.1411 22.5323 13.7281 22.5323 15.6174V22.5322H19.5094V16.9777C19.4717 15.8064 18.6782 14.8995 17.5068 14.8995C16.3354 14.8995 15.353 15.8064 15.3152 16.9777V22.5322H12.2924V12.2545Z" fill="white"/>
</g>
</svg>
