<svg width="33" height="24" viewBox="0 0 33 24" fill="none" xmlns="http://www.w3.org/2000/svg">
<path d="M11.2404 15.1699H5.23045C4.94045 15.1699 4.71045 15.3999 4.71045 15.6899C4.71045 15.9799 4.94045 16.2099 5.23045 16.2099H11.2404C11.5304 16.2099 11.7604 15.9799 11.7604 15.6899C11.7604 15.3999 11.5304 15.1699 11.2404 15.1699Z" fill="white"/>
<path d="M26.8903 15.9608C26.8903 14.9108 26.0303 14.0508 24.9803 14.0508C23.9303 14.0508 23.0703 14.9108 23.0703 15.9608C23.0703 17.0108 23.9303 17.8708 24.9803 17.8708C26.0303 17.8708 26.8903 17.0108 26.8903 15.9608ZM24.1003 15.9608C24.1003 15.4808 24.4903 15.0908 24.9703 15.0908C25.4503 15.0908 25.8403 15.4808 25.8403 15.9608C25.8403 16.4408 25.4503 16.8308 24.9703 16.8308C24.4903 16.8308 24.1003 16.4408 24.1003 15.9608Z" fill="white"/>
<path d="M31.71 18.615C30.29 18.615 29.54 18.995 28.87 19.325C28.44 19.545 28.05 19.735 27.49 19.845L31 11.975C31.07 11.815 31.06 11.625 30.96 11.475C30.86 11.325 30.7 11.235 30.52 11.235H27.23V1.115C27.23 0.935 27.14 0.765 26.98 0.675C25.52 -0.225 24.07 -0.225 22.66 0.675C22.51 0.775 22.42 0.935 22.42 1.115V5.565H19.6C19.37 5.565 19.16 5.71499 19.1 5.94499L17.15 12.695H16.18V10.165C16.18 9.875 15.95 9.64499 15.66 9.64499H15.26V7.095C15.26 6.805 15.03 6.575 14.74 6.575H11.2H4.18C3.89 6.575 3.66 6.805 3.66 7.095V9.64499H3.26C2.97 9.64499 2.74 9.875 2.74 10.165V12.695H0.94C0.76 12.695 0.6 12.785 0.51 12.935C0.41 13.085 0.4 13.265 0.47 13.425L2.95 19.135C2.37 18.865 1.66 18.615 0.52 18.615C0.23 18.615 0 18.845 0 19.135C0 19.425 0.23 19.655 0.52 19.655C1.7 19.655 2.25 19.935 2.88 20.255C3.15 20.395 3.44 20.535 3.79 20.665H3.81C3.92 20.705 4.05 20.745 4.17 20.775C4.2 20.775 4.23 20.795 4.27 20.805C4.37 20.835 4.48 20.855 4.6 20.875C4.64 20.875 4.68 20.895 4.72 20.895C4.83 20.915 4.94 20.925 5.06 20.935C5.1 20.935 5.15 20.945 5.19 20.945C5.35 20.955 5.52 20.965 5.7 20.965C7.12 20.965 7.87 20.585 8.53 20.255C9.17 19.935 9.71999 19.655 10.89 19.655C12.06 19.655 12.62 19.935 13.26 20.255C13.92 20.585 14.67 20.965 16.09 20.965C17.51 20.965 18.26 20.585 18.93 20.255C19.57 19.935 20.12 19.655 21.3 19.655C22.48 19.655 23.03 19.935 23.67 20.255C24.33 20.585 25.08 20.965 26.51 20.965C26.55 20.965 26.58 20.965 26.62 20.965H26.67C27.99 20.935 28.71 20.575 29.35 20.255C29.99 19.935 30.54 19.655 31.72 19.655C32.01 19.655 32.24 19.425 32.24 19.135C32.24 18.845 32.01 18.615 31.72 18.615H31.71ZM23.48 1.40499C24.38 0.915 25.28 0.915 26.21 1.40499V11.235H25.16V6.085C25.16 5.94501 25.11 5.81499 25.02 5.71499C24.93 5.615 24.79 5.565 24.65 5.565H23.49V1.40499H23.48ZM20.01 6.605H24.13V11.235H21.99C21.7 11.235 21.47 11.465 21.47 11.755V12.695H18.26L20.02 6.605H20.01ZM8.05 12.695V10.685H15.16V12.695H8.05ZM14.23 9.64499H11.73V7.615H14.23V9.64499ZM4.71 7.615H10.69V9.64499H4.71V7.615ZM3.79 10.685H7.01V12.695H3.79V10.685ZM21.31 18.615C19.89 18.615 19.14 18.995 18.47 19.325C17.83 19.645 17.28 19.925 16.1 19.925C14.92 19.925 14.37 19.645 13.73 19.325C13.07 18.995 12.32 18.615 10.9 18.615C9.48 18.615 8.73 18.995 8.07 19.325C7.43 19.645 6.88 19.925 5.71 19.925C5.57 19.925 5.45 19.925 5.32 19.915C5.21 19.915 5.11 19.895 5 19.885H4.98C4.76 19.855 4.54 19.815 4.34 19.755L1.73 13.735H3.16C3.16 13.735 3.23 13.745 3.27 13.745H15.67C15.67 13.745 15.75 13.745 15.78 13.735H21.98C22.27 13.735 22.5 13.505 22.5 13.215V12.275H29.73L26.32 19.915C26.32 19.915 26.24 19.915 26.2 19.915C26.14 19.915 26.09 19.915 26.03 19.905C25.96 19.905 25.9 19.895 25.83 19.885C25.78 19.885 25.73 19.875 25.68 19.865C25.62 19.865 25.56 19.845 25.51 19.835C25.46 19.835 25.42 19.815 25.38 19.805C25.33 19.795 25.27 19.775 25.22 19.765C25.18 19.755 25.14 19.745 25.1 19.735C25.05 19.715 25 19.705 24.95 19.685C24.91 19.675 24.88 19.665 24.84 19.645C24.79 19.625 24.74 19.605 24.69 19.585C24.66 19.575 24.63 19.555 24.6 19.545C24.55 19.525 24.5 19.495 24.45 19.475C24.42 19.465 24.4 19.455 24.37 19.435C24.29 19.395 24.22 19.365 24.14 19.325C23.48 18.995 22.73 18.615 21.31 18.615Z" fill="white"/>
<path d="M32.1902 21.1113C30.7702 21.1113 30.0202 21.4913 29.3502 21.8213C28.7102 22.1413 28.1602 22.4213 26.9802 22.4213C25.8002 22.4213 25.2502 22.1413 24.6102 21.8213C23.9502 21.4913 23.2002 21.1113 21.7702 21.1113C20.3402 21.1113 19.6002 21.4913 18.9302 21.8213C18.2902 22.1413 17.7402 22.4213 16.5602 22.4213C15.3802 22.4213 14.8302 22.1413 14.1902 21.8213C13.5302 21.4913 12.7802 21.1113 11.3602 21.1113C9.94022 21.1113 9.19022 21.4913 8.53022 21.8213C7.89022 22.1413 7.34021 22.4213 6.17021 22.4213C5.00021 22.4213 4.44021 22.1413 3.81021 21.8213C3.15021 21.4913 2.40021 21.1113 0.980215 21.1113C0.700215 21.1113 0.470215 21.3513 0.470215 21.6313C0.470215 21.9113 0.700215 22.1513 0.990215 22.1513C2.17021 22.1513 2.72021 22.4313 3.35021 22.7513C4.01022 23.0813 4.76021 23.4613 6.18021 23.4613C7.60021 23.4613 8.35021 23.0813 9.01021 22.7513C9.65022 22.4313 10.2002 22.1513 11.3702 22.1513C12.5402 22.1513 13.1002 22.4313 13.7402 22.7513C14.4002 23.0813 15.1502 23.4613 16.5702 23.4613C17.9902 23.4613 18.7402 23.0813 19.4102 22.7513C20.0502 22.4313 20.6002 22.1513 21.7802 22.1513C22.9602 22.1513 23.5102 22.4313 24.1502 22.7513C24.8102 23.0813 25.5602 23.4613 26.9902 23.4613C28.4202 23.4613 29.1602 23.0813 29.8302 22.7513C30.4702 22.4313 31.0202 22.1513 32.2002 22.1513C32.4902 22.1513 32.7202 21.9213 32.7202 21.6313C32.7202 21.3413 32.4902 21.1113 32.2002 21.1113H32.1902Z" fill="white"/>
</svg>
