<svg width="25" height="25" viewBox="0 0 25 25" fill="none" xmlns="http://www.w3.org/2000/svg">
<path d="M24.3435 11.8373H23.1881L13.9788 7.23833C14.2959 6.87585 14.4772 6.41142 14.4772 5.92433C14.4772 5.56185 14.1826 5.26733 13.8202 5.26733C13.4577 5.26733 13.1632 5.56185 13.1632 5.92433C13.1632 6.18487 13.0046 6.43407 12.7554 6.53602C12.5062 6.63797 12.223 6.58133 12.0417 6.38876C11.8492 6.19619 11.7925 5.913 11.8945 5.67513C11.9964 5.42592 12.2343 5.26733 12.5062 5.26733C12.6761 5.26733 12.846 5.19937 12.9706 5.07476C13.0952 4.95016 13.1632 4.78025 13.1632 4.61033V3.29633H13.8202C13.9901 3.29633 14.16 3.22836 14.2846 3.10376C14.4092 2.97916 14.4772 2.80924 14.4772 2.63933V0.657C14.4772 0.487087 14.4092 0.317173 14.2846 0.192569C14.16 0.0679656 13.9901 0 13.8202 0H11.1922C10.8297 0 10.5352 0.294517 10.5352 0.657V2.628C10.5352 2.79792 10.6031 2.96783 10.7277 3.09243C10.8523 3.21704 11.0222 3.285 11.1922 3.285H11.8492V4.06661C11.2261 4.29316 10.7617 4.8029 10.6031 5.43725C10.4445 6.07159 10.6031 6.75125 11.0449 7.23833L1.77892 11.8373H0.657488C0.295005 11.8373 0.000488281 12.1319 0.000488281 12.4943V24.3317C0.000488281 24.5016 0.0684539 24.6715 0.193057 24.7961C0.317661 24.9207 0.487575 24.9887 0.657488 24.9887H24.3435C24.5134 24.9887 24.6833 24.9207 24.8079 24.7961C24.9325 24.6715 25.0005 24.5016 25.0005 24.3317V12.4943C25.0005 12.3244 24.9325 12.1545 24.8079 12.0299C24.6833 11.9053 24.5134 11.8373 24.3435 11.8373ZM11.8378 1.314H13.1518V1.971H11.8378V1.314ZM12.4948 7.97463L20.2316 11.8373H4.7241L12.4948 7.97463ZM23.6752 23.686H1.31449V13.1627H23.6865V23.686H23.6752Z" fill="white"/>
<path d="M12.4949 14.4766C12.1324 14.4766 11.8379 14.7711 11.8379 15.1336V21.7149C11.8379 22.0774 12.1324 22.3719 12.4949 22.3719C12.8574 22.3719 13.1519 22.0774 13.1519 21.7149V15.1336C13.1519 14.9637 13.0839 14.7938 12.9593 14.6692C12.8347 14.5446 12.6648 14.4766 12.4949 14.4766Z" fill="white"/>
<path d="M8.553 14.4766C8.19052 14.4766 7.896 14.7711 7.896 15.1336V21.7149C7.896 22.0774 8.19052 22.3719 8.553 22.3719C8.91548 22.3719 9.21 22.0774 9.21 21.7149V15.1336C9.21 14.9637 9.14203 14.7938 9.01743 14.6692C8.89283 14.5446 8.72291 14.4766 8.553 14.4766Z" fill="white"/>
<path d="M4.61062 14.4766C4.24813 14.4766 3.95361 14.7711 3.95361 15.1336V21.7149C3.95361 22.0774 4.24813 22.3719 4.61062 22.3719C4.9731 22.3719 5.26762 22.0774 5.26762 21.7149V15.1336C5.26762 14.9637 5.19965 14.7938 5.07505 14.6692C4.95044 14.5446 4.78053 14.4766 4.61062 14.4766Z" fill="white"/>
<path d="M16.448 14.4766C16.0855 14.4766 15.791 14.7711 15.791 15.1336V21.7149C15.791 22.0774 16.0855 22.3719 16.448 22.3719C16.8105 22.3719 17.105 22.0774 17.105 21.7149V15.1336C17.105 14.9637 17.0371 14.7938 16.9125 14.6692C16.7879 14.5446 16.6179 14.4766 16.448 14.4766Z" fill="white"/>
<path d="M20.3904 14.4766C20.0279 14.4766 19.7334 14.7711 19.7334 15.1336V21.7149C19.7334 22.0774 20.0279 22.3719 20.3904 22.3719C20.7529 22.3719 21.0474 22.0774 21.0474 21.7149V15.1336C21.0474 14.9637 20.9794 14.7938 20.8548 14.6692C20.7302 14.5446 20.5603 14.4766 20.3904 14.4766Z" fill="white"/>
</svg>
