<svg width="30" height="17" viewBox="0 0 30 17" fill="none" xmlns="http://www.w3.org/2000/svg">
<path d="M28.7199 9.07H25.7799L24.7399 3.86C24.6899 3.6 24.4499 3.4 24.1799 3.4H16.8099V0.57C16.8099 0.42 16.7499 0.28 16.6399 0.17C16.5299 0.06 16.3899 0 16.2399 0H1.50994C1.18994 0 0.939941 0.25 0.939941 0.57V14.17C0.939941 14.32 0.999941 14.46 1.10994 14.57C1.21994 14.68 1.35994 14.74 1.50994 14.74H2.12994C2.26994 15.46 2.68994 16.09 3.29994 16.51C3.89994 16.93 4.64994 17.09 5.36994 16.97C6.08994 16.85 6.73994 16.45 7.17994 15.86C7.60994 16.45 8.25994 16.85 8.98994 16.97C9.70994 17.09 10.4599 16.93 11.0599 16.51C11.6599 16.09 12.0799 15.46 12.2299 14.74H19.1499C19.3299 15.6 19.8899 16.33 20.6799 16.72C21.4699 17.11 22.3899 17.11 23.1799 16.72C23.9699 16.33 24.5299 15.6 24.7099 14.74H28.7399C28.8899 14.74 29.0299 14.68 29.1399 14.57C29.2499 14.46 29.3099 14.32 29.3099 14.17V9.63C29.3099 9.48 29.2499 9.34 29.1399 9.23C29.0299 9.12 28.8899 9.06 28.7399 9.06L28.7199 9.07ZM6.49994 14.74C6.34994 15.18 6.00994 15.54 5.57994 15.73C5.14994 15.92 4.65994 15.92 4.22994 15.73C3.79994 15.54 3.46994 15.18 3.30994 14.74C3.16994 14.37 3.16994 13.97 3.30994 13.61C3.45994 13.17 3.79994 12.81 4.22994 12.62C4.65994 12.43 5.14994 12.43 5.57994 12.62C6.00994 12.81 6.33994 13.17 6.49994 13.61C6.63994 13.98 6.63994 14.38 6.49994 14.74ZM11.0399 14.74C10.8899 15.18 10.5499 15.54 10.1199 15.73C9.68994 15.92 9.19994 15.92 8.76994 15.73C8.33994 15.54 8.00994 15.18 7.84994 14.74C7.70994 14.37 7.70994 13.97 7.84994 13.61C7.99994 13.17 8.33994 12.81 8.76994 12.62C9.19994 12.43 9.68994 12.43 10.1199 12.62C10.5499 12.81 10.8799 13.17 11.0399 13.61C11.1799 13.98 11.1799 14.38 11.0399 14.74ZM15.6799 3.97V13.61H12.2199C12.0799 12.89 11.6599 12.26 11.0499 11.84C10.4499 11.42 9.69994 11.26 8.97994 11.38C8.25994 11.5 7.60994 11.9 7.16994 12.49C6.73994 11.9 6.08994 11.5 5.35994 11.38C4.63994 11.26 3.88994 11.42 3.28994 11.84C2.68994 12.26 2.26994 12.89 2.11994 13.61H2.05994V1.13H15.6799V3.97ZM24.6299 9.07H21.1899L20.4299 6.8H24.1699L24.6199 9.07H24.6299ZM23.5199 14.74C23.3699 15.18 23.0299 15.54 22.5999 15.73C22.1699 15.92 21.6799 15.92 21.2499 15.73C20.8199 15.54 20.4899 15.18 20.3299 14.74C20.1899 14.37 20.1899 13.97 20.3299 13.61C20.4799 13.17 20.8199 12.81 21.2499 12.62C21.6799 12.43 22.1699 12.43 22.5999 12.62C23.0299 12.81 23.3599 13.17 23.5199 13.61C23.6599 13.98 23.6599 14.38 23.5199 14.74ZM28.1599 13.61H24.6999C24.5199 12.75 23.9599 12.02 23.1699 11.63C22.3799 11.24 21.4599 11.24 20.6699 11.63C19.8799 12.02 19.3199 12.75 19.1399 13.61H16.8199V4.54H23.7299L23.9599 5.67H19.6599C19.4799 5.67 19.3099 5.76 19.1999 5.91C19.0899 6.06 19.0599 6.25 19.1199 6.42L20.2499 9.82C20.3299 10.05 20.5399 10.21 20.7899 10.21H28.1599V13.61Z" fill="white"/>
<path d="M11.7101 3.39977H13.9801C14.2901 3.39977 14.5501 3.14977 14.5501 2.82977C14.5501 2.50977 14.3001 2.25977 13.9801 2.25977H11.7101C11.4001 2.25977 11.1401 2.50977 11.1401 2.82977C11.1401 3.14977 11.3901 3.39977 11.7101 3.39977Z" fill="white"/>
<path d="M9.44012 5.6693H12.8401C13.1501 5.6693 13.4101 5.4193 13.4101 5.0993C13.4101 4.7793 13.1601 4.5293 12.8401 4.5293H9.44012C9.13012 4.5293 8.87012 4.7793 8.87012 5.0993C8.87012 5.4193 9.12012 5.6693 9.44012 5.6693Z" fill="white"/>
<path d="M7.17986 7.94078H11.7198C12.0298 7.94078 12.2898 7.69078 12.2898 7.37078C12.2898 7.05078 12.0398 6.80078 11.7198 6.80078H7.17986C6.86986 6.80078 6.60986 7.05078 6.60986 7.37078C6.60986 7.69078 6.85986 7.94078 7.17986 7.94078Z" fill="white"/>
<path d="M3.76971 10.2006H10.5697C10.8797 10.2006 11.1397 9.95055 11.1397 9.63055C11.1397 9.31055 10.8897 9.06055 10.5697 9.06055H3.76971C3.45971 9.06055 3.19971 9.31055 3.19971 9.63055C3.19971 9.95055 3.44971 10.2006 3.76971 10.2006Z" fill="white"/>
</svg>
