<svg width="169" height="170" viewBox="0 0 169 170" fill="none" xmlns="http://www.w3.org/2000/svg">
<path d="M32.7539 131.219H27.3164V63.25H141.504V112.188H136.066V68.6875H32.7539V131.219Z" fill="url(#paint0_linear_3025_602)"/>
<path d="M141.504 90.4375H27.3164V63.25H141.504V90.4375ZM32.7539 85H136.066V68.6875H32.7539V85Z" fill="url(#paint1_linear_3025_602)"/>
<path d="M27.3164 74.125H141.504V79.5625H27.3164V74.125Z" fill="url(#paint2_linear_3025_602)"/>
<path d="M130.629 57.8125H38.1914V36.0625H130.629V57.8125ZM43.6289 52.375H125.191V41.5H43.6289V52.375Z" fill="url(#paint3_linear_3025_602)"/>
<path d="M0.128906 163.844H168.691V169.281H0.128906V163.844Z" fill="url(#paint4_linear_3025_602)"/>
<path d="M59.9414 169.281H16.4414V125.781H59.9414V169.281ZM21.8789 163.844H54.5039V131.219H21.8789V163.844Z" fill="url(#paint5_linear_3025_602)"/>
<path d="M46.3477 155.688H49.0664V158.406H46.3477V155.688Z" fill="url(#paint6_linear_3025_602)"/>
<path d="M40.9102 155.688H43.6289V158.406H40.9102V155.688Z" fill="url(#paint7_linear_3025_602)"/>
<path d="M149.66 169.281C147.509 169.281 145.407 168.643 143.618 167.448C141.83 166.254 140.436 164.555 139.613 162.568C138.79 160.581 138.575 158.394 138.994 156.285C139.414 154.175 140.449 152.237 141.97 150.716C143.491 149.196 145.429 148.16 147.539 147.74C149.648 147.321 151.835 147.536 153.822 148.359C155.809 149.182 157.507 150.576 158.702 152.364C159.897 154.153 160.535 156.255 160.535 158.406C160.535 161.29 159.389 164.057 157.35 166.096C155.31 168.135 152.544 169.281 149.66 169.281ZM149.66 152.969C148.585 152.969 147.533 153.288 146.639 153.885C145.745 154.483 145.048 155.332 144.637 156.325C144.225 157.319 144.117 158.412 144.327 159.467C144.537 160.522 145.055 161.491 145.815 162.251C146.576 163.012 147.545 163.529 148.599 163.739C149.654 163.949 150.747 163.841 151.741 163.43C152.735 163.018 153.584 162.321 154.181 161.427C154.779 160.533 155.098 159.482 155.098 158.406C155.098 156.964 154.525 155.581 153.505 154.561C152.485 153.542 151.102 152.969 149.66 152.969Z" fill="url(#paint8_linear_3025_602)"/>
<path d="M98.0039 169.281C95.853 169.281 93.7505 168.643 91.9621 167.448C90.1737 166.254 88.7798 164.555 87.9567 162.568C87.1336 160.581 86.9183 158.394 87.3379 156.285C87.7575 154.175 88.7932 152.237 90.3141 150.716C91.835 149.196 93.7728 148.16 95.8823 147.74C97.9918 147.321 100.178 147.536 102.166 148.359C104.153 149.182 105.851 150.576 107.046 152.364C108.241 154.153 108.879 156.255 108.879 158.406C108.879 161.29 107.733 164.057 105.694 166.096C103.654 168.135 100.888 169.281 98.0039 169.281ZM98.0039 152.969C96.9285 152.969 95.8772 153.288 94.983 153.885C94.0888 154.483 93.3919 155.332 92.9803 156.325C92.5688 157.319 92.4611 158.412 92.6709 159.467C92.8807 160.522 93.3986 161.491 94.159 162.251C94.9195 163.012 95.8883 163.529 96.9431 163.739C97.9979 163.949 99.0912 163.841 100.085 163.43C101.078 163.018 101.928 162.321 102.525 161.427C103.123 160.533 103.441 159.482 103.441 158.406C103.441 156.964 102.869 155.581 101.849 154.561C100.829 153.542 99.446 152.969 98.0039 152.969Z" fill="url(#paint9_linear_3025_602)"/>
<path d="M130.629 142.094H87.1289V98.5938H130.629V142.094ZM92.5664 136.656H125.191V104.031H92.5664V136.656Z" fill="url(#paint10_linear_3025_602)"/>
<path d="M117.035 128.5H119.754V131.219H117.035V128.5Z" fill="url(#paint11_linear_3025_602)"/>
<path d="M111.598 128.5H114.316V131.219H111.598V128.5Z" fill="url(#paint12_linear_3025_602)"/>
<path d="M46.3477 144.812H30.0352V125.781H46.3477V144.812ZM35.4727 139.375H40.9102V131.219H35.4727V139.375Z" fill="url(#paint13_linear_3025_602)"/>
<path d="M117.035 117.625H100.723V98.5938H117.035V117.625ZM106.16 112.188H111.598V104.031H106.16V112.188Z" fill="url(#paint14_linear_3025_602)"/>
<path d="M162.248 139.375H144.223C143.502 139.375 142.81 139.089 142.3 138.579C141.79 138.069 141.504 137.377 141.504 136.656V125.781C141.504 125.06 141.79 124.369 142.3 123.859C142.81 123.349 143.502 123.063 144.223 123.063H158.17C158.723 123.062 159.264 123.23 159.719 123.545C160.174 123.86 160.522 124.306 160.717 124.824L164.795 135.699C164.95 136.111 165.003 136.554 164.949 136.99C164.895 137.427 164.736 137.843 164.485 138.205C164.235 138.566 163.9 138.862 163.511 139.065C163.121 139.269 162.688 139.375 162.248 139.375ZM146.941 133.938H158.325L156.286 128.5H146.941V133.938Z" fill="url(#paint15_linear_3025_602)"/>
<path d="M165.973 161.125H157.816V155.688H160.535V139.87L153.214 120.344H138.785V142.094H84.4102V155.688H89.8477V161.125H78.9727V136.656H133.348V114.906H156.982L165.973 138.88V161.125Z" fill="url(#paint16_linear_3025_602)"/>
<path d="M106.16 155.688H141.504V161.125H106.16V155.688Z" fill="url(#paint17_linear_3025_602)"/>
<path d="M98.0039 161.125C99.5054 161.125 100.723 159.908 100.723 158.406C100.723 156.905 99.5054 155.688 98.0039 155.688C96.5024 155.688 95.2852 156.905 95.2852 158.406C95.2852 159.908 96.5024 161.125 98.0039 161.125Z" fill="url(#paint18_linear_3025_602)"/>
<path d="M149.66 161.125C151.162 161.125 152.379 159.908 152.379 158.406C152.379 156.905 151.162 155.688 149.66 155.688C148.159 155.688 146.941 156.905 146.941 158.406C146.941 159.908 148.159 161.125 149.66 161.125Z" fill="url(#paint19_linear_3025_602)"/>
<path d="M152.379 112.188V40.462L84.3884 6.46678L13.7227 40.4892V166.563C13.7227 167.284 13.4362 167.976 12.9264 168.486C12.4165 168.995 11.725 169.282 11.0039 169.282C10.2828 169.282 9.59132 168.995 9.08146 168.486C8.5716 167.976 8.28516 167.284 8.28516 166.563V38.7818C8.28562 38.2706 8.43025 37.7698 8.70244 37.337C8.97463 36.9042 9.36335 36.5569 9.82397 36.335L83.2302 0.991221C83.6044 0.811284 84.0148 0.719443 84.43 0.722742C84.8452 0.726041 85.2542 0.824392 85.6254 1.01025L156.313 36.354C156.764 36.5794 157.144 36.9259 157.409 37.3546C157.675 37.7834 157.816 38.2775 157.816 38.7818V112.188H152.379Z" fill="url(#paint20_linear_3025_602)"/>
<defs>
<linearGradient id="paint0_linear_3025_602" x1="-1.6845" y1="173.813" x2="170.657" y2="1.47184" gradientUnits="userSpaceOnUse">
<stop stop-color="#1788D6"/>
<stop offset="1" stop-color="#E48A36"/>
</linearGradient>
<linearGradient id="paint1_linear_3025_602" x1="-7.122" y1="168.376" x2="165.22" y2="-3.96566" gradientUnits="userSpaceOnUse">
<stop stop-color="#1788D6"/>
<stop offset="1" stop-color="#E48A36"/>
</linearGradient>
<linearGradient id="paint2_linear_3025_602" x1="-7.122" y1="168.376" x2="165.22" y2="-3.96566" gradientUnits="userSpaceOnUse">
<stop stop-color="#1788D6"/>
<stop offset="1" stop-color="#E48A36"/>
</linearGradient>
<linearGradient id="paint3_linear_3025_602" x1="-22.0751" y1="153.423" x2="150.266" y2="-18.9188" gradientUnits="userSpaceOnUse">
<stop stop-color="#1788D6"/>
<stop offset="1" stop-color="#E48A36"/>
</linearGradient>
<linearGradient id="paint4_linear_3025_602" x1="37.7374" y1="213.235" x2="210.079" y2="40.8937" gradientUnits="userSpaceOnUse">
<stop stop-color="#1788D6"/>
<stop offset="1" stop-color="#E48A36"/>
</linearGradient>
<linearGradient id="paint5_linear_3025_602" x1="5.11238" y1="180.61" x2="177.454" y2="8.26872" gradientUnits="userSpaceOnUse">
<stop stop-color="#1788D6"/>
<stop offset="1" stop-color="#E48A36"/>
</linearGradient>
<linearGradient id="paint6_linear_3025_602" x1="14.628" y1="190.126" x2="186.97" y2="17.7843" gradientUnits="userSpaceOnUse">
<stop stop-color="#1788D6"/>
<stop offset="1" stop-color="#E48A36"/>
</linearGradient>
<linearGradient id="paint7_linear_3025_602" x1="11.9093" y1="187.407" x2="184.251" y2="15.0656" gradientUnits="userSpaceOnUse">
<stop stop-color="#1788D6"/>
<stop offset="1" stop-color="#E48A36"/>
</linearGradient>
<linearGradient id="paint8_linear_3025_602" x1="66.2843" y1="241.782" x2="238.626" y2="69.4406" gradientUnits="userSpaceOnUse">
<stop stop-color="#1788D6"/>
<stop offset="1" stop-color="#E48A36"/>
</linearGradient>
<linearGradient id="paint9_linear_3025_602" x1="40.4561" y1="215.954" x2="212.798" y2="43.6125" gradientUnits="userSpaceOnUse">
<stop stop-color="#1788D6"/>
<stop offset="1" stop-color="#E48A36"/>
</linearGradient>
<linearGradient id="paint10_linear_3025_602" x1="26.8624" y1="202.36" x2="199.204" y2="30.0187" gradientUnits="userSpaceOnUse">
<stop stop-color="#1788D6"/>
<stop offset="1" stop-color="#E48A36"/>
</linearGradient>
<linearGradient id="paint11_linear_3025_602" x1="36.378" y1="211.876" x2="208.72" y2="39.5343" gradientUnits="userSpaceOnUse">
<stop stop-color="#1788D6"/>
<stop offset="1" stop-color="#E48A36"/>
</linearGradient>
<linearGradient id="paint12_linear_3025_602" x1="33.6592" y1="209.157" x2="206.001" y2="36.8156" gradientUnits="userSpaceOnUse">
<stop stop-color="#1788D6"/>
<stop offset="1" stop-color="#E48A36"/>
</linearGradient>
<linearGradient id="paint13_linear_3025_602" x1="-1.00481" y1="174.493" x2="171.337" y2="2.15153" gradientUnits="userSpaceOnUse">
<stop stop-color="#1788D6"/>
<stop offset="1" stop-color="#E48A36"/>
</linearGradient>
<linearGradient id="paint14_linear_3025_602" x1="20.7452" y1="196.243" x2="193.087" y2="23.9015" gradientUnits="userSpaceOnUse">
<stop stop-color="#1788D6"/>
<stop offset="1" stop-color="#E48A36"/>
</linearGradient>
<linearGradient id="paint15_linear_3025_602" x1="54.4794" y1="229.975" x2="226.818" y2="57.6358" gradientUnits="userSpaceOnUse">
<stop stop-color="#1788D6"/>
<stop offset="1" stop-color="#E48A36"/>
</linearGradient>
<linearGradient id="paint16_linear_3025_602" x1="47.9327" y1="223.431" x2="220.274" y2="51.089" gradientUnits="userSpaceOnUse">
<stop stop-color="#1788D6"/>
<stop offset="1" stop-color="#E48A36"/>
</linearGradient>
<linearGradient id="paint17_linear_3025_602" x1="53.3702" y1="228.868" x2="225.712" y2="56.5265" gradientUnits="userSpaceOnUse">
<stop stop-color="#1788D6"/>
<stop offset="1" stop-color="#E48A36"/>
</linearGradient>
<linearGradient id="paint18_linear_3025_602" x1="40.4561" y1="215.954" x2="212.798" y2="43.6125" gradientUnits="userSpaceOnUse">
<stop stop-color="#1788D6"/>
<stop offset="1" stop-color="#E48A36"/>
</linearGradient>
<linearGradient id="paint19_linear_3025_602" x1="66.2842" y1="241.782" x2="238.626" y2="69.4406" gradientUnits="userSpaceOnUse">
<stop stop-color="#1788D6"/>
<stop offset="1" stop-color="#E48A36"/>
</linearGradient>
<linearGradient id="paint20_linear_3025_602" x1="-8.76141" y1="166.734" x2="163.577" y2="-5.60446" gradientUnits="userSpaceOnUse">
<stop stop-color="#1788D6"/>
<stop offset="1" stop-color="#E48A36"/>
</linearGradient>
</defs>
</svg>
