<svg width="512" height="512" viewBox="0 0 512 512" fill="none" xmlns="http://www.w3.org/2000/svg">
<rect width="512" height="512" rx="35" fill="white"/>
<path fill-rule="evenodd" clip-rule="evenodd" d="M255.961 480.999C254.014 476.613 251.255 472.553 248.172 468.978C245.414 465.89 242.331 462.805 239.086 460.367C236.976 458.744 234.542 457.118 232.108 455.656C230.648 454.845 229.837 454.355 228.052 453.869C219.127 450.945 211.826 447.535 203.712 442.985C202.414 442.334 201.278 441.523 199.98 440.711C196.086 438.274 192.516 435.511 188.946 432.587C188.622 432.262 188.46 432.262 188.135 431.936L185.701 429.827C183.105 427.715 177.264 421.216 175.154 418.453C172.233 414.393 169.313 410.493 167.041 405.946C165.256 402.372 161.524 394.411 161.524 390.998C160.713 390.998 160.226 391.648 159.739 391.974L147.894 400.259C147.894 390.187 150.328 378.491 153.573 369.229C156.332 361.759 159.577 354.61 163.796 347.786C164.12 347.136 164.282 346.811 164.607 346.324C176.128 455.495 335.47 453.708 346.504 346.324C346.828 346.811 346.991 347.136 347.477 347.786C351.534 354.61 354.942 361.594 357.7 369.229C360.945 378.491 363.379 390.187 363.379 400.259L351.534 391.974C351.534 391.974 350.561 390.998 349.749 390.998C349.749 394.411 346.017 402.372 344.232 405.946C341.96 410.493 339.202 414.554 336.119 418.453C334.01 421.216 328.168 427.715 325.572 429.827L323.138 431.936C323.138 431.936 322.651 432.262 322.327 432.587C318.757 435.511 315.187 438.113 311.293 440.711C309.995 441.523 308.859 442.173 307.561 442.985C299.448 447.535 292.146 450.784 283.221 453.869C281.437 454.52 280.625 454.845 279.165 455.656C276.731 456.957 274.297 458.58 272.187 460.367C268.942 462.966 265.859 465.89 263.101 468.978C260.018 472.388 257.259 476.613 255.312 480.999H255.961Z" fill="#F58345"/>
<path d="M221.561 317.733C219.938 320.658 218.64 323.907 217.667 326.993C216.855 330.08 216.368 333.492 216.368 337.065C216.368 347.949 220.749 357.861 227.889 365.007C235.029 372.155 244.927 376.541 255.798 376.541C266.67 376.541 276.568 372.155 283.708 365.007C290.847 357.861 295.228 347.949 295.228 337.065C295.228 333.492 294.741 330.08 293.93 326.993C293.119 323.744 291.821 320.495 290.198 317.733L255.798 256.488L221.399 317.733H221.561ZM201.115 158.852L106.516 320.658C102.297 327.968 92.8862 330.405 85.5843 326.181C78.2825 321.957 75.8486 312.535 80.0674 305.224L184.24 127.174C183.267 124.574 182.293 121.813 181.644 119.051C180.184 113.202 179.372 107.354 179.372 101.343C179.372 82.011 187.161 64.4658 199.98 51.6318C212.636 38.9603 230.161 31 249.632 31C264.398 31 278.028 35.5487 289.387 43.3466C301.07 51.3069 310.156 62.8412 315.187 76.1625C318.27 84.1228 314.213 92.8955 306.262 95.9821C298.311 99.0687 289.549 95.0074 286.466 87.047C283.545 79.4116 278.515 73.0759 271.862 68.5271C265.534 64.1408 257.908 61.7041 249.47 61.7041C238.598 61.7041 228.7 66.0903 221.561 73.2382C214.421 80.3864 210.04 90.2962 210.04 101.181C210.04 104.755 210.527 108.166 211.338 111.253C212.15 114.177 213.285 117.101 214.584 119.7C214.746 120.025 214.908 120.35 215.07 120.675L255.961 193.618L296.851 120.675C301.07 113.365 310.319 110.603 317.783 114.827C320.379 116.289 322.488 118.401 323.786 121C324.436 121.65 324.922 122.462 325.409 123.275L431.69 305.062C435.909 312.372 433.477 321.795 426.174 326.019C418.873 330.242 409.463 327.806 405.244 320.495L310.643 158.69L273.485 224.971L316.971 302.625C319.892 307.824 322.164 313.51 323.624 319.196C325.085 325.044 325.896 330.892 325.896 336.904C325.896 356.235 318.107 373.781 305.289 386.614C292.632 399.285 275.108 407.246 255.636 407.246C236.165 407.246 218.802 399.45 205.983 386.614C193.327 373.943 185.376 356.399 185.376 336.904C185.376 330.892 186.188 324.882 187.648 319.196C189.27 313.185 191.542 307.661 194.3 302.625L237.787 224.971L200.629 158.69L201.115 158.852Z" fill="#304D75"/>
</svg>
